G04*
G04 #@! TF.GenerationSoftware,Altium Limited,Altium Designer,22.1.2 (22)*
G04*
G04 Layer_Color=128*
%FSTAX24Y24*%
%MOIN*%
G70*
G04*
G04 #@! TF.SameCoordinates,360A1761-899D-4A34-B866-C5D0D12458BF*
G04*
G04*
G04 #@! TF.FilePolarity,Positive*
G04*
G01*
G75*
%ADD75C,0.0020*%
D75*
X018857Y027036D02*
X018975D01*
X018916Y026977D02*
Y027095D01*
X018134Y027036D02*
X018252D01*
X018193Y026977D02*
Y027095D01*
X019579Y027036D02*
X019697D01*
X019638Y026977D02*
Y027095D01*
X018134Y026313D02*
X018252D01*
X018193Y026254D02*
Y026372D01*
X018857Y026313D02*
X018975D01*
X018916Y026254D02*
Y026372D01*
X019579Y026313D02*
X019697D01*
X019638Y026254D02*
Y026372D01*
X018495Y026675D02*
X018614D01*
X018555Y026616D02*
Y026734D01*
X019218Y026675D02*
X019336D01*
X019277Y026616D02*
Y026734D01*
X018495Y027397D02*
X018614D01*
X018555Y027338D02*
Y027456D01*
X019218Y027397D02*
X019336D01*
X019277Y027338D02*
Y027456D01*
X018495Y025952D02*
X018614D01*
X018555Y025893D02*
Y026011D01*
X019218Y025952D02*
X019336D01*
X019277Y025893D02*
Y026011D01*
X022983Y0105D02*
X023417D01*
X0232Y010283D02*
Y010717D01*
X021983Y0105D02*
X022417D01*
X0222Y010283D02*
Y010717D01*
X020983Y0105D02*
X021417D01*
X0212Y010283D02*
Y010717D01*
X019983Y0105D02*
X020417D01*
X0202Y010283D02*
Y010717D01*
X021983Y0119D02*
X022417D01*
X0222Y011683D02*
Y012117D01*
X020983Y0119D02*
X021417D01*
X0212Y011683D02*
Y012117D01*
X019983Y0119D02*
X020417D01*
X0202Y011683D02*
Y012117D01*
X021983Y0129D02*
X022417D01*
X0222Y012683D02*
Y013117D01*
X020983Y0129D02*
X021417D01*
X0212Y012683D02*
Y013117D01*
X019983Y0129D02*
X020417D01*
X0202Y012683D02*
Y013117D01*
X014505Y0123D02*
X015095D01*
X0148Y012005D02*
Y012595D01*
X012505Y0108D02*
X013095D01*
X0128Y010505D02*
Y011095D01*
X012505Y0133D02*
X013095D01*
X0128Y013005D02*
Y013595D01*
X023653Y0272D02*
X024087D01*
X02387Y026983D02*
Y027417D01*
X023653Y0282D02*
X024087D01*
X02387Y027983D02*
Y028417D01*
X023653Y0292D02*
X024087D01*
X02387Y028983D02*
Y029417D01*
X024653Y0272D02*
X025087D01*
X02487Y026983D02*
Y027417D01*
X024653Y0282D02*
X025087D01*
X02487Y027983D02*
Y028417D01*
X024653Y0292D02*
X025087D01*
X02487Y028983D02*
Y029417D01*
X028883Y0296D02*
X029317D01*
X0291Y029383D02*
Y029817D01*
X028883Y0286D02*
X029317D01*
X0291Y028383D02*
Y028817D01*
X028883Y0276D02*
X029317D01*
X0291Y027383D02*
Y027817D01*
X028883Y0266D02*
X029317D01*
X0291Y026383D02*
Y026817D01*
X028883Y0256D02*
X029317D01*
X0291Y025383D02*
Y025817D01*
X028883Y0246D02*
X029317D01*
X0291Y024383D02*
Y024817D01*
X028883Y0236D02*
X029317D01*
X0291Y023383D02*
Y023817D01*
X028883Y0226D02*
X029317D01*
X0291Y022383D02*
Y022817D01*
X028883Y0216D02*
X029317D01*
X0291Y021383D02*
Y021817D01*
X028883Y0206D02*
X029317D01*
X0291Y020383D02*
Y020817D01*
X028883Y0196D02*
X029317D01*
X0291Y019383D02*
Y019817D01*
X028883Y0186D02*
X029317D01*
X0291Y018383D02*
Y018817D01*
X028883Y0176D02*
X029317D01*
X0291Y017383D02*
Y017817D01*
X028883Y0166D02*
X029317D01*
X0291Y016383D02*
Y016817D01*
X028883Y0156D02*
X029317D01*
X0291Y015383D02*
Y015817D01*
X028883Y0146D02*
X029317D01*
X0291Y014383D02*
Y014817D01*
X028883Y0136D02*
X029317D01*
X0291Y013383D02*
Y013817D01*
X028883Y0126D02*
X029317D01*
X0291Y012383D02*
Y012817D01*
X028883Y0116D02*
X029317D01*
X0291Y011383D02*
Y011817D01*
X028883Y0106D02*
X029317D01*
X0291Y010383D02*
Y010817D01*
X010383Y0296D02*
X010817D01*
X0106Y029383D02*
Y029817D01*
X010383Y0286D02*
X010817D01*
X0106Y028383D02*
Y028817D01*
X010383Y0276D02*
X010817D01*
X0106Y027383D02*
Y027817D01*
X010383Y0266D02*
X010817D01*
X0106Y026383D02*
Y026817D01*
X010383Y0256D02*
X010817D01*
X0106Y025383D02*
Y025817D01*
X010383Y0246D02*
X010817D01*
X0106Y024383D02*
Y024817D01*
X010383Y0236D02*
X010817D01*
X0106Y023383D02*
Y023817D01*
X010383Y0226D02*
X010817D01*
X0106Y022383D02*
Y022817D01*
X010383Y0216D02*
X010817D01*
X0106Y021383D02*
Y021817D01*
X010383Y0206D02*
X010817D01*
X0106Y020383D02*
Y020817D01*
X010383Y0196D02*
X010817D01*
X0106Y019383D02*
Y019817D01*
X010383Y0186D02*
X010817D01*
X0106Y018383D02*
Y018817D01*
X010383Y0176D02*
X010817D01*
X0106Y017383D02*
Y017817D01*
X010383Y0166D02*
X010817D01*
X0106Y016383D02*
Y016817D01*
X010383Y0156D02*
X010817D01*
X0106Y015383D02*
Y015817D01*
X010383Y0146D02*
X010817D01*
X0106Y014383D02*
Y014817D01*
X010383Y0136D02*
X010817D01*
X0106Y013383D02*
Y013817D01*
X010383Y0126D02*
X010817D01*
X0106Y012383D02*
Y012817D01*
X010383Y0116D02*
X010817D01*
X0106Y011383D02*
Y011817D01*
X010383Y0106D02*
X010817D01*
X0106Y010383D02*
Y010817D01*
X012617Y029028D02*
X012735D01*
X012676Y028969D02*
Y029087D01*
X013991Y022232D02*
X014109D01*
X01405Y022173D02*
Y022291D01*
X0215Y02226D02*
X021618D01*
X021559Y022201D02*
Y022319D01*
X023601Y012158D02*
X023719D01*
X02366Y012099D02*
Y012217D01*
X023991Y01165D02*
X024109D01*
X02405Y011591D02*
Y011709D01*
X017591Y010195D02*
X017709D01*
X01765Y010136D02*
Y010254D01*
X019917Y01093D02*
X020035D01*
X019976Y010871D02*
Y010989D01*
X020341Y01605D02*
X020459D01*
X0204Y015991D02*
Y016109D01*
X019541Y01605D02*
X019659D01*
X0196Y015991D02*
Y016109D01*
X021044Y017154D02*
X021163D01*
X021104Y017094D02*
Y017213D01*
X021282Y01751D02*
X0214D01*
X021341Y017451D02*
Y017569D01*
X0213Y01778D02*
X021418D01*
X021359Y017721D02*
Y017839D01*
X012735Y0277D02*
X012865D01*
X0128Y027635D02*
Y027765D01*
X019865Y017871D02*
X019984D01*
X019924Y017812D02*
Y017931D01*
X020141Y0183D02*
X020259D01*
X0202Y018241D02*
Y018359D01*
X016641Y020359D02*
X016759D01*
X0167Y0203D02*
Y020418D01*
X020391Y02045D02*
X020509D01*
X02045Y020391D02*
Y020509D01*
X018541Y019304D02*
X018659D01*
X0186Y019245D02*
Y019363D01*
X019341Y01838D02*
X019459D01*
X0194Y018321D02*
Y018439D01*
X019341Y0189D02*
X019459D01*
X0194Y018841D02*
Y018959D01*
X019456Y018124D02*
X019574D01*
X019515Y018065D02*
Y018183D01*
X020891Y0191D02*
X021009D01*
X02095Y019041D02*
Y019159D01*
X019994Y020663D02*
X020112D01*
X020053Y020604D02*
Y020722D01*
X019791Y02045D02*
X019909D01*
X01985Y020391D02*
Y020509D01*
X019331Y02045D02*
X019449D01*
X01939Y020391D02*
Y020509D01*
X016175Y0148D02*
X016325D01*
X01625Y014725D02*
Y014875D01*
X014875Y0151D02*
X015025D01*
X01495Y015025D02*
Y015175D01*
X014075Y01525D02*
X014225D01*
X01415Y015175D02*
Y015325D01*
X014104Y014329D02*
X014254D01*
X014179Y014254D02*
Y014404D01*
X011791Y0201D02*
X011909D01*
X01185Y020041D02*
Y020159D01*
X012491Y0207D02*
X012609D01*
X01255Y020641D02*
Y020759D01*
X020491Y01395D02*
X020609D01*
X02055Y013891D02*
Y014009D01*
X019491Y01395D02*
X019609D01*
X01955Y013891D02*
Y014009D01*
X018715Y01025D02*
X018833D01*
X018774Y010191D02*
Y010309D01*
X024025Y02975D02*
X024175D01*
X0241Y029675D02*
Y029825D01*
X02819Y029955D02*
X02834D01*
X028265Y02988D02*
Y03003D01*
X018775Y01079D02*
X018925D01*
X01885Y010715D02*
Y010865D01*
X020525Y01135D02*
X020675D01*
X0206Y011275D02*
Y011425D01*
X011625Y0214D02*
X011775D01*
X0117Y021325D02*
Y021475D01*
X024791Y01605D02*
X024909D01*
X02485Y015991D02*
Y016109D01*
X013891Y0287D02*
X014009D01*
X01395Y028641D02*
Y028759D01*
X013675Y0262D02*
X013825D01*
X01375Y026125D02*
Y026275D01*
X027075Y02955D02*
X027225D01*
X02715Y029475D02*
Y029625D01*
X015725Y02915D02*
X015875D01*
X0158Y029075D02*
Y029225D01*
X013325Y02975D02*
X013475D01*
X0134Y029675D02*
Y029825D01*
X014791Y0276D02*
X014909D01*
X01485Y027541D02*
Y027659D01*
X02369Y01095D02*
X02381D01*
X02375Y01089D02*
Y01101D01*
X023925Y0142D02*
X024075D01*
X024Y014125D02*
Y014275D01*
X023905Y01517D02*
X024055D01*
X02398Y015095D02*
Y015245D01*
X024394Y012095D02*
X024544D01*
X024469Y01202D02*
Y01217D01*
X023975Y01315D02*
X024125D01*
X02405Y013075D02*
Y013225D01*
X017541Y01465D02*
X017659D01*
X0176Y014591D02*
Y014709D01*
X025625Y0113D02*
X025775D01*
X0257Y011225D02*
Y011375D01*
X027391Y01085D02*
X027509D01*
X02745Y010791D02*
Y010909D01*
X020975Y0219D02*
X021125D01*
X02105Y021825D02*
Y021975D01*
X024118Y0223D02*
X024268D01*
X024193Y022225D02*
Y022375D01*
M02*
