G04*
G04 #@! TF.GenerationSoftware,Altium Limited,Altium Designer,22.1.2 (22)*
G04*
G04 Layer_Color=16711935*
%FSTAX24Y24*%
%MOIN*%
G70*
G04*
G04 #@! TF.SameCoordinates,360A1761-899D-4A34-B866-C5D0D12458BF*
G04*
G04*
G04 #@! TF.FilePolarity,Positive*
G04*
G01*
G75*
%ADD73C,0.0020*%
G36*
X015994Y012294D02*
X016038D01*
Y012275D01*
X015994D01*
Y012232D01*
X015976D01*
Y012275D01*
X015932D01*
Y012294D01*
X015976D01*
Y012337D01*
X015994D01*
Y012294D01*
D02*
G37*
G36*
X017944Y012242D02*
X017988D01*
Y012224D01*
X017944D01*
Y01218D01*
X017926D01*
Y012224D01*
X017882D01*
Y012242D01*
X017926D01*
Y012285D01*
X017944D01*
Y012242D01*
D02*
G37*
D73*
X016564Y012081D02*
G03*
X016564Y012081I-000264J0D01*
G01*
X017186Y01155D02*
G03*
X017186Y01155I-000886J0D01*
G01*
X018514Y01203D02*
G03*
X018514Y01203I-000264J0D01*
G01*
X019136Y011498D02*
G03*
X019136Y011498I-000886J0D01*
G01*
X016625Y012436D02*
Y012849D01*
X015975Y012436D02*
Y012849D01*
X016625D01*
X015975Y010251D02*
Y010664D01*
Y010251D02*
X016625D01*
Y010664D01*
X015414D02*
X017186D01*
X015863Y010782D02*
X016741D01*
X015702Y0109D02*
X016898D01*
X015595Y011019D02*
X017005D01*
X01552Y011137D02*
X01708D01*
X015469Y011255D02*
X017127D01*
X017186Y010664D02*
Y012239D01*
X016989Y012436D02*
X017186Y012239D01*
X015611Y012436D02*
X016989D01*
X015414Y012239D02*
X015611Y012436D01*
X015414Y010664D02*
Y012239D01*
X018575Y012384D02*
Y012797D01*
X017925Y012384D02*
Y012797D01*
X018575D01*
X017925Y010199D02*
Y010612D01*
Y010199D02*
X018575D01*
Y010612D01*
X017364D02*
X019136D01*
X017813Y01073D02*
X018691D01*
X017652Y010848D02*
X018848D01*
X017545Y010967D02*
X018955D01*
X01747Y011085D02*
X01903D01*
X017419Y011203D02*
X019077D01*
X019136Y010612D02*
Y012187D01*
X018939Y012384D02*
X019136Y012187D01*
X017561Y012384D02*
X018939D01*
X017364Y012187D02*
X017561Y012384D01*
X017364Y010612D02*
Y012187D01*
M02*
