M48
;Layer_Color=9474304
;FILE_FORMAT=2:4
INCH,LZ
;TYPE=PLATED
T1F00S00C0.0118
T2F00S00C0.0120
T3F00S00C0.0130
T4F00S00C0.0150
T5F00S00C0.0433
%
T01
X01765Y010195
X018774Y01025
X019976Y01093
X01955Y01395
X02055
X0176Y01465
X02366Y012158
X02405Y01165
X02745Y01085
X02485Y01605
X0204
X0196
X019924Y017871
X019515Y018124
X0194Y01838
Y0189
X0186Y019304
X01939Y02045
X01985
X020053Y020663
X02045Y02045
X02095Y0191
X0202Y0183
X021359Y01778
X021341Y01751
X021104Y017154
X021559Y02226
X019638Y026313
X019277Y025952
X018916Y026313
X018555Y025952
X018193Y026313
Y027036
X018916
X018555Y026675
X019277
X019638Y027036
X019277Y027397
X018555
X0167Y020359
X01255Y0207
X01185Y0201
X01405Y022232
X01485Y0276
X01395Y0287
X012676Y029028
T02
X02375Y01095
T03
X0128Y0277
T04
X014179Y014329
X01415Y01525
X01495Y0151
X01625Y0148
X01885Y01079
X0206Y01135
X024469Y012095
X02405Y01315
X024Y0142
X02398Y01517
X0257Y0113
X024193Y0223
X02105Y0219
X0241Y02975
X02715Y02955
X028265Y029955
X0158Y02915
X0134Y02975
X01375Y0262
X0117Y0214
T05
X0106Y0106
Y0116
Y0126
Y0136
Y0146
Y0156
X0202Y0129
Y0119
X0212
X0222
Y0129
X0212
Y0105
X0222
X0232
X0202
X0291Y0106
Y0116
Y0126
Y0136
Y0146
Y0156
Y0166
Y0176
Y0186
Y0196
Y0206
Y0216
Y0226
Y0236
Y0246
Y0256
Y0266
Y0276
Y0286
Y0296
X02487Y0292
X02387
Y0282
Y0272
X02487
Y0282
X0106Y0286
Y0296
Y0276
Y0266
Y0256
Y0246
Y0236
Y0226
Y0216
Y0206
Y0196
Y0186
Y0176
Y0166
M30
