G04*
G04 #@! TF.GenerationSoftware,Altium Limited,Altium Designer,22.1.2 (22)*
G04*
G04 Layer_Color=8421504*
%FSTAX24Y24*%
%MOIN*%
G70*
G04*
G04 #@! TF.SameCoordinates,360A1761-899D-4A34-B866-C5D0D12458BF*
G04*
G04*
G04 #@! TF.FilePolarity,Positive*
G04*
G01*
G75*
%ADD19R,0.0787X0.0354*%
%ADD20R,0.0354X0.0787*%
%ADD21R,0.0524X0.0524*%
%ADD22R,0.0315X0.0472*%
G04:AMPARAMS|DCode=23|XSize=66.9mil|YSize=11.8mil|CornerRadius=0mil|HoleSize=0mil|Usage=FLASHONLY|Rotation=135.000|XOffset=0mil|YOffset=0mil|HoleType=Round|Shape=Rectangle|*
%AMROTATEDRECTD23*
4,1,4,0.0278,-0.0195,0.0195,-0.0278,-0.0278,0.0195,-0.0195,0.0278,0.0278,-0.0195,0.0*
%
%ADD23ROTATEDRECTD23*%

G04:AMPARAMS|DCode=24|XSize=66.9mil|YSize=11.8mil|CornerRadius=0mil|HoleSize=0mil|Usage=FLASHONLY|Rotation=225.000|XOffset=0mil|YOffset=0mil|HoleType=Round|Shape=Rectangle|*
%AMROTATEDRECTD24*
4,1,4,0.0195,0.0278,0.0278,0.0195,-0.0195,-0.0278,-0.0278,-0.0195,0.0195,0.0278,0.0*
%
%ADD24ROTATEDRECTD24*%

G04:AMPARAMS|DCode=25|XSize=216.5mil|YSize=59.1mil|CornerRadius=7.4mil|HoleSize=0mil|Usage=FLASHONLY|Rotation=180.000|XOffset=0mil|YOffset=0mil|HoleType=Round|Shape=RoundedRectangle|*
%AMROUNDEDRECTD25*
21,1,0.2165,0.0443,0,0,180.0*
21,1,0.2018,0.0591,0,0,180.0*
1,1,0.0148,-0.1009,0.0221*
1,1,0.0148,0.1009,0.0221*
1,1,0.0148,0.1009,-0.0221*
1,1,0.0148,-0.1009,-0.0221*
%
%ADD25ROUNDEDRECTD25*%
%ADD26R,0.0433X0.0748*%
%ADD27R,0.0472X0.0315*%
G04:AMPARAMS|DCode=28|XSize=110.2mil|YSize=65mil|CornerRadius=6.5mil|HoleSize=0mil|Usage=FLASHONLY|Rotation=270.000|XOffset=0mil|YOffset=0mil|HoleType=Round|Shape=RoundedRectangle|*
%AMROUNDEDRECTD28*
21,1,0.1102,0.0520,0,0,270.0*
21,1,0.0972,0.0650,0,0,270.0*
1,1,0.0130,-0.0260,-0.0486*
1,1,0.0130,-0.0260,0.0486*
1,1,0.0130,0.0260,0.0486*
1,1,0.0130,0.0260,-0.0486*
%
%ADD28ROUNDEDRECTD28*%
%ADD29R,0.0551X0.0472*%
%ADD30R,0.0472X0.0551*%
%ADD31R,0.0600X0.0650*%
%ADD32R,0.0650X0.0600*%
D19*
X015963Y023127D02*
D03*
Y023627D02*
D03*
Y024127D02*
D03*
Y024627D02*
D03*
Y025127D02*
D03*
Y025627D02*
D03*
Y026127D02*
D03*
Y026627D02*
D03*
Y027127D02*
D03*
Y027627D02*
D03*
Y028127D02*
D03*
Y028627D02*
D03*
Y029127D02*
D03*
Y029627D02*
D03*
X022656Y023127D02*
D03*
Y023627D02*
D03*
Y024127D02*
D03*
Y024627D02*
D03*
Y025127D02*
D03*
Y025627D02*
D03*
Y026127D02*
D03*
Y026627D02*
D03*
Y027127D02*
D03*
Y027627D02*
D03*
Y028127D02*
D03*
Y028627D02*
D03*
Y029127D02*
D03*
Y029627D02*
D03*
D20*
X019559Y022734D02*
D03*
X020059D02*
D03*
X020559D02*
D03*
X021059D02*
D03*
X021559D02*
D03*
X019059D02*
D03*
X018559D02*
D03*
X018059D02*
D03*
X017559D02*
D03*
X017059D02*
D03*
D21*
X018916Y026675D02*
D03*
X018193D02*
D03*
X019638D02*
D03*
X018916Y027397D02*
D03*
X018193D02*
D03*
X019638D02*
D03*
X018916Y025952D02*
D03*
X018193D02*
D03*
X019638D02*
D03*
D22*
X01263Y029328D02*
D03*
Y026572D02*
D03*
X01435Y025028D02*
D03*
Y022272D02*
D03*
X0242Y022294D02*
D03*
Y02505D02*
D03*
D23*
X020264Y017455D02*
D03*
X020403Y017594D02*
D03*
X020543Y017733D02*
D03*
X020682Y017872D02*
D03*
X020821Y018011D02*
D03*
X02096Y018151D02*
D03*
X021099Y01829D02*
D03*
X021239Y018429D02*
D03*
X021378Y018568D02*
D03*
X021517Y018707D02*
D03*
X021656Y018847D02*
D03*
X021795Y018986D02*
D03*
X019436Y021345D02*
D03*
X019297Y021206D02*
D03*
X019157Y021067D02*
D03*
X019018Y020928D02*
D03*
X018879Y020789D02*
D03*
X01874Y020649D02*
D03*
X018601Y02051D02*
D03*
X018461Y020371D02*
D03*
X018322Y020232D02*
D03*
X018183Y020093D02*
D03*
X018044Y019953D02*
D03*
X017905Y019814D02*
D03*
D24*
X021795D02*
D03*
X021656Y019953D02*
D03*
X021517Y020093D02*
D03*
X021378Y020232D02*
D03*
X021239Y020371D02*
D03*
X021099Y02051D02*
D03*
X02096Y020649D02*
D03*
X020821Y020789D02*
D03*
X020682Y020928D02*
D03*
X020543Y021067D02*
D03*
X020403Y021206D02*
D03*
X020264Y021345D02*
D03*
X017905Y018986D02*
D03*
X018044Y018847D02*
D03*
X018183Y018707D02*
D03*
X018322Y018568D02*
D03*
X018461Y018429D02*
D03*
X018601Y01829D02*
D03*
X01874Y018151D02*
D03*
X018879Y018011D02*
D03*
X019018Y017872D02*
D03*
X019157Y017733D02*
D03*
X019297Y017594D02*
D03*
X019436Y017455D02*
D03*
D25*
X018377Y01535D02*
D03*
X021723D02*
D03*
D26*
X020542Y01395D02*
D03*
X019558D02*
D03*
D27*
X0248Y0109D02*
D03*
X027556D02*
D03*
D28*
X0163Y010802D02*
D03*
Y012298D02*
D03*
X01825Y01075D02*
D03*
Y012246D02*
D03*
D29*
X013694Y026176D02*
D03*
Y025428D02*
D03*
X024894Y026176D02*
D03*
Y025428D02*
D03*
X014994Y026176D02*
D03*
Y025428D02*
D03*
X013926Y028672D02*
D03*
Y027924D02*
D03*
X023544Y026176D02*
D03*
Y025428D02*
D03*
D30*
X026752Y0132D02*
D03*
X0275D02*
D03*
X027526Y012176D02*
D03*
X026778D02*
D03*
Y014226D02*
D03*
X027526D02*
D03*
X026752Y01515D02*
D03*
X0275D02*
D03*
D31*
X02403Y01425D02*
D03*
X02545D02*
D03*
X02398Y0152D02*
D03*
X0254D02*
D03*
X02413Y0122D02*
D03*
X02555D02*
D03*
X02545Y0132D02*
D03*
X02403D02*
D03*
D32*
X02725Y0294D02*
D03*
Y02798D02*
D03*
X0149Y02902D02*
D03*
Y0276D02*
D03*
M02*
