G04*
G04 #@! TF.GenerationSoftware,Altium Limited,Altium Designer,22.1.2 (22)*
G04*
G04 Layer_Color=128*
%FSTAX24Y24*%
%MOIN*%
G70*
G04*
G04 #@! TF.SameCoordinates,360A1761-899D-4A34-B866-C5D0D12458BF*
G04*
G04*
G04 #@! TF.FilePolarity,Positive*
G04*
G01*
G75*
%ADD29R,0.0551X0.0472*%
%ADD30R,0.0472X0.0551*%
%ADD65R,0.0866X0.0236*%
%ADD66R,0.0945X0.1299*%
%ADD67R,0.0945X0.0394*%
G04:AMPARAMS|DCode=68|XSize=43.3mil|YSize=55.1mil|CornerRadius=2.2mil|HoleSize=0mil|Usage=FLASHONLY|Rotation=90.000|XOffset=0mil|YOffset=0mil|HoleType=Round|Shape=RoundedRectangle|*
%AMROUNDEDRECTD68*
21,1,0.0433,0.0508,0,0,90.0*
21,1,0.0390,0.0551,0,0,90.0*
1,1,0.0043,0.0254,0.0195*
1,1,0.0043,0.0254,-0.0195*
1,1,0.0043,-0.0254,-0.0195*
1,1,0.0043,-0.0254,0.0195*
%
%ADD68ROUNDEDRECTD68*%
D29*
X012651Y028322D02*
D03*
Y027574D02*
D03*
X012676Y029028D02*
D03*
Y029776D02*
D03*
X027276Y027978D02*
D03*
Y028726D02*
D03*
D30*
X017724Y01455D02*
D03*
X018472D02*
D03*
X025924Y011299D02*
D03*
X026672D02*
D03*
X017874Y013649D02*
D03*
X018622D02*
D03*
X021447Y0145D02*
D03*
X022195D02*
D03*
X022176Y013751D02*
D03*
X021428D02*
D03*
X026698Y0105D02*
D03*
X02595D02*
D03*
X022026Y011201D02*
D03*
X021278D02*
D03*
X0233Y01255D02*
D03*
X024048D02*
D03*
X0233Y0117D02*
D03*
X024048D02*
D03*
X020372Y016076D02*
D03*
X019624D02*
D03*
D65*
X02735Y0262D02*
D03*
Y0257D02*
D03*
Y0252D02*
D03*
Y0247D02*
D03*
Y0242D02*
D03*
Y0237D02*
D03*
Y0232D02*
D03*
Y0227D02*
D03*
X02365Y0262D02*
D03*
Y0257D02*
D03*
Y0252D02*
D03*
Y0247D02*
D03*
Y0242D02*
D03*
Y0237D02*
D03*
Y0232D02*
D03*
Y0227D02*
D03*
D66*
X011858Y0153D02*
D03*
D67*
X014142Y014394D02*
D03*
Y0153D02*
D03*
Y016206D02*
D03*
D68*
X0262Y027161D02*
D03*
Y02785D02*
D03*
M02*
