G04*
G04 #@! TF.GenerationSoftware,Altium Limited,Altium Designer,22.1.2 (22)*
G04*
G04 Layer_Physical_Order=1*
G04 Layer_Color=255*
%FSTAX24Y24*%
%MOIN*%
G70*
G04*
G04 #@! TF.SameCoordinates,360A1761-899D-4A34-B866-C5D0D12458BF*
G04*
G04*
G04 #@! TF.FilePolarity,Positive*
G04*
G01*
G75*
%ADD14C,0.0100*%
%ADD19R,0.0787X0.0354*%
%ADD20R,0.0354X0.0787*%
%ADD21R,0.0524X0.0524*%
%ADD22R,0.0315X0.0472*%
G04:AMPARAMS|DCode=23|XSize=66.9mil|YSize=11.8mil|CornerRadius=0mil|HoleSize=0mil|Usage=FLASHONLY|Rotation=135.000|XOffset=0mil|YOffset=0mil|HoleType=Round|Shape=Rectangle|*
%AMROTATEDRECTD23*
4,1,4,0.0278,-0.0195,0.0195,-0.0278,-0.0278,0.0195,-0.0195,0.0278,0.0278,-0.0195,0.0*
%
%ADD23ROTATEDRECTD23*%

G04:AMPARAMS|DCode=24|XSize=66.9mil|YSize=11.8mil|CornerRadius=0mil|HoleSize=0mil|Usage=FLASHONLY|Rotation=225.000|XOffset=0mil|YOffset=0mil|HoleType=Round|Shape=Rectangle|*
%AMROTATEDRECTD24*
4,1,4,0.0195,0.0278,0.0278,0.0195,-0.0195,-0.0278,-0.0278,-0.0195,0.0195,0.0278,0.0*
%
%ADD24ROTATEDRECTD24*%

G04:AMPARAMS|DCode=25|XSize=216.5mil|YSize=59.1mil|CornerRadius=7.4mil|HoleSize=0mil|Usage=FLASHONLY|Rotation=180.000|XOffset=0mil|YOffset=0mil|HoleType=Round|Shape=RoundedRectangle|*
%AMROUNDEDRECTD25*
21,1,0.2165,0.0443,0,0,180.0*
21,1,0.2018,0.0591,0,0,180.0*
1,1,0.0148,-0.1009,0.0221*
1,1,0.0148,0.1009,0.0221*
1,1,0.0148,0.1009,-0.0221*
1,1,0.0148,-0.1009,-0.0221*
%
%ADD25ROUNDEDRECTD25*%
%ADD26R,0.0433X0.0748*%
%ADD27R,0.0472X0.0315*%
G04:AMPARAMS|DCode=28|XSize=110.2mil|YSize=65mil|CornerRadius=6.5mil|HoleSize=0mil|Usage=FLASHONLY|Rotation=270.000|XOffset=0mil|YOffset=0mil|HoleType=Round|Shape=RoundedRectangle|*
%AMROUNDEDRECTD28*
21,1,0.1102,0.0520,0,0,270.0*
21,1,0.0972,0.0650,0,0,270.0*
1,1,0.0130,-0.0260,-0.0486*
1,1,0.0130,-0.0260,0.0486*
1,1,0.0130,0.0260,0.0486*
1,1,0.0130,0.0260,-0.0486*
%
%ADD28ROUNDEDRECTD28*%
%ADD29R,0.0551X0.0472*%
%ADD30R,0.0472X0.0551*%
%ADD31R,0.0600X0.0650*%
%ADD32R,0.0650X0.0600*%
%ADD54C,0.0080*%
%ADD55C,0.0080*%
%ADD56C,0.0200*%
%ADD57C,0.0300*%
%ADD58R,0.0630X0.0630*%
%ADD59C,0.0630*%
%ADD60R,0.1000X0.1600*%
%ADD61R,0.1600X0.1000*%
%ADD62R,0.0630X0.0630*%
%ADD63C,0.0200*%
%ADD64C,0.0260*%
G36*
X024047Y02961D02*
X023875Y029585D01*
X023864Y029785D01*
X023881Y029785D01*
X023932Y029788D01*
X023941Y02979D01*
X023948Y029791D01*
X023953Y029793D01*
X023956Y029796D01*
X023958Y029798D01*
X024047Y02961D01*
D02*
G37*
G36*
X013504Y029641D02*
X013503Y029638D01*
X013502Y029632D01*
X013501Y029617D01*
X0135Y029565D01*
X0135Y029548D01*
X0133D01*
X013295Y029643D01*
X013505D01*
X013504Y029641D01*
D02*
G37*
G36*
X02305Y029789D02*
X023056Y029776D01*
X023066Y029765D01*
X02308Y029755D01*
X023098Y029746D01*
X02312Y02974D01*
X023146Y029734D01*
X023176Y02973D01*
X02321Y029728D01*
X023248Y029727D01*
Y029527D01*
X02321Y029527D01*
X023146Y029521D01*
X02312Y029515D01*
X023098Y029508D01*
X02308Y0295D01*
X023066Y02949D01*
X023056Y029479D01*
X02305Y029466D01*
X023048Y029451D01*
Y029803D01*
X02305Y029789D01*
D02*
G37*
G36*
X010915Y029548D02*
X010925Y029424D01*
X010931Y02939D01*
X010938Y029359D01*
X010947Y029332D01*
X010958Y029309D01*
X010969Y02929D01*
X010983Y029274D01*
X010926Y029217D01*
X01091Y029231D01*
X010891Y029242D01*
X010868Y029253D01*
X010841Y029262D01*
X01081Y029269D01*
X010776Y029275D01*
X010738Y02928D01*
X010652Y029285D01*
X010603Y029285D01*
X010915Y029597D01*
X010915Y029548D01*
D02*
G37*
G36*
X012726Y029164D02*
X012728Y029144D01*
X012729Y029136D01*
X012731Y029128D01*
X012733Y029121D01*
X012736Y029114D01*
X012739Y029108D01*
X012742Y029103D01*
X012746Y029099D01*
X012606D01*
X01261Y029103D01*
X012613Y029108D01*
X012616Y029114D01*
X012619Y029121D01*
X012621Y029128D01*
X012623Y029136D01*
X012624Y029144D01*
X012625Y029154D01*
X012626Y029174D01*
X012726D01*
X012726Y029164D01*
D02*
G37*
G36*
X012738Y029093D02*
X012736Y029091D01*
X012734Y029088D01*
X012732Y029084D01*
X01273Y029078D01*
X012728Y02907D01*
X012727Y029062D01*
X012726Y02904D01*
X012726Y029028D01*
X012626D01*
X012626Y02904D01*
X012624Y02907D01*
X012622Y029078D01*
X012621Y029084D01*
X012619Y029088D01*
X012617Y029091D01*
X012616Y029091D01*
X01261Y029087D01*
X012604Y029081D01*
X0126Y029074D01*
X012596Y029065D01*
X012594Y029054D01*
X012592Y029042D01*
X01259Y029028D01*
X01259Y029013D01*
X01251D01*
X01251Y029028D01*
X012509Y029042D01*
X012507Y029054D01*
X012504Y029064D01*
X012501Y029073D01*
X012497Y02908D01*
X012492Y029086D01*
X012487Y02909D01*
X012481Y029092D01*
X012474Y029093D01*
X012611Y029094D01*
X012611Y029094D01*
X012741D01*
X012738Y029093D01*
D02*
G37*
G36*
X027561Y029369D02*
X027556Y02935D01*
X027556Y029329D01*
X027562Y029305D01*
X027573Y029278D01*
X02759Y029249D01*
X027613Y029216D01*
X027641Y029181D01*
X027715Y029101D01*
X027574Y02896D01*
X027533Y029D01*
X027459Y029062D01*
X027426Y029085D01*
X027397Y029102D01*
X02737Y029113D01*
X027346Y029119D01*
X027325Y029119D01*
X027306Y029114D01*
X027291Y029102D01*
X027573Y029384D01*
X027561Y029369D01*
D02*
G37*
G36*
X023669Y028886D02*
X023663Y028891D01*
X023656Y028893D01*
X023647D01*
X023638Y028891D01*
X023627Y028886D01*
X023615Y028879D01*
X023602Y02887D01*
X023588Y028859D01*
X023556Y02883D01*
X0235Y028886D01*
X023516Y028903D01*
X02354Y028932D01*
X023549Y028945D01*
X023556Y028957D01*
X023561Y028968D01*
X023563Y028977D01*
Y028986D01*
X023561Y028993D01*
X023556Y028999D01*
X023669Y028886D01*
D02*
G37*
G36*
X014687Y028722D02*
X014681Y028719D01*
X014675Y028715D01*
X014669Y028709D01*
X014665Y028702D01*
X014661Y028693D01*
X014659Y028682D01*
X014657Y02867D01*
X014655Y028657D01*
X014655Y028641D01*
X014575D01*
X014576Y028721D01*
X014695Y028722D01*
X014687Y028722D01*
D02*
G37*
G36*
X015688Y028453D02*
X015681Y028459D01*
X015673Y028463D01*
X015663Y028463D01*
X015651Y028461D01*
X015638Y028455D01*
X015623Y028446D01*
X015606Y028435D01*
X015588Y02842D01*
X015546Y028381D01*
X015464Y02844D01*
X01549Y028466D01*
X015547Y028534D01*
X015559Y028552D01*
X015568Y028569D01*
X015574Y028584D01*
X015577Y028597D01*
X015576Y028608D01*
X015572Y028617D01*
X015688Y028453D01*
D02*
G37*
G36*
X023105Y028303D02*
X023093Y028291D01*
X023053Y028245D01*
X023049Y02824D01*
X023047Y028235D01*
X023046Y028232D01*
X023047Y02823D01*
X022975Y028302D01*
X022977Y028301D01*
X02298Y028302D01*
X022985Y028304D01*
X02299Y028308D01*
X022997Y028313D01*
X023014Y028327D01*
X023048Y02836D01*
X023105Y028303D01*
D02*
G37*
G36*
X010915Y028548D02*
X010925Y028424D01*
X010931Y02839D01*
X010938Y028359D01*
X010947Y028332D01*
X010958Y028309D01*
X010969Y02829D01*
X010983Y028274D01*
X010926Y028217D01*
X01091Y028231D01*
X010891Y028242D01*
X010868Y028253D01*
X010841Y028262D01*
X01081Y028269D01*
X010776Y028275D01*
X010738Y02828D01*
X010652Y028285D01*
X010603Y028285D01*
X010915Y028597D01*
X010915Y028548D01*
D02*
G37*
G36*
X025253Y028526D02*
X025239Y02851D01*
X025228Y028491D01*
X025217Y028468D01*
X025208Y028441D01*
X025201Y02841D01*
X025195Y028376D01*
X02519Y028338D01*
X025185Y028252D01*
X025185Y028203D01*
X024873Y028515D01*
X024922Y028515D01*
X025046Y028525D01*
X02508Y028531D01*
X025111Y028538D01*
X025138Y028547D01*
X025161Y028558D01*
X02518Y028569D01*
X025196Y028583D01*
X025253Y028526D01*
D02*
G37*
G36*
X014257Y028159D02*
X014241Y028143D01*
X014216Y028113D01*
X014207Y0281D01*
X0142Y028088D01*
X014195Y028078D01*
X014193Y028068D01*
X014193Y02806D01*
X014195Y028052D01*
X014199Y028046D01*
X014087Y028158D01*
X014093Y028154D01*
X014101Y028152D01*
X014109Y028152D01*
X014119Y028154D01*
X014129Y028159D01*
X014141Y028166D01*
X014154Y028175D01*
X014169Y028186D01*
X0142Y028216D01*
X014257Y028159D01*
D02*
G37*
G36*
X023867Y027885D02*
X023818Y027885D01*
X023694Y027875D01*
X02366Y027869D01*
X023629Y027862D01*
X023602Y027853D01*
X023579Y027842D01*
X02356Y027831D01*
X023544Y027817D01*
X023487Y027874D01*
X023501Y02789D01*
X023512Y027909D01*
X023523Y027932D01*
X023532Y027959D01*
X023539Y02799D01*
X023545Y028024D01*
X02355Y028062D01*
X023555Y028148D01*
X023555Y028197D01*
X023867Y027885D01*
D02*
G37*
G36*
X012943Y027815D02*
X012936Y027808D01*
X012925Y027795D01*
X01292Y027789D01*
X012917Y027783D01*
X012915Y027778D01*
X012913Y027773D01*
X012913Y027769D01*
X012913Y027765D01*
X012914Y027762D01*
X012802Y02783D01*
X012805Y02783D01*
X012809Y027832D01*
X012814Y027835D01*
X01282Y027839D01*
X012826Y027843D01*
X012841Y027856D01*
X01287Y027884D01*
X012943Y027815D01*
D02*
G37*
G36*
X023048Y0277D02*
X02305Y027693D01*
X023054Y027687D01*
X02306Y027682D01*
X023067Y027677D01*
X023076Y027674D01*
X023087Y027671D01*
X023099Y027669D01*
X023113Y027668D01*
X023128Y027667D01*
Y027587D01*
X023113Y027587D01*
X023099Y027586D01*
X023087Y027584D01*
X023076Y027581D01*
X023067Y027577D01*
X02306Y027573D01*
X023054Y027568D01*
X02305Y027562D01*
X023048Y027555D01*
X023047Y027547D01*
Y027707D01*
X023048Y0277D01*
D02*
G37*
G36*
X010862Y027782D02*
X010923Y027726D01*
X010952Y027703D01*
X01098Y027684D01*
X011006Y027668D01*
X011032Y027656D01*
X011056Y027647D01*
X011078Y027642D01*
X0111Y02764D01*
Y02756D01*
X011078Y027558D01*
X011056Y027553D01*
X011032Y027544D01*
X011006Y027532D01*
X01098Y027516D01*
X010952Y027497D01*
X010923Y027474D01*
X010862Y027418D01*
X010829Y027384D01*
Y027816D01*
X010862Y027782D01*
D02*
G37*
G36*
X028831Y027987D02*
X028854Y02797D01*
X028877Y027955D01*
X028902Y027942D01*
X028929Y027932D01*
X028956Y027924D01*
X028985Y027918D01*
X029015Y027914D01*
X029047Y027913D01*
X029079Y027914D01*
X028849Y027656D01*
X028947Y027324D01*
X028917Y027341D01*
X028857Y027368D01*
X028827Y027379D01*
X02877Y027396D01*
X028742Y027402D01*
X028714Y027407D01*
X028687Y027409D01*
X02866Y02741D01*
X028596Y02761D01*
X028626Y027611D01*
X028654Y027615D01*
X028681Y027622D01*
X028706Y027632D01*
X028729Y027644D01*
X028751Y027659D01*
X028771Y027677D01*
X028773Y027679D01*
X028772Y027682D01*
X028764Y027711D01*
X028754Y027739D01*
X028742Y027765D01*
X028729Y02779D01*
X028713Y027814D01*
X028696Y027836D01*
X028677Y027857D01*
X02881Y028007D01*
X028831Y027987D01*
D02*
G37*
G36*
X01268Y026888D02*
X012682Y026871D01*
X012685Y026855D01*
X012688Y026842D01*
X012693Y026831D01*
X012698Y026822D01*
X012704Y026815D01*
X012712Y02681D01*
X012721Y026807D01*
X01273Y026806D01*
X01253D01*
X012539Y026807D01*
X012548Y02681D01*
X012556Y026815D01*
X012562Y026822D01*
X012567Y026831D01*
X012572Y026842D01*
X012576Y026855D01*
X012578Y026871D01*
X012579Y026888D01*
X01258Y026907D01*
X01268D01*
X01268Y026888D01*
D02*
G37*
G36*
X023645Y026573D02*
X023648Y026538D01*
X023653Y026508D01*
X02366Y026482D01*
X023669Y02646D01*
X02368Y026442D01*
X023693Y026428D01*
X023708Y026418D01*
X023725Y026412D01*
X023744Y02641D01*
X023344D01*
X023363Y026412D01*
X02338Y026418D01*
X023395Y026428D01*
X023408Y026442D01*
X023419Y02646D01*
X023428Y026482D01*
X023435Y026508D01*
X02344Y026538D01*
X023443Y026573D01*
X023444Y026611D01*
X023644D01*
X023645Y026573D01*
D02*
G37*
G36*
X015339Y02645D02*
X015317Y026428D01*
X015284Y026389D01*
X015272Y026372D01*
X015263Y026357D01*
X015257Y026343D01*
X015255Y026332D01*
X015256Y026322D01*
X01526Y026315D01*
X015267Y026309D01*
X015088Y02641D01*
X015097Y026406D01*
X015109Y026406D01*
X015122Y026409D01*
X015137Y026415D01*
X015154Y026424D01*
X015173Y026436D01*
X015193Y026452D01*
X015239Y026492D01*
X015264Y026517D01*
X015339Y02645D01*
D02*
G37*
G36*
X013795Y026573D02*
X013798Y026538D01*
X013803Y026508D01*
X01381Y026482D01*
X013819Y02646D01*
X01383Y026442D01*
X013843Y026428D01*
X013858Y026418D01*
X013875Y026412D01*
X013894Y02641D01*
X013794D01*
X013797Y026365D01*
X013799Y026356D01*
X013801Y026349D01*
X013803Y026344D01*
X013805Y026341D01*
X013807Y026339D01*
X013613Y02626D01*
X013596Y02641D01*
X013494D01*
X013513Y026412D01*
X01353Y026418D01*
X013545Y026428D01*
X013558Y026442D01*
X013569Y02646D01*
X013578Y026482D01*
X013585Y026508D01*
X01359Y026538D01*
X013593Y026573D01*
X013594Y026611D01*
X013794D01*
X013795Y026573D01*
D02*
G37*
G36*
X029097Y026285D02*
X029048Y026285D01*
X028924Y026275D01*
X02889Y026269D01*
X028859Y026262D01*
X028832Y026253D01*
X028809Y026242D01*
X02879Y026231D01*
X028774Y026217D01*
X028717Y026274D01*
X028731Y02629D01*
X028742Y026309D01*
X028753Y026332D01*
X028762Y026359D01*
X028769Y02639D01*
X028775Y026424D01*
X02878Y026462D01*
X028785Y026548D01*
X028785Y026597D01*
X029097Y026285D01*
D02*
G37*
G36*
X010915Y026548D02*
X010925Y026424D01*
X010931Y02639D01*
X010938Y026359D01*
X010947Y026332D01*
X010958Y026309D01*
X010969Y02629D01*
X010983Y026274D01*
X010926Y026217D01*
X01091Y026231D01*
X010891Y026242D01*
X010868Y026253D01*
X010841Y026262D01*
X01081Y026269D01*
X010776Y026275D01*
X010738Y02628D01*
X010652Y026285D01*
X010603Y026285D01*
X010915Y026597D01*
X010915Y026548D01*
D02*
G37*
G36*
X010597Y026285D02*
X010548Y026285D01*
X010424Y026275D01*
X01039Y026269D01*
X010359Y026262D01*
X010332Y026253D01*
X010309Y026242D01*
X01029Y026231D01*
X010274Y026217D01*
X010217Y026274D01*
X010231Y02629D01*
X010242Y026309D01*
X010253Y026332D01*
X010262Y026359D01*
X010269Y02639D01*
X010275Y026424D01*
X01028Y026462D01*
X010285Y026548D01*
X010285Y026597D01*
X010597Y026285D01*
D02*
G37*
G36*
X024733Y025942D02*
X024727Y025946D01*
X024719Y025948D01*
X024711Y025948D01*
X024701Y025946D01*
X024691Y025941D01*
X024679Y025934D01*
X024666Y025925D01*
X024651Y025914D01*
X02462Y025884D01*
X024563Y025941D01*
X024579Y025957D01*
X024604Y025987D01*
X024613Y026D01*
X02462Y026012D01*
X024625Y026022D01*
X024627Y026032D01*
X024627Y02604D01*
X024625Y026048D01*
X024621Y026054D01*
X024733Y025942D01*
D02*
G37*
G36*
X014861D02*
X014853Y025947D01*
X014844Y02595D01*
X014834Y02595D01*
X014822Y025947D01*
X014808Y025941D01*
X014793Y025933D01*
X014777Y025921D01*
X014759Y025907D01*
X01472Y02587D01*
X014649Y025941D01*
X014669Y025961D01*
X0147Y025998D01*
X014712Y026015D01*
X01472Y026029D01*
X014726Y026043D01*
X014729Y026055D01*
X014729Y026065D01*
X014726Y026074D01*
X014721Y026082D01*
X014861Y025942D01*
D02*
G37*
G36*
X023819Y0255D02*
X023822Y025493D01*
X023826Y025487D01*
X023831Y025482D01*
X023838Y025478D01*
X023847Y025474D01*
X023858Y025471D01*
X02387Y025469D01*
X023883Y025468D01*
X023898Y025468D01*
Y025388D01*
X023883Y025387D01*
X02387Y025386D01*
X023858Y025384D01*
X023847Y025381D01*
X023838Y025378D01*
X023831Y025373D01*
X023826Y025368D01*
X023822Y025362D01*
X023819Y025355D01*
X023818Y025348D01*
Y025508D01*
X023819Y0255D01*
D02*
G37*
G36*
X013969Y025518D02*
X013972Y02551D01*
X013977Y025502D01*
X013984Y025496D01*
X013993Y02549D01*
X014004Y025486D01*
X014017Y025482D01*
X014032Y02548D01*
X014049Y025478D01*
X014068Y025478D01*
Y025378D01*
X014049Y025377D01*
X014032Y025376D01*
X014017Y025373D01*
X014004Y02537D01*
X013993Y025365D01*
X013984Y02536D01*
X013977Y025353D01*
X013972Y025346D01*
X013969Y025337D01*
X013968Y025328D01*
Y025528D01*
X013969Y025518D01*
D02*
G37*
G36*
X024702Y025194D02*
X0247Y025194D01*
X024697Y025193D01*
X024693Y02519D01*
X024686Y025185D01*
X02467Y025171D01*
X02462Y025122D01*
X024549Y025193D01*
X024563Y025207D01*
X02462Y02527D01*
X024621Y025274D01*
X024621Y025275D01*
X024702Y025194D01*
D02*
G37*
G36*
X01472Y025193D02*
X014719Y025192D01*
X014716Y025192D01*
X0147Y025192D01*
X01464Y025192D01*
Y025271D01*
X014655Y025272D01*
X014669Y025273D01*
X014681Y025275D01*
X014691Y025278D01*
X0147Y025282D01*
X014708Y025286D01*
X014713Y025291D01*
X014717Y025297D01*
X01472Y025304D01*
X014721Y025312D01*
X01472Y025193D01*
D02*
G37*
G36*
X010755Y025324D02*
X010738Y02531D01*
X010724Y025295D01*
X010711Y025279D01*
X0107Y025262D01*
X010692Y025244D01*
X010685Y025226D01*
X01068Y025206D01*
X010677Y025186D01*
X010676Y025165D01*
X010596D01*
X010595Y025185D01*
X010592Y025203D01*
X010586Y02522D01*
X010579Y025236D01*
X01057Y02525D01*
X010558Y025264D01*
X010544Y025276D01*
X010529Y025287D01*
X010511Y025296D01*
X010491Y025305D01*
X010774Y025337D01*
X010755Y025324D01*
D02*
G37*
G36*
X014586Y025192D02*
X014571Y025191D01*
X014557Y02519D01*
X014545Y025188D01*
X014535Y025185D01*
X014526Y025182D01*
X014518Y025177D01*
X014513Y025172D01*
X014508Y025166D01*
X014506Y025159D01*
X014505Y025152D01*
X014506Y025263D01*
X014507Y025265D01*
X014509Y025266D01*
X014513Y025267D01*
X014519Y025268D01*
X014526Y025269D01*
X014545Y025271D01*
X014586Y025271D01*
Y025192D01*
D02*
G37*
G36*
X023616Y025193D02*
X02361Y025191D01*
X023604Y025187D01*
X023598Y025181D01*
X023594Y025174D01*
X02359Y025165D01*
X023588Y025154D01*
X023586Y025142D01*
X023584Y025128D01*
X023584Y025113D01*
X023504D01*
X023504Y025128D01*
X023502Y025142D01*
X0235Y025154D01*
X023498Y025165D01*
X023494Y025174D01*
X02349Y025181D01*
X023484Y025187D01*
X023478Y025191D01*
X023472Y025193D01*
X023464Y025194D01*
X023624D01*
X023616Y025193D01*
D02*
G37*
G36*
X029286Y02534D02*
X029205Y025246D01*
X029185Y025218D01*
X029169Y025191D01*
X029156Y025165D01*
X029147Y025142D01*
X029142Y025119D01*
X02914Y025099D01*
X02906D01*
X029058Y025119D01*
X029053Y025142D01*
X029044Y025165D01*
X029031Y025191D01*
X029015Y025218D01*
X028995Y025246D01*
X028972Y025276D01*
X028914Y02534D01*
X02888Y025375D01*
X02932D01*
X029286Y02534D01*
D02*
G37*
G36*
X024356Y025141D02*
X024359Y025132D01*
X024364Y025124D01*
X024371Y025118D01*
X02438Y025113D01*
X024392Y025108D01*
X024405Y025104D01*
X02442Y025102D01*
X024437Y025101D01*
X024456Y0251D01*
Y025D01*
X024437Y024999D01*
X02442Y024998D01*
X024405Y024996D01*
X024392Y024992D01*
X02438Y024987D01*
X024371Y024982D01*
X024364Y024976D01*
X024359Y024968D01*
X024356Y024959D01*
X024355Y02495D01*
Y02515D01*
X024356Y025141D01*
D02*
G37*
G36*
X010915Y024548D02*
X010925Y024424D01*
X010931Y02439D01*
X010938Y024359D01*
X010947Y024332D01*
X010958Y024309D01*
X010969Y02429D01*
X010983Y024274D01*
X010926Y024217D01*
X01091Y024231D01*
X010891Y024242D01*
X010868Y024253D01*
X010841Y024262D01*
X01081Y024269D01*
X010776Y024275D01*
X010738Y02428D01*
X010652Y024285D01*
X010603Y024285D01*
X010915Y024597D01*
X010915Y024548D01*
D02*
G37*
G36*
X010912Y023556D02*
X010913Y023552D01*
X010915Y023548D01*
X010917Y023546D01*
X010921Y023543D01*
X010925Y023541D01*
X010931Y023539D01*
X010937Y023538D01*
X010944Y023538D01*
X010953Y023537D01*
Y023457D01*
X010939Y023457D01*
X010905Y023455D01*
X010897Y023453D01*
X010889Y023451D01*
X010883Y023448D01*
X010878Y023446D01*
X010874Y023443D01*
X010871Y023439D01*
X010912Y02356D01*
X010912Y023556D01*
D02*
G37*
G36*
X023105Y023293D02*
X023089Y023277D01*
X023065Y023248D01*
X023056Y023236D01*
X023049Y023224D01*
X023044Y023213D01*
X023042Y023203D01*
X023041Y023194D01*
X023043Y023187D01*
X023047Y02318D01*
X022945Y023302D01*
X022951Y023297D01*
X022958Y023295D01*
X022966Y023295D01*
X022975Y023297D01*
X022986Y023302D01*
X022998Y023308D01*
X023011Y023318D01*
X023026Y02333D01*
X023058Y02336D01*
X023105Y023293D01*
D02*
G37*
G36*
X029097Y023285D02*
X029048Y023285D01*
X028924Y023275D01*
X02889Y023269D01*
X028859Y023262D01*
X028832Y023253D01*
X028809Y023242D01*
X02879Y023231D01*
X028774Y023217D01*
X028717Y023274D01*
X028731Y02329D01*
X028742Y023309D01*
X028753Y023332D01*
X028762Y023359D01*
X028769Y02339D01*
X028775Y023424D01*
X02878Y023462D01*
X028785Y023548D01*
X028785Y023597D01*
X029097Y023285D01*
D02*
G37*
G36*
X01086Y022786D02*
X010954Y022705D01*
X010982Y022685D01*
X011009Y022669D01*
X011035Y022656D01*
X011058Y022647D01*
X011081Y022642D01*
X011101Y02264D01*
Y02256D01*
X011081Y022558D01*
X011058Y022553D01*
X011035Y022544D01*
X011009Y022531D01*
X010982Y022515D01*
X010954Y022495D01*
X010924Y022472D01*
X01086Y022414D01*
X010825Y02238D01*
Y02282D01*
X01086Y022786D01*
D02*
G37*
G36*
X02161Y022396D02*
X021611Y022376D01*
X021613Y022368D01*
X021614Y02236D01*
X021617Y022353D01*
X021619Y022346D01*
X021622Y022341D01*
X021641D01*
X021635Y02234D01*
X021629Y022338D01*
X021626Y022335D01*
X021629Y022331D01*
X021623D01*
X021621Y022328D01*
X021617Y022321D01*
X021614Y022312D01*
X021612Y022301D01*
X021611Y022289D01*
X02161Y022275D01*
X021609Y02226D01*
X021509D01*
X021509Y022275D01*
X021507Y022301D01*
X021504Y022312D01*
X021502Y022321D01*
X021498Y022328D01*
X021496Y022331D01*
X021489D01*
X021493Y022335D01*
X021489Y022338D01*
X021484Y02234D01*
X021478Y022341D01*
X021497D01*
X0215Y022346D01*
X021502Y022353D01*
X021504Y02236D01*
X021506Y022368D01*
X021508Y022376D01*
X021509Y022386D01*
X021509Y022407D01*
X021609D01*
X02161Y022396D01*
D02*
G37*
G36*
X029097Y022285D02*
X029048Y022285D01*
X028924Y022275D01*
X02889Y022269D01*
X028859Y022262D01*
X028832Y022253D01*
X028809Y022242D01*
X02879Y022231D01*
X028774Y022217D01*
X028717Y022274D01*
X028731Y02229D01*
X028742Y022309D01*
X028753Y022332D01*
X028762Y022359D01*
X028769Y02239D01*
X028775Y022424D01*
X02878Y022462D01*
X028785Y022548D01*
X028785Y022597D01*
X029097Y022285D01*
D02*
G37*
G36*
X014508Y022453D02*
X014514Y022436D01*
X014524Y022421D01*
X014538Y022408D01*
X014556Y022397D01*
X014578Y022388D01*
X014604Y022381D01*
X014634Y022376D01*
X014668Y022373D01*
X014706Y022372D01*
Y022172D01*
X014668Y022171D01*
X014634Y022168D01*
X014604Y022163D01*
X014578Y022156D01*
X014556Y022147D01*
X014538Y022136D01*
X014524Y022123D01*
X014514Y022108D01*
X014508Y022091D01*
X014506Y022072D01*
Y022472D01*
X014508Y022453D01*
D02*
G37*
G36*
X019183Y021655D02*
X01921Y021632D01*
X019217Y021627D01*
X019224Y021623D01*
X019229Y021621D01*
X019234Y02162D01*
X019238Y02162D01*
X019241Y021622D01*
X019159Y02154D01*
X019161Y021543D01*
X019161Y021547D01*
X01916Y021552D01*
X019158Y021557D01*
X019154Y021564D01*
X019149Y021571D01*
X019143Y021579D01*
X019126Y021599D01*
X019115Y021609D01*
X019172Y021666D01*
X019183Y021655D01*
D02*
G37*
G36*
X020745Y021477D02*
X020732Y021464D01*
X020681Y021406D01*
X02068Y021403D01*
X02068Y021401D01*
X020598Y021483D01*
X0206Y021483D01*
X020603Y021484D01*
X020608Y021486D01*
X020613Y021491D01*
X020628Y021504D01*
X020675Y021548D01*
X020745Y021477D01*
D02*
G37*
G36*
X010796Y021854D02*
X011041Y021746D01*
X011058Y021741D01*
X011071Y02174D01*
X011098Y02166D01*
X011075Y021658D01*
X011052Y021652D01*
X011029Y021642D01*
X011007Y021628D01*
X010985Y021611D01*
X010964Y021589D01*
X010943Y021563D01*
X010923Y021534D01*
X010903Y0215D01*
X010883Y021462D01*
X010743Y02188D01*
X010796Y021854D01*
D02*
G37*
G36*
X019043Y021516D02*
X019071Y021493D01*
X019078Y021488D01*
X019085Y021484D01*
X01909Y021482D01*
X019095Y021481D01*
X019099Y021481D01*
X019102Y021483D01*
X01902Y021401D01*
X019022Y021404D01*
X019022Y021408D01*
X019021Y021413D01*
X019019Y021418D01*
X019015Y021425D01*
X01901Y021432D01*
X019004Y02144D01*
X018987Y021459D01*
X018976Y02147D01*
X019032Y021527D01*
X019043Y021516D01*
D02*
G37*
G36*
X028875Y02138D02*
X02884Y021414D01*
X028746Y021495D01*
X028718Y021515D01*
X028691Y021531D01*
X028665Y021544D01*
X028642Y021553D01*
X028619Y021558D01*
X028599Y02156D01*
Y02164D01*
X028619Y021642D01*
X028642Y021647D01*
X028665Y021656D01*
X028691Y021669D01*
X028718Y021685D01*
X028746Y021705D01*
X028776Y021728D01*
X02884Y021786D01*
X028875Y02182D01*
Y02138D01*
D02*
G37*
G36*
X018904Y021377D02*
X018932Y021353D01*
X018939Y021348D01*
X018945Y021345D01*
X018951Y021342D01*
X018956Y021341D01*
X01896Y021342D01*
X018963Y021344D01*
X018881Y021262D01*
X018883Y021265D01*
X018883Y021269D01*
X018882Y021273D01*
X01888Y021279D01*
X018876Y021285D01*
X018871Y021293D01*
X018864Y021301D01*
X018847Y02132D01*
X018837Y021331D01*
X018893Y021388D01*
X018904Y021377D01*
D02*
G37*
G36*
X011795Y021282D02*
X011785Y021271D01*
X011777Y021259D01*
X01177Y021247D01*
X011764Y021235D01*
X011759Y021222D01*
X011755Y021209D01*
X011752Y021196D01*
X011751Y021182D01*
X01175Y021169D01*
X01165D01*
X011649Y021182D01*
X011648Y021196D01*
X011645Y021209D01*
X011641Y021222D01*
X011636Y021235D01*
X01163Y021247D01*
X011623Y021259D01*
X011615Y021271D01*
X011605Y021282D01*
X011595Y021293D01*
X011805D01*
X011795Y021282D01*
D02*
G37*
G36*
X018765Y021238D02*
X018792Y021214D01*
X0188Y021209D01*
X018806Y021205D01*
X018812Y021203D01*
X018816Y021202D01*
X01882Y021203D01*
X018823Y021204D01*
X018741Y021123D01*
X018743Y021126D01*
X018744Y021129D01*
X018743Y021134D01*
X018741Y02114D01*
X018737Y021146D01*
X018732Y021154D01*
X018725Y021162D01*
X018708Y021181D01*
X018698Y021192D01*
X018754Y021248D01*
X018765Y021238D01*
D02*
G37*
G36*
X020069Y021069D02*
X020069Y021068D01*
X020068Y021066D01*
X020062Y02106D01*
X02002Y021017D01*
X019949Y021088D01*
X019958Y021098D01*
X019979Y021122D01*
X019984Y021129D01*
X019987Y021135D01*
X019989Y02114D01*
X01999Y021144D01*
X019989Y021148D01*
X019988Y021151D01*
X020069Y021069D01*
D02*
G37*
G36*
X018626Y021099D02*
X018653Y021075D01*
X018661Y02107D01*
X018667Y021066D01*
X018673Y021064D01*
X018677Y021063D01*
X018681Y021063D01*
X018684Y021065D01*
X018602Y020983D01*
X018604Y020986D01*
X018605Y02099D01*
X018604Y020995D01*
X018601Y021001D01*
X018598Y021007D01*
X018593Y021014D01*
X018586Y021023D01*
X018569Y021042D01*
X018558Y021053D01*
X018615Y021109D01*
X018626Y021099D01*
D02*
G37*
G36*
X018487Y020959D02*
X018514Y020936D01*
X018521Y020931D01*
X018528Y020927D01*
X018533Y020925D01*
X018538Y020924D01*
X018542Y020924D01*
X018545Y020926D01*
X018463Y020844D01*
X018465Y020847D01*
X018465Y020851D01*
X018464Y020856D01*
X018462Y020861D01*
X018458Y020868D01*
X018453Y020875D01*
X018447Y020883D01*
X01843Y020903D01*
X018419Y020913D01*
X018476Y02097D01*
X018487Y020959D01*
D02*
G37*
G36*
X020122Y020796D02*
X020123Y020785D01*
X020125Y020757D01*
X020126Y020749D01*
X020129Y020735D01*
X020131Y020729D01*
X020133Y020724D01*
X020136Y02072D01*
X019998Y020747D01*
X020003Y020751D01*
X020007Y020755D01*
X020011Y02076D01*
X020014Y020766D01*
X020016Y020773D01*
X020019Y02078D01*
X02002Y020789D01*
X020022Y020798D01*
X020022Y020808D01*
X020022Y020819D01*
X020122Y020796D01*
D02*
G37*
G36*
X018347Y02082D02*
X018375Y020797D01*
X018382Y020792D01*
X018389Y020788D01*
X018394Y020786D01*
X018399Y020785D01*
X018403Y020785D01*
X018406Y020787D01*
X018324Y020705D01*
X018326Y020708D01*
X018326Y020712D01*
X018325Y020717D01*
X018323Y020722D01*
X018319Y020729D01*
X018314Y020736D01*
X018308Y020744D01*
X018291Y020763D01*
X01828Y020774D01*
X018337Y020831D01*
X018347Y02082D01*
D02*
G37*
G36*
X018208Y020681D02*
X018236Y020657D01*
X018243Y020652D01*
X018249Y020649D01*
X018255Y020646D01*
X01826Y020645D01*
X018264Y020646D01*
X018267Y020648D01*
X018185Y020566D01*
X018187Y020569D01*
X018187Y020573D01*
X018186Y020577D01*
X018184Y020583D01*
X01818Y020589D01*
X018175Y020597D01*
X018168Y020605D01*
X018151Y020624D01*
X018141Y020635D01*
X018197Y020692D01*
X018208Y020681D01*
D02*
G37*
G36*
X020123Y02059D02*
X020118Y020584D01*
X020114Y020576D01*
X02011Y020569D01*
X020107Y020561D01*
X020104Y020552D01*
X020103Y020544D01*
X020101Y020534D01*
X0201Y020525D01*
X0201Y020515D01*
X02002Y020509D01*
X02002Y020519D01*
X020019Y020529D01*
X020017Y020538D01*
X020015Y020546D01*
X020012Y020554D01*
X020009Y020562D01*
X020004Y020569D01*
X02Y020576D01*
X019994Y020582D01*
X019988Y020588D01*
X020128Y020597D01*
X020123Y02059D01*
D02*
G37*
G36*
X019884Y020594D02*
X019885Y020574D01*
X019887Y020566D01*
X019889Y020558D01*
X019892Y020552D01*
X019895Y020546D01*
X019899Y02054D01*
X019903Y020536D01*
X019907Y020532D01*
X019769Y020509D01*
X019772Y020513D01*
X019774Y020518D01*
X019776Y020524D01*
X019778Y02053D01*
X01978Y020538D01*
X019781Y020545D01*
X019783Y020564D01*
X019783Y020585D01*
X019883Y020604D01*
X019884Y020594D01*
D02*
G37*
G36*
X021698Y020496D02*
X021688Y020485D01*
X021664Y020458D01*
X021659Y02045D01*
X021655Y020444D01*
X021653Y020438D01*
X021652Y020434D01*
X021653Y02043D01*
X021654Y020427D01*
X021573Y020509D01*
X021576Y020507D01*
X021579Y020506D01*
X021584Y020507D01*
X02159Y020509D01*
X021596Y020513D01*
X021604Y020518D01*
X021612Y020525D01*
X021631Y020542D01*
X021642Y020552D01*
X021698Y020496D01*
D02*
G37*
G36*
X020586Y020529D02*
X020579Y020522D01*
X020573Y020514D01*
X020567Y020507D01*
X020563Y020499D01*
X020559Y020491D01*
X020555Y020484D01*
X020553Y020476D01*
X020551Y020468D01*
X02055Y020459D01*
X02055Y020451D01*
X020451Y02055D01*
X020459Y02055D01*
X020468Y020551D01*
X020476Y020553D01*
X020484Y020555D01*
X020491Y020559D01*
X020499Y020563D01*
X020507Y020567D01*
X020514Y020573D01*
X020522Y020579D01*
X020529Y020586D01*
X020586Y020529D01*
D02*
G37*
G36*
X018069Y020542D02*
X018096Y020518D01*
X018104Y020513D01*
X01811Y020509D01*
X018116Y020507D01*
X018121Y020506D01*
X018124Y020507D01*
X018127Y020509D01*
X018046Y020427D01*
X018047Y02043D01*
X018048Y020434D01*
X018047Y020438D01*
X018045Y020444D01*
X018041Y02045D01*
X018036Y020458D01*
X018029Y020466D01*
X018012Y020485D01*
X018002Y020496D01*
X018058Y020552D01*
X018069Y020542D01*
D02*
G37*
G36*
X028875Y02038D02*
X02884Y020414D01*
X028746Y020495D01*
X028718Y020515D01*
X028691Y020531D01*
X028665Y020544D01*
X028642Y020553D01*
X028619Y020558D01*
X028599Y02056D01*
Y02064D01*
X028619Y020642D01*
X028642Y020647D01*
X028665Y020656D01*
X028691Y020669D01*
X028718Y020685D01*
X028746Y020705D01*
X028776Y020728D01*
X02884Y020786D01*
X028875Y02082D01*
Y02038D01*
D02*
G37*
G36*
X021835Y020327D02*
X021794Y020287D01*
X021718Y020362D01*
X021719Y020361D01*
X021721Y020362D01*
X021724Y020363D01*
X021728Y020365D01*
X021732Y020368D01*
X021743Y020377D01*
X021757Y02039D01*
X021764Y020398D01*
X021835Y020327D01*
D02*
G37*
G36*
X016757Y020442D02*
X016762Y02044D01*
X016767Y020438D01*
X016774Y020437D01*
X016781Y020435D01*
X016797Y020434D01*
X016817Y020433D01*
X016828Y020433D01*
X016856Y020333D01*
X016846Y020332D01*
X016827Y02033D01*
X016818Y020329D01*
X016811Y020326D01*
X016804Y020324D01*
X016798Y02032D01*
X016793Y020317D01*
X016789Y020313D01*
X016786Y020308D01*
X016753Y020444D01*
X016757Y020442D01*
D02*
G37*
G36*
X019363Y020376D02*
X019467Y020386D01*
X019464Y020382D01*
X019461Y020376D01*
X019458Y020371D01*
X019456Y020364D01*
X019454Y020357D01*
X019453Y020349D01*
X019452Y02034D01*
X01945Y020321D01*
X01945Y02031D01*
X01935Y020298D01*
X01935Y020309D01*
X019348Y020328D01*
X019347Y020333D01*
X019344Y020331D01*
X019337Y020325D01*
X019322Y020311D01*
X019251Y020382D01*
X019258Y020389D01*
X019271Y020404D01*
X019276Y020411D01*
X01928Y020418D01*
X019284Y020425D01*
X019287Y020431D01*
X019289Y020437D01*
X01929Y020443D01*
X01929Y020449D01*
X019363Y020376D01*
D02*
G37*
G36*
X017927Y020407D02*
X017956Y020381D01*
X017964Y020375D01*
X017971Y020371D01*
X017977Y020369D01*
X017981Y020367D01*
X017985Y020368D01*
X017988Y020369D01*
X017906Y020287D01*
X017906Y020288D01*
X017904Y02029D01*
X017891Y020302D01*
X017845Y020347D01*
X017916Y020418D01*
X017927Y020407D01*
D02*
G37*
G36*
X011926Y020166D02*
X011931Y020163D01*
X011936Y02016D01*
X011943Y020157D01*
X01195Y020155D01*
X011958Y020153D01*
X011966Y020152D01*
X011976Y020151D01*
X011997Y02015D01*
Y02005D01*
X011986Y02005D01*
X011966Y020048D01*
X011958Y020047D01*
X01195Y020045D01*
X011943Y020043D01*
X011936Y02004D01*
X011931Y020037D01*
X011926Y020034D01*
X011921Y02003D01*
Y02017D01*
X011926Y020166D01*
D02*
G37*
G36*
X021992Y020081D02*
X021996Y020074D01*
X022002Y020068D01*
X022011Y020063D01*
X022021Y020059D01*
X022035Y020055D01*
X02205Y020053D01*
X022069Y020051D01*
X022112Y020049D01*
Y019969D01*
X022089Y019969D01*
X02205Y019966D01*
X022035Y019963D01*
X022021Y019959D01*
X022011Y019955D01*
X022002Y01995D01*
X021996Y019944D01*
X021992Y019937D01*
X021991Y01993D01*
Y020088D01*
X021992Y020081D01*
D02*
G37*
G36*
X028799Y019974D02*
X028819Y019961D01*
X028842Y01995D01*
X028869Y01994D01*
X028899Y019932D01*
X028932Y019926D01*
X028968Y019921D01*
X029051Y019915D01*
X029097Y019915D01*
X028785Y019603D01*
X028785Y019649D01*
X028779Y019732D01*
X028774Y019768D01*
X028768Y019801D01*
X02876Y019831D01*
X02875Y019858D01*
X028739Y019881D01*
X028726Y019901D01*
X028711Y019918D01*
X028782Y019989D01*
X028799Y019974D01*
D02*
G37*
G36*
X018181Y019618D02*
X018182Y019615D01*
X018185Y01961D01*
X018189Y019605D01*
X018202Y019589D01*
X018246Y019543D01*
X018176Y019472D01*
X018162Y019486D01*
X018104Y019537D01*
X018101Y019538D01*
X018099Y019538D01*
X018181Y019619D01*
X018181Y019618D01*
D02*
G37*
G36*
X01086Y019786D02*
X010954Y019705D01*
X010982Y019685D01*
X011009Y019669D01*
X011035Y019656D01*
X011058Y019647D01*
X011081Y019642D01*
X011101Y01964D01*
Y01956D01*
X011081Y019558D01*
X011058Y019553D01*
X011035Y019544D01*
X011009Y019531D01*
X010982Y019515D01*
X010954Y019495D01*
X010924Y019472D01*
X01086Y019414D01*
X010825Y01938D01*
Y01982D01*
X01086Y019786D01*
D02*
G37*
G36*
X018517Y019249D02*
X018513Y019253D01*
X018509Y019257D01*
X018503Y019261D01*
X018497Y019264D01*
X018491Y019267D01*
X018483Y019269D01*
X018475Y019271D01*
X018466Y019272D01*
X018456Y019273D01*
X018445Y019273D01*
X018468Y019373D01*
X018479Y019373D01*
X018507Y019375D01*
X018515Y019376D01*
X018528Y019379D01*
X018534Y019381D01*
X018539Y019384D01*
X018543Y019386D01*
X018517Y019249D01*
D02*
G37*
G36*
X019399Y0188D02*
X019391Y0188D01*
X019382Y018799D01*
X019374Y018797D01*
X019366Y018795D01*
X019359Y018791D01*
X019351Y018787D01*
X019343Y018783D01*
X019336Y018777D01*
X019328Y018771D01*
X019321Y018764D01*
X019264Y018821D01*
X019271Y018828D01*
X019277Y018836D01*
X019283Y018843D01*
X019287Y018851D01*
X019291Y018859D01*
X019295Y018866D01*
X019297Y018874D01*
X019299Y018882D01*
X0193Y018891D01*
X0193Y018899D01*
X019399Y0188D01*
D02*
G37*
G36*
X02112Y018897D02*
X021178Y018846D01*
X021181Y018845D01*
X021183Y018845D01*
X021101Y018763D01*
X021101Y018765D01*
X0211Y018768D01*
X021098Y018772D01*
X021093Y018778D01*
X02108Y018793D01*
X021036Y018839D01*
X021107Y01891D01*
X02112Y018897D01*
D02*
G37*
G36*
X01771Y018709D02*
X017703Y018715D01*
X017694Y018721D01*
X017685Y018725D01*
X017673Y018729D01*
X017661Y018733D01*
X017647Y018736D01*
X017632Y018738D01*
X017597Y018741D01*
X017578Y018741D01*
Y018841D01*
X017606Y018841D01*
X017652Y018845D01*
X017672Y018849D01*
X017688Y018853D01*
X017702Y018859D01*
X017712Y018865D01*
X01772Y018873D01*
X017726Y018881D01*
X017728Y018891D01*
X01771Y018709D01*
D02*
G37*
G36*
X020985Y018739D02*
X021013Y018715D01*
X02102Y01871D01*
X021027Y018707D01*
X021032Y018704D01*
X021037Y018703D01*
X021041Y018704D01*
X021044Y018706D01*
X020962Y018624D01*
X020964Y018627D01*
X020964Y018631D01*
X020963Y018635D01*
X020961Y018641D01*
X020957Y018647D01*
X020952Y018655D01*
X020946Y018663D01*
X020929Y018682D01*
X020918Y018693D01*
X020975Y01875D01*
X020985Y018739D01*
D02*
G37*
G36*
X02879Y018969D02*
X028809Y018958D01*
X028832Y018947D01*
X028859Y018938D01*
X02889Y018931D01*
X028924Y018925D01*
X028962Y01892D01*
X029048Y018915D01*
X029097Y018915D01*
X028785Y018603D01*
X028785Y018652D01*
X028775Y018776D01*
X028769Y01881D01*
X028762Y018841D01*
X028753Y018868D01*
X028742Y018891D01*
X028731Y01891D01*
X028717Y018926D01*
X028774Y018983D01*
X02879Y018969D01*
D02*
G37*
G36*
X020846Y0186D02*
X020874Y018576D01*
X020881Y018571D01*
X020887Y018567D01*
X020893Y018565D01*
X020898Y018564D01*
X020902Y018565D01*
X020905Y018566D01*
X020823Y018485D01*
X020825Y018488D01*
X020825Y018491D01*
X020824Y018496D01*
X020822Y018502D01*
X020818Y018508D01*
X020813Y018516D01*
X020806Y018524D01*
X020789Y018543D01*
X020779Y018554D01*
X020835Y01861D01*
X020846Y0186D01*
D02*
G37*
G36*
X017972Y018448D02*
X01797Y01845D01*
X017967Y01845D01*
X017964Y018449D01*
X01796Y018448D01*
X017956Y018446D01*
X01795Y018442D01*
X017945Y018438D01*
X017932Y018426D01*
X017924Y018419D01*
X017868Y018476D01*
X017906Y018513D01*
X017972Y018448D01*
D02*
G37*
G36*
X018122Y018298D02*
X018118Y018302D01*
X018113Y018303D01*
X018107Y018304D01*
X018101Y018303D01*
X018095Y018301D01*
X018087Y018297D01*
X01808Y018292D01*
X018071Y018286D01*
X018062Y018278D01*
X018053Y018269D01*
X017996Y018326D01*
X018046Y018373D01*
X018122Y018298D01*
D02*
G37*
G36*
X010895Y018485D02*
X010892Y018465D01*
X01089Y018445D01*
X010891Y018426D01*
X010894Y018408D01*
X010899Y01839D01*
X010906Y018373D01*
X010916Y018356D01*
X010927Y018341D01*
X010941Y018326D01*
X010884Y018269D01*
X010869Y018282D01*
X010854Y018294D01*
X010838Y018303D01*
X010821Y018309D01*
X010804Y018314D01*
X010786Y018316D01*
X010767Y018317D01*
X010748Y018314D01*
X010728Y01831D01*
X010707Y018304D01*
X010901Y018506D01*
X010895Y018485D01*
D02*
G37*
G36*
X021654Y018372D02*
X021655Y018368D01*
X021658Y018364D01*
X021662Y018358D01*
X021675Y018343D01*
X02172Y018297D01*
X021649Y018226D01*
X021635Y01824D01*
X021577Y018291D01*
X021574Y018292D01*
X021573Y018291D01*
X021654Y018373D01*
X021654Y018372D01*
D02*
G37*
G36*
X019441Y018289D02*
X019436Y018286D01*
X01943Y018282D01*
X019423Y018277D01*
X019407Y018265D01*
X019388Y018248D01*
X019353Y018215D01*
X01929Y018264D01*
X019297Y018272D01*
X019303Y018279D01*
X019307Y018286D01*
X019311Y018294D01*
X019314Y018301D01*
X019315Y018308D01*
X019316Y018315D01*
X019315Y018322D01*
X019313Y018328D01*
X019311Y018335D01*
X019441Y018289D01*
D02*
G37*
G36*
X019186Y018289D02*
X019176Y018278D01*
X019167Y018268D01*
X01916Y018258D01*
X019154Y018249D01*
X01915Y01824D01*
X019148Y018232D01*
X019147Y018225D01*
X019149Y018218D01*
X019151Y018212D01*
X019156Y018206D01*
X019074Y018288D01*
X01913Y018346D01*
X019186Y018289D01*
D02*
G37*
G36*
X020296Y018331D02*
X020299Y018324D01*
X020307Y018311D01*
X020312Y018304D01*
X020322Y01829D01*
X020335Y018276D01*
X020342Y018269D01*
X020312Y018186D01*
X020304Y018193D01*
X020297Y018198D01*
X02029Y018203D01*
X020282Y018207D01*
X020275Y01821D01*
X020268Y018212D01*
X020261Y018212D01*
X020253Y018212D01*
X020246Y01821D01*
X020239Y018208D01*
X020293Y018337D01*
X020296Y018331D01*
D02*
G37*
G36*
X018267Y018152D02*
X018264Y018154D01*
X01826Y018155D01*
X018255Y018154D01*
X018249Y018151D01*
X018243Y018148D01*
X018236Y018143D01*
X018227Y018136D01*
X018208Y018119D01*
X018197Y018108D01*
X018141Y018165D01*
X018151Y018176D01*
X018175Y018203D01*
X01818Y018211D01*
X018184Y018217D01*
X018186Y018223D01*
X018187Y018227D01*
X018187Y018231D01*
X018185Y018234D01*
X018267Y018152D01*
D02*
G37*
G36*
X020429Y018182D02*
X020456Y018159D01*
X020463Y018154D01*
X02047Y01815D01*
X020475Y018148D01*
X02048Y018147D01*
X020484Y018147D01*
X020487Y018149D01*
X020405Y018067D01*
X020407Y01807D01*
X020407Y018074D01*
X020406Y018079D01*
X020404Y018084D01*
X0204Y018091D01*
X020395Y018098D01*
X020389Y018106D01*
X020372Y018125D01*
X020361Y018136D01*
X020418Y018193D01*
X020429Y018182D01*
D02*
G37*
G36*
X018406Y018013D02*
X018403Y018015D01*
X018399Y018015D01*
X018394Y018014D01*
X018389Y018012D01*
X018382Y018008D01*
X018375Y018003D01*
X018367Y017997D01*
X018347Y01798D01*
X018337Y017969D01*
X01828Y018026D01*
X018291Y018037D01*
X018314Y018064D01*
X018319Y018071D01*
X018323Y018078D01*
X018325Y018083D01*
X018326Y018088D01*
X018326Y018092D01*
X018324Y018095D01*
X018406Y018013D01*
D02*
G37*
G36*
X019526Y018024D02*
X019518Y018023D01*
X019509Y018021D01*
X019501Y018019D01*
X019494Y018016D01*
X019486Y018012D01*
X019478Y018008D01*
X019471Y018003D01*
X019463Y017997D01*
X019458Y017993D01*
X019443Y017975D01*
X019437Y017966D01*
X019433Y017958D01*
X01943Y01795D01*
X019429Y017944D01*
X019429Y017938D01*
X019431Y017932D01*
X019434Y017928D01*
X019352Y01801D01*
X019354Y018009D01*
X019356Y01801D01*
X01936Y018013D01*
X019364Y018016D01*
X019376Y018026D01*
X019393Y018042D01*
X019398Y018048D01*
X019403Y018056D01*
X019407Y018063D01*
X019411Y018071D01*
X019414Y018079D01*
X019415Y018087D01*
X019416Y018095D01*
X019417Y018103D01*
X019416Y018111D01*
X019526Y018024D01*
D02*
G37*
G36*
X019638Y017865D02*
X019625Y017851D01*
X019574Y017794D01*
X019573Y01779D01*
X019573Y017789D01*
X019491Y017871D01*
X019493Y01787D01*
X019496Y017871D01*
X019501Y017874D01*
X019506Y017878D01*
X019522Y017891D01*
X019568Y017936D01*
X019638Y017865D01*
D02*
G37*
G36*
X019873Y017786D02*
X019868Y017788D01*
X019863Y017789D01*
X019858Y017789D01*
X019852Y017788D01*
X019846Y017786D01*
X01984Y017782D01*
X019833Y017778D01*
X019826Y017773D01*
X019819Y017766D01*
X019811Y017759D01*
X01975Y017839D01*
X019836Y017917D01*
X019873Y017786D01*
D02*
G37*
G36*
X021235Y017953D02*
X021235Y017949D01*
X021236Y017944D01*
X021238Y017939D01*
X021242Y017932D01*
X021247Y017925D01*
X021253Y017917D01*
X021269Y017899D01*
X021269Y017899D01*
X021276Y017893D01*
X021284Y017888D01*
X021291Y017884D01*
X021299Y01788D01*
X021307Y017878D01*
X021315Y017877D01*
X021322Y017876D01*
X02133Y017876D01*
X021338Y017877D01*
X02126Y017761D01*
X021259Y017769D01*
X021256Y017777D01*
X021253Y017785D01*
X02125Y017793D01*
X021246Y0178D01*
X021241Y017808D01*
X021236Y017815D01*
X02123Y017823D01*
X021219Y017835D01*
X021213Y017841D01*
X021186Y017864D01*
X021179Y017869D01*
X021172Y017873D01*
X021167Y017875D01*
X021162Y017876D01*
X021158Y017876D01*
X021155Y017874D01*
X021237Y017956D01*
X021235Y017953D01*
D02*
G37*
G36*
X019778Y017726D02*
X019764Y017712D01*
X019713Y017654D01*
X019712Y017651D01*
X019712Y017649D01*
X019631Y017731D01*
X019632Y017731D01*
X019635Y017732D01*
X01964Y017735D01*
X019646Y017739D01*
X019661Y017752D01*
X019707Y017796D01*
X019778Y017726D01*
D02*
G37*
G36*
X021097Y017814D02*
X021097Y017811D01*
X021099Y017807D01*
X021101Y017802D01*
X021106Y017796D01*
X021111Y017789D01*
X021126Y017772D01*
X021146Y017752D01*
X021089Y017695D01*
X021079Y017706D01*
X021059Y017722D01*
X021051Y017729D01*
X021043Y017733D01*
X021036Y017737D01*
X02103Y017738D01*
X021024Y017739D01*
X02102Y017737D01*
X021016Y017735D01*
X021098Y017817D01*
X021097Y017814D01*
D02*
G37*
G36*
X02879Y017969D02*
X028809Y017958D01*
X028832Y017947D01*
X028859Y017938D01*
X02889Y017931D01*
X028924Y017925D01*
X028962Y01792D01*
X029048Y017915D01*
X029097Y017915D01*
X028785Y017603D01*
X028785Y017652D01*
X028775Y017776D01*
X028769Y01781D01*
X028762Y017841D01*
X028753Y017868D01*
X028742Y017891D01*
X028731Y01791D01*
X028717Y017926D01*
X028774Y017983D01*
X02879Y017969D01*
D02*
G37*
G36*
X020957Y017674D02*
X020956Y017671D01*
X020957Y017666D01*
X020959Y01766D01*
X020963Y017654D01*
X020968Y017646D01*
X020975Y017638D01*
X020992Y017619D01*
X021002Y017608D01*
X020946Y017552D01*
X020935Y017562D01*
X020908Y017586D01*
X0209Y017591D01*
X020894Y017595D01*
X020888Y017597D01*
X020884Y017598D01*
X02088Y017597D01*
X020877Y017596D01*
X020959Y017677D01*
X020957Y017674D01*
D02*
G37*
G36*
X021262Y017636D02*
X02127Y01763D01*
X021277Y017625D01*
X021285Y01762D01*
X021293Y017616D01*
X0213Y017613D01*
X021308Y017611D01*
X021316Y01761D01*
X021325Y01761D01*
X021333Y01761D01*
X021241Y017504D01*
X02124Y017513D01*
X021239Y017521D01*
X021237Y017529D01*
X021234Y017537D01*
X02123Y017545D01*
X021226Y017552D01*
X021221Y01756D01*
X021216Y017567D01*
X02121Y017575D01*
X021203Y017582D01*
X021255Y017643D01*
X021262Y017636D01*
D02*
G37*
G36*
X020817Y017534D02*
X020815Y01753D01*
X020816Y017524D01*
X020817Y017518D01*
X020821Y017511D01*
X020825Y017503D01*
X020831Y017495D01*
X020839Y017485D01*
X020859Y017464D01*
X020802Y017408D01*
X020791Y017418D01*
X020758Y017448D01*
X020752Y017452D01*
X020747Y017455D01*
X020743Y017457D01*
X02074Y017457D01*
X020738Y017456D01*
X020819Y017538D01*
X020817Y017534D01*
D02*
G37*
G36*
X01086Y017786D02*
X010954Y017705D01*
X010982Y017685D01*
X011009Y017669D01*
X011035Y017656D01*
X011058Y017647D01*
X011081Y017642D01*
X011101Y01764D01*
Y01756D01*
X011081Y017558D01*
X011058Y017553D01*
X011035Y017544D01*
X011009Y017531D01*
X010982Y017515D01*
X010954Y017495D01*
X010924Y017472D01*
X01086Y017414D01*
X010825Y01738D01*
Y01782D01*
X01086Y017786D01*
D02*
G37*
G36*
X019102Y017317D02*
X0191Y017318D01*
X019097Y017317D01*
X019094Y017315D01*
X019089Y017311D01*
X019083Y017307D01*
X019068Y017294D01*
X019038Y017265D01*
X018967Y017335D01*
X018978Y017346D01*
X019017Y017391D01*
X01902Y017395D01*
X01902Y017397D01*
X01902Y017399D01*
X019102Y017317D01*
D02*
G37*
G36*
X020345Y017294D02*
X020337Y017301D01*
X02033Y017305D01*
X020324Y017307D01*
X020319Y017307D01*
X020314Y017304D01*
X020311Y017299D01*
X020308Y017291D01*
X020306Y017281D01*
X020305Y017268D01*
X020304Y017253D01*
X020224Y017333D01*
X020224Y017349D01*
X020223Y017364D01*
X020221Y017378D01*
X020218Y017391D01*
X020214Y017404D01*
X02021Y017416D01*
X020205Y017426D01*
X020199Y017436D01*
X020193Y017445D01*
X020185Y017454D01*
X020345Y017294D01*
D02*
G37*
G36*
X021039Y017285D02*
X021046Y017278D01*
X021053Y017273D01*
X021061Y017268D01*
X021069Y017264D01*
X021077Y017261D01*
X021085Y017258D01*
X021093Y017256D01*
X021101Y017254D01*
X021109Y017253D01*
X021004Y017161D01*
X021004Y017169D01*
X021004Y017178D01*
X021002Y017186D01*
X021Y017194D01*
X020997Y017201D01*
X020993Y017209D01*
X020989Y017217D01*
X020984Y017224D01*
X020978Y017232D01*
X020971Y017239D01*
X021031Y017291D01*
X021039Y017285D01*
D02*
G37*
G36*
X029483Y016926D02*
X029469Y01691D01*
X029458Y016891D01*
X029447Y016868D01*
X029438Y016841D01*
X029431Y01681D01*
X029425Y016776D01*
X02942Y016738D01*
X029415Y016652D01*
X029415Y016603D01*
X029103Y016915D01*
X029152Y016915D01*
X029276Y016925D01*
X02931Y016931D01*
X029341Y016938D01*
X029368Y016947D01*
X029391Y016958D01*
X02941Y016969D01*
X029426Y016983D01*
X029483Y016926D01*
D02*
G37*
G36*
X028875Y01638D02*
X02884Y016414D01*
X028746Y016495D01*
X028718Y016515D01*
X028691Y016531D01*
X028665Y016544D01*
X028642Y016553D01*
X028619Y016558D01*
X028599Y01656D01*
Y01664D01*
X028619Y016642D01*
X028642Y016647D01*
X028665Y016656D01*
X028691Y016669D01*
X028718Y016685D01*
X028746Y016705D01*
X028776Y016728D01*
X02884Y016786D01*
X028875Y01682D01*
Y01638D01*
D02*
G37*
G36*
X01086Y016786D02*
X010954Y016705D01*
X010982Y016685D01*
X011009Y016669D01*
X011035Y016656D01*
X011058Y016647D01*
X011081Y016642D01*
X011101Y01664D01*
Y01656D01*
X011081Y016558D01*
X011058Y016553D01*
X011035Y016544D01*
X011009Y016531D01*
X010982Y016515D01*
X010954Y016495D01*
X010924Y016472D01*
X01086Y016414D01*
X010825Y01638D01*
Y01682D01*
X01086Y016786D01*
D02*
G37*
G36*
X024789Y016182D02*
X024804Y016169D01*
X024811Y016164D01*
X024818Y01616D01*
X024825Y016156D01*
X024831Y016153D01*
X024837Y016151D01*
X024843Y01615D01*
X024849Y01615D01*
X02475Y016051D01*
X02475Y016057D01*
X024749Y016063D01*
X024747Y016069D01*
X024744Y016075D01*
X02474Y016082D01*
X024736Y016089D01*
X024731Y016096D01*
X024725Y016103D01*
X024711Y016118D01*
X024782Y016189D01*
X024789Y016182D01*
D02*
G37*
G36*
X019547Y015965D02*
X01954Y01597D01*
X019532Y015973D01*
X019525Y015976D01*
X019517Y015979D01*
X019508Y015982D01*
X0195Y015984D01*
X019491Y015985D01*
X019472Y015987D01*
X019462Y015987D01*
X019441Y016067D01*
X019452Y016067D01*
X019461Y016068D01*
X01947Y01607D01*
X019478Y016073D01*
X019486Y016076D01*
X019493Y01608D01*
X019499Y016084D01*
X019505Y016089D01*
X01951Y016095D01*
X019514Y016102D01*
X019547Y015965D01*
D02*
G37*
G36*
X0205Y016064D02*
X020502Y016056D01*
X020505Y016049D01*
X020509Y016041D01*
X020513Y016034D01*
X020518Y016026D01*
X020523Y016019D01*
X020535Y016004D01*
X020542Y015997D01*
X0205Y015926D01*
X020493Y015933D01*
X020485Y015939D01*
X020478Y015944D01*
X02047Y015948D01*
X020463Y015951D01*
X020455Y015953D01*
X020447Y015955D01*
X02044Y015955D01*
X020432Y015954D01*
X020424Y015953D01*
X020498Y016072D01*
X0205Y016064D01*
D02*
G37*
G36*
X028849Y01601D02*
X028866Y016D01*
X028887Y015989D01*
X028914Y015978D01*
X02898Y015955D01*
X029065Y015932D01*
X029168Y015908D01*
X028794Y015674D01*
X028803Y015717D01*
X028814Y015794D01*
X028815Y015829D01*
X028814Y015861D01*
X02881Y01589D01*
X028803Y015916D01*
X028793Y015939D01*
X028781Y015959D01*
X028766Y015977D01*
X028836Y01602D01*
X028849Y01601D01*
D02*
G37*
G36*
X020795Y015709D02*
X020796Y015695D01*
X020798Y015683D01*
X020801Y015672D01*
X020804Y015663D01*
X020809Y015656D01*
X020814Y01565D01*
X02082Y015646D01*
X020827Y015645D01*
X020834Y015644D01*
X020675Y015631D01*
X020682Y015633D01*
X020689Y015636D01*
X020695Y015641D01*
X0207Y015648D01*
X020705Y015656D01*
X020708Y015667D01*
X020711Y015679D01*
X020713Y015693D01*
X020714Y015708D01*
X020714Y015726D01*
X020794D01*
X020795Y015709D01*
D02*
G37*
G36*
X019386Y015708D02*
X019387Y015693D01*
X019389Y015679D01*
X019392Y015667D01*
X019395Y015656D01*
X0194Y015648D01*
X019405Y015641D01*
X019411Y015636D01*
X019418Y015633D01*
X019425Y015631D01*
X019266Y015644D01*
X019273Y015645D01*
X01928Y015646D01*
X019286Y01565D01*
X019291Y015656D01*
X019296Y015663D01*
X019299Y015672D01*
X019302Y015683D01*
X019304Y015695D01*
X019305Y015709D01*
X019306Y015726D01*
X019386D01*
X019386Y015708D01*
D02*
G37*
G36*
X010983Y015926D02*
X010969Y01591D01*
X010958Y015891D01*
X010947Y015868D01*
X010938Y015841D01*
X010931Y01581D01*
X010925Y015776D01*
X01092Y015738D01*
X010915Y015652D01*
X010915Y015603D01*
X010603Y015915D01*
X010652Y015915D01*
X010776Y015925D01*
X01081Y015931D01*
X010841Y015938D01*
X010868Y015947D01*
X010891Y015958D01*
X01091Y015969D01*
X010926Y015983D01*
X010983Y015926D01*
D02*
G37*
G36*
X02754Y015489D02*
X027542Y015475D01*
X027544Y015463D01*
X027546Y015452D01*
X02755Y015443D01*
X027554Y015436D01*
X02756Y015431D01*
X027566Y015426D01*
X027572Y015424D01*
X02758Y015423D01*
X02742D01*
X027428Y015424D01*
X027434Y015426D01*
X02744Y015431D01*
X027446Y015436D01*
X02745Y015443D01*
X027454Y015452D01*
X027456Y015463D01*
X027458Y015475D01*
X02746Y015489D01*
X02746Y015504D01*
X02754D01*
X02754Y015489D01*
D02*
G37*
G36*
X027735Y015222D02*
X027737Y015216D01*
X027741Y01521D01*
X027747Y015204D01*
X027754Y0152D01*
X027763Y015196D01*
X027774Y015194D01*
X027786Y015192D01*
X0278Y01519D01*
X027815Y01519D01*
Y01511D01*
X0278Y01511D01*
X027786Y015108D01*
X027774Y015106D01*
X027763Y015104D01*
X027754Y0151D01*
X027747Y015096D01*
X027741Y01509D01*
X027737Y015084D01*
X027735Y015078D01*
X027734Y01507D01*
Y01523D01*
X027735Y015222D01*
D02*
G37*
G36*
X026518Y01505D02*
X026517Y015059D01*
X026514Y015068D01*
X026509Y015076D01*
X026502Y015082D01*
X026493Y015087D01*
X026482Y015092D01*
X026469Y015095D01*
X026453Y015098D01*
X026436Y0151D01*
X026417Y0151D01*
Y0152D01*
X026436Y015201D01*
X026453Y015202D01*
X026469Y015204D01*
X026482Y015208D01*
X026493Y015213D01*
X026502Y015218D01*
X026509Y015224D01*
X026514Y015232D01*
X026517Y01524D01*
X026518Y01525D01*
Y01505D01*
D02*
G37*
G36*
X025699Y01524D02*
X025702Y015232D01*
X025707Y015224D01*
X025714Y015218D01*
X025723Y015213D01*
X025734Y015208D01*
X025747Y015204D01*
X025762Y015202D01*
X02578Y015201D01*
X025799Y0152D01*
Y0151D01*
X02578Y0151D01*
X025762Y015098D01*
X025747Y015095D01*
X025734Y015092D01*
X025723Y015087D01*
X025714Y015082D01*
X025707Y015076D01*
X025702Y015068D01*
X025699Y015059D01*
X025698Y01505D01*
Y01525D01*
X025699Y01524D01*
D02*
G37*
G36*
X014254Y015141D02*
X014253Y015138D01*
X014252Y015132D01*
X014251Y015117D01*
X01425Y015065D01*
X01425Y015048D01*
X01405D01*
X014045Y015143D01*
X014255D01*
X014254Y015141D01*
D02*
G37*
G36*
X015059Y015204D02*
X015062Y015203D01*
X015068Y015202D01*
X015083Y015201D01*
X015135Y0152D01*
X015152Y0152D01*
Y015D01*
X015057Y014995D01*
Y015205D01*
X015059Y015204D01*
D02*
G37*
G36*
X02879Y014969D02*
X028809Y014958D01*
X028832Y014947D01*
X028859Y014938D01*
X02889Y014931D01*
X028924Y014925D01*
X028962Y01492D01*
X029048Y014915D01*
X029097Y014915D01*
X028785Y014603D01*
X028785Y014652D01*
X028775Y014776D01*
X028769Y01481D01*
X028762Y014841D01*
X028753Y014868D01*
X028742Y014891D01*
X028731Y01491D01*
X028717Y014926D01*
X028774Y014983D01*
X02879Y014969D01*
D02*
G37*
G36*
X027307Y014541D02*
X027337Y014516D01*
X02735Y014507D01*
X027362Y0145D01*
X027372Y014495D01*
X027382Y014493D01*
X02739Y014493D01*
X027398Y014495D01*
X027404Y014499D01*
X027292Y014387D01*
X027296Y014393D01*
X027298Y014401D01*
X027298Y014409D01*
X027296Y014419D01*
X027291Y014429D01*
X027284Y014441D01*
X027275Y014454D01*
X027264Y014469D01*
X027234Y0145D01*
X027291Y014557D01*
X027307Y014541D01*
D02*
G37*
G36*
X01086Y014786D02*
X010954Y014705D01*
X010982Y014685D01*
X011009Y014669D01*
X011035Y014656D01*
X011058Y014647D01*
X011081Y014642D01*
X011101Y01464D01*
Y01456D01*
X011081Y014558D01*
X011058Y014553D01*
X011035Y014544D01*
X011009Y014531D01*
X010982Y014515D01*
X010954Y014495D01*
X010924Y014472D01*
X01086Y014414D01*
X010825Y01438D01*
Y01482D01*
X01086Y014786D01*
D02*
G37*
G36*
X026544Y01415D02*
X026543Y014159D01*
X02654Y014168D01*
X026535Y014175D01*
X026528Y014182D01*
X026519Y014188D01*
X026507Y014192D01*
X026494Y014195D01*
X026479Y014198D01*
X026462Y0142D01*
X026443Y0142D01*
Y0143D01*
X026462Y014301D01*
X026479Y014302D01*
X026494Y014304D01*
X026507Y014308D01*
X026519Y014312D01*
X026528Y014318D01*
X026535Y014325D01*
X02654Y014332D01*
X026543Y01434D01*
X026544Y01435D01*
Y01415D01*
D02*
G37*
G36*
X025749Y01434D02*
X025752Y014332D01*
X025757Y014325D01*
X025764Y014318D01*
X025773Y014312D01*
X025784Y014308D01*
X025797Y014304D01*
X025812Y014302D01*
X02583Y014301D01*
X025849Y0143D01*
Y0142D01*
X02583Y0142D01*
X025812Y014198D01*
X025797Y014195D01*
X025784Y014192D01*
X025773Y014188D01*
X025764Y014182D01*
X025757Y014175D01*
X025752Y014168D01*
X025749Y014159D01*
X025748Y01415D01*
Y01435D01*
X025749Y01434D01*
D02*
G37*
G36*
X014268Y014208D02*
X014266Y014206D01*
X014265Y014202D01*
X014263Y014197D01*
X014262Y014189D01*
X014261Y014181D01*
X014259Y014158D01*
X014258Y014112D01*
X014058Y01415D01*
X01406Y014238D01*
X014268Y014208D01*
D02*
G37*
G36*
X027756Y014059D02*
X027754Y014051D01*
Y014043D01*
X027756Y014033D01*
X027761Y014022D01*
X027768Y01401D01*
X027777Y013997D01*
X027788Y013983D01*
X027817Y013952D01*
X027761Y013895D01*
X027744Y013911D01*
X027715Y013936D01*
X027702Y013945D01*
X02769Y013952D01*
X027679Y013956D01*
X02767Y013958D01*
X027661D01*
X027654Y013956D01*
X027648Y013952D01*
X027761Y014065D01*
X027756Y014059D01*
D02*
G37*
G36*
X010983Y013926D02*
X010969Y01391D01*
X010958Y013891D01*
X010947Y013868D01*
X010938Y013841D01*
X010931Y01381D01*
X010925Y013776D01*
X01092Y013738D01*
X010915Y013652D01*
X010915Y013603D01*
X010603Y013915D01*
X010652Y013915D01*
X010776Y013925D01*
X01081Y013931D01*
X010841Y013938D01*
X010868Y013947D01*
X010891Y013958D01*
X01091Y013969D01*
X010926Y013983D01*
X010983Y013926D01*
D02*
G37*
G36*
X013601Y013789D02*
X013607Y01378D01*
X013617Y013773D01*
X013631Y013766D01*
X013649Y01376D01*
X013671Y013756D01*
X013697Y013752D01*
X013761Y013748D01*
X013799Y013748D01*
Y013548D01*
X013761Y013547D01*
X013726Y013544D01*
X013696Y013539D01*
X01367Y013532D01*
X013648Y013523D01*
X01363Y013512D01*
X013616Y013499D01*
X013606Y013484D01*
X0136Y013467D01*
X013598Y013448D01*
X013599Y013799D01*
X013601Y013789D01*
D02*
G37*
G36*
X028875Y01338D02*
X02884Y013414D01*
X028746Y013495D01*
X028718Y013515D01*
X028691Y013531D01*
X028665Y013544D01*
X028642Y013553D01*
X028619Y013558D01*
X028599Y01356D01*
Y01364D01*
X028619Y013642D01*
X028642Y013647D01*
X028665Y013656D01*
X028691Y013669D01*
X028718Y013685D01*
X028746Y013705D01*
X028776Y013728D01*
X02884Y013786D01*
X028875Y01382D01*
Y01338D01*
D02*
G37*
G36*
X027735Y013272D02*
X027737Y013266D01*
X027741Y01326D01*
X027747Y013254D01*
X027754Y01325D01*
X027763Y013246D01*
X027774Y013244D01*
X027786Y013242D01*
X0278Y01324D01*
X027815Y01324D01*
Y01316D01*
X0278Y01316D01*
X027786Y013158D01*
X027774Y013156D01*
X027763Y013154D01*
X027754Y01315D01*
X027747Y013146D01*
X027741Y01314D01*
X027737Y013134D01*
X027735Y013128D01*
X027734Y01312D01*
Y01328D01*
X027735Y013272D01*
D02*
G37*
G36*
X027266Y01312D02*
X027265Y013128D01*
X027263Y013134D01*
X027259Y01314D01*
X027253Y013146D01*
X027246Y01315D01*
X027237Y013154D01*
X027226Y013156D01*
X027214Y013158D01*
X0272Y01316D01*
X027185Y01316D01*
Y01324D01*
X0272Y01324D01*
X027214Y013242D01*
X027226Y013244D01*
X027237Y013246D01*
X027246Y01325D01*
X027253Y013254D01*
X027259Y01326D01*
X027263Y013266D01*
X027265Y013272D01*
X027266Y01328D01*
Y01312D01*
D02*
G37*
G36*
X026518Y0131D02*
X026517Y01311D01*
X026514Y013118D01*
X026509Y013125D01*
X026502Y013132D01*
X026493Y013138D01*
X026482Y013142D01*
X026469Y013146D01*
X026453Y013148D01*
X026436Y013149D01*
X026417Y01315D01*
Y01325D01*
X026436Y01325D01*
X026453Y013252D01*
X026469Y013254D01*
X026482Y013258D01*
X026493Y013262D01*
X026502Y013268D01*
X026509Y013275D01*
X026514Y013282D01*
X026517Y01329D01*
X026518Y0133D01*
Y0131D01*
D02*
G37*
G36*
X025749Y01329D02*
X025752Y013282D01*
X025757Y013275D01*
X025764Y013268D01*
X025773Y013262D01*
X025784Y013258D01*
X025797Y013254D01*
X025812Y013252D01*
X02583Y01325D01*
X025849Y01325D01*
Y01315D01*
X02583Y013149D01*
X025812Y013148D01*
X025797Y013146D01*
X025784Y013142D01*
X025773Y013138D01*
X025764Y013132D01*
X025757Y013125D01*
X025752Y013118D01*
X025749Y01311D01*
X025748Y0131D01*
Y0133D01*
X025749Y01329D01*
D02*
G37*
G36*
X021927Y013315D02*
X022001Y013253D01*
X022034Y01323D01*
X022063Y013213D01*
X02209Y013202D01*
X022114Y013196D01*
X022135Y013196D01*
X022154Y013201D01*
X022169Y013213D01*
X021887Y012931D01*
X021899Y012946D01*
X021904Y012965D01*
X021904Y012986D01*
X021898Y01301D01*
X021887Y013037D01*
X02187Y013066D01*
X021847Y013099D01*
X021819Y013134D01*
X021745Y013214D01*
X021886Y013355D01*
X021927Y013315D01*
D02*
G37*
G36*
X012406Y0128D02*
X012377Y012796D01*
X012349Y012788D01*
X012321Y012779D01*
X012293Y012766D01*
X012264Y01275D01*
X012236Y012732D01*
X012208Y012711D01*
X012179Y012687D01*
X012151Y01266D01*
X011868D01*
X012001Y012801D01*
X012434D01*
X012406Y0128D01*
D02*
G37*
G36*
X02879Y012969D02*
X028809Y012958D01*
X028832Y012947D01*
X028859Y012938D01*
X02889Y012931D01*
X028924Y012925D01*
X028962Y01292D01*
X029048Y012915D01*
X029097Y012915D01*
X028785Y012603D01*
X028785Y012652D01*
X028775Y012776D01*
X028769Y01281D01*
X028762Y012841D01*
X028753Y012868D01*
X028742Y012891D01*
X028731Y01291D01*
X028717Y012926D01*
X028774Y012983D01*
X02879Y012969D01*
D02*
G37*
G36*
X016016Y012951D02*
X01609Y012888D01*
X016123Y012866D01*
X016152Y012849D01*
X016179Y012837D01*
X016203Y012831D01*
X016224Y012831D01*
X016243Y012837D01*
X016258Y012848D01*
X015976Y012566D01*
X015988Y012582D01*
X015993Y0126D01*
X015993Y012621D01*
X015987Y012645D01*
X015976Y012672D01*
X015959Y012702D01*
X015936Y012734D01*
X015908Y01277D01*
X015834Y012849D01*
X015975Y012991D01*
X016016Y012951D01*
D02*
G37*
G36*
X021309Y012605D02*
X021289Y012596D01*
X021271Y012587D01*
X021256Y012576D01*
X021242Y012564D01*
X02123Y01255D01*
X021221Y012536D01*
X021214Y01252D01*
X021208Y012503D01*
X021205Y012485D01*
X021204Y012465D01*
X021124D01*
X021123Y012486D01*
X02112Y012506D01*
X021115Y012526D01*
X021108Y012544D01*
X0211Y012562D01*
X021089Y012579D01*
X021076Y012595D01*
X021062Y01261D01*
X021045Y012624D01*
X021026Y012637D01*
X021309Y012605D01*
D02*
G37*
G36*
X023588Y012287D02*
X023596Y01228D01*
X023603Y012275D01*
X023611Y01227D01*
X023619Y012267D01*
X023626Y012263D01*
X023634Y012261D01*
X023642Y012259D01*
X023651Y012258D01*
X023659Y012258D01*
X02356Y012159D01*
X02356Y012167D01*
X023559Y012175D01*
X023557Y012184D01*
X023555Y012192D01*
X023551Y012199D01*
X023547Y012207D01*
X023543Y012215D01*
X023537Y012222D01*
X023531Y01223D01*
X023524Y012237D01*
X023581Y012293D01*
X023588Y012287D01*
D02*
G37*
G36*
X027292Y012096D02*
X027291Y012104D01*
X027289Y01211D01*
X027285Y012116D01*
X027279Y012122D01*
X027272Y012126D01*
X027263Y01213D01*
X027252Y012132D01*
X02724Y012134D01*
X027226Y012136D01*
X027211Y012136D01*
Y012216D01*
X027226Y012216D01*
X02724Y012218D01*
X027252Y01222D01*
X027263Y012222D01*
X027272Y012226D01*
X027279Y01223D01*
X027285Y012236D01*
X027289Y012242D01*
X027291Y012248D01*
X027292Y012256D01*
Y012096D01*
D02*
G37*
G36*
X018576Y012427D02*
X018582Y01241D01*
X018592Y012395D01*
X018606Y012382D01*
X018624Y012371D01*
X018646Y012362D01*
X018672Y012355D01*
X018702Y01235D01*
X018737Y012347D01*
X018775Y012346D01*
Y012146D01*
X018737Y012145D01*
X018702Y012142D01*
X018672Y012137D01*
X018646Y01213D01*
X018624Y012121D01*
X018606Y01211D01*
X018592Y012097D01*
X018582Y012082D01*
X018576Y012065D01*
X018574Y012046D01*
Y012446D01*
X018576Y012427D01*
D02*
G37*
G36*
X026544Y01202D02*
X026543Y012028D01*
X026541Y012034D01*
X026537Y01204D01*
X026531Y012046D01*
X026524Y01205D01*
X026515Y012054D01*
X026504Y012056D01*
X026492Y012058D01*
X026478Y01206D01*
X026463Y01206D01*
Y01214D01*
X026478Y01214D01*
X026492Y012142D01*
X026504Y012144D01*
X026515Y012146D01*
X026524Y01215D01*
X026531Y012154D01*
X026537Y01216D01*
X026541Y012166D01*
X026543Y012172D01*
X026544Y01218D01*
Y01202D01*
D02*
G37*
G36*
X025848Y012172D02*
X025851Y012166D01*
X025855Y01216D01*
X025861Y012154D01*
X025868Y01215D01*
X025877Y012146D01*
X025887Y012144D01*
X0259Y012142D01*
X025913Y01214D01*
X025929Y01214D01*
Y01206D01*
X025913Y01206D01*
X0259Y012058D01*
X025887Y012056D01*
X025877Y012054D01*
X025868Y01205D01*
X025861Y012046D01*
X025855Y01204D01*
X025851Y012034D01*
X025848Y012028D01*
X025848Y01202D01*
Y01218D01*
X025848Y012172D01*
D02*
G37*
G36*
X021583Y012226D02*
X021569Y01221D01*
X021558Y012191D01*
X021547Y012168D01*
X021538Y012141D01*
X021531Y01211D01*
X021525Y012076D01*
X02152Y012038D01*
X021515Y011952D01*
X021515Y011903D01*
X021203Y012215D01*
X021252Y012215D01*
X021376Y012225D01*
X02141Y012231D01*
X021441Y012238D01*
X021468Y012247D01*
X021491Y012258D01*
X02151Y012269D01*
X021526Y012283D01*
X021583Y012226D01*
D02*
G37*
G36*
X027756Y012009D02*
X027754Y012001D01*
Y011993D01*
X027756Y011983D01*
X027761Y011972D01*
X027768Y011961D01*
X027777Y011947D01*
X027788Y011933D01*
X027817Y011902D01*
X027761Y011845D01*
X027744Y011861D01*
X027715Y011886D01*
X027702Y011895D01*
X02769Y011902D01*
X027679Y011906D01*
X02767Y011908D01*
X027661D01*
X027654Y011906D01*
X027648Y011902D01*
X027761Y012015D01*
X027756Y012009D01*
D02*
G37*
G36*
X023979Y01158D02*
X023972Y011586D01*
X023966Y011591D01*
X023959Y011595D01*
X023952Y011599D01*
X023944Y011602D01*
X023936Y011605D01*
X023927Y011607D01*
X023918Y011609D01*
X023908Y01161D01*
X023898Y01161D01*
Y01169D01*
X023908Y01169D01*
X023918Y011691D01*
X023927Y011693D01*
X023936Y011695D01*
X023944Y011697D01*
X023952Y011701D01*
X023959Y011705D01*
X023966Y011709D01*
X023972Y011714D01*
X023979Y01172D01*
Y01158D01*
D02*
G37*
G36*
X018562Y011962D02*
X018557Y011944D01*
X018557Y011923D01*
X018563Y011899D01*
X018574Y011872D01*
X018591Y011842D01*
X018614Y01181D01*
X018642Y011774D01*
X018716Y011695D01*
X018575Y011553D01*
X018534Y011593D01*
X01846Y011656D01*
X018427Y011678D01*
X018398Y011695D01*
X018371Y011707D01*
X018347Y011713D01*
X018326Y011713D01*
X018307Y011707D01*
X018292Y011696D01*
X018574Y011978D01*
X018562Y011962D01*
D02*
G37*
G36*
X010836Y01181D02*
X010847Y011804D01*
X010861Y011799D01*
X010877Y011795D01*
X010896Y011791D01*
X010918Y011788D01*
X010969Y011784D01*
X011032Y011782D01*
Y011582D01*
X011011Y011582D01*
X010991Y01158D01*
X010974Y011577D01*
X010958Y011574D01*
X010944Y011569D01*
X010933Y011563D01*
X010923Y011556D01*
X010916Y011548D01*
X01091Y011538D01*
X010907Y011528D01*
X010828Y011817D01*
X010836Y01181D01*
D02*
G37*
G36*
X014634Y011501D02*
X014616Y01151D01*
X014593Y011511D01*
X014567Y011507D01*
X014538Y011495D01*
X014504Y011477D01*
X014467Y011453D01*
X014426Y011422D01*
X014333Y01134D01*
X01428Y011289D01*
X01416Y011451D01*
X014202Y011494D01*
X014267Y011571D01*
X01429Y011604D01*
X014307Y011634D01*
X014319Y011661D01*
X014323Y011684D01*
X014322Y011704D01*
X014315Y011721D01*
X014301Y011734D01*
X014634Y011501D01*
D02*
G37*
G36*
X028875Y01138D02*
X02884Y011414D01*
X028746Y011495D01*
X028718Y011515D01*
X028691Y011531D01*
X028665Y011544D01*
X028642Y011553D01*
X028619Y011558D01*
X028599Y01156D01*
Y01164D01*
X028619Y011642D01*
X028642Y011647D01*
X028665Y011656D01*
X028691Y011669D01*
X028718Y011685D01*
X028746Y011705D01*
X028776Y011728D01*
X02884Y011786D01*
X028875Y01182D01*
Y01138D01*
D02*
G37*
G36*
X020493Y011245D02*
X020491Y011246D01*
X020488Y011247D01*
X020482Y011248D01*
X020467Y011249D01*
X020415Y01125D01*
X020398Y01125D01*
Y01145D01*
X020493Y011455D01*
Y011245D01*
D02*
G37*
G36*
X027321Y011056D02*
X027322Y010937D01*
X027321Y010945D01*
X027319Y010952D01*
X027315Y010958D01*
X027309Y010963D01*
X027302Y010967D01*
X027293Y010971D01*
X027282Y010974D01*
X02727Y010976D01*
X027256Y010977D01*
X027241Y010977D01*
Y011057D01*
X027321Y011056D01*
D02*
G37*
G36*
X020053Y010994D02*
X02006Y010989D01*
X020067Y010985D01*
X020074Y010981D01*
X020082Y010977D01*
X02009Y010975D01*
X020099Y010973D01*
X020108Y010971D01*
X020117Y01097D01*
X020127Y01097D01*
Y01089D01*
X020117Y01089D01*
X020108Y010889D01*
X020099Y010887D01*
X02009Y010885D01*
X020082Y010883D01*
X020074Y010879D01*
X020067Y010875D01*
X02006Y010871D01*
X020053Y010866D01*
X020047Y01086D01*
Y011D01*
X020053Y010994D01*
D02*
G37*
G36*
X018934Y010992D02*
X01895D01*
X018951Y010974D01*
X019063Y010862D01*
X019Y010791D01*
X018894Y010897D01*
X018745D01*
X018746Y010899D01*
X018747Y010902D01*
X018748Y010908D01*
X018749Y010923D01*
X01875Y010975D01*
X01875Y010992D01*
X01891D01*
X018922Y011003D01*
X018934Y010992D01*
D02*
G37*
G36*
X025037Y011046D02*
X025043Y011036D01*
X025053Y011028D01*
X025067Y01102D01*
X025085Y011014D01*
X025107Y011009D01*
X025133Y011005D01*
X025163Y011002D01*
X025235Y011D01*
Y0108D01*
X025197Y010799D01*
X025133Y010795D01*
X025107Y010791D01*
X025085Y010786D01*
X025067Y01078D01*
X025053Y010772D01*
X025043Y010764D01*
X025037Y010754D01*
X025035Y010744D01*
Y011056D01*
X025037Y011046D01*
D02*
G37*
G36*
X02189Y010869D02*
X021909Y010858D01*
X021932Y010847D01*
X021959Y010838D01*
X02199Y010831D01*
X022024Y010825D01*
X022062Y01082D01*
X022148Y010815D01*
X022197Y010815D01*
X021885Y010503D01*
X021885Y010552D01*
X021875Y010676D01*
X021869Y01071D01*
X021862Y010741D01*
X021853Y010768D01*
X021842Y010791D01*
X021831Y01081D01*
X021817Y010826D01*
X021874Y010883D01*
X02189Y010869D01*
D02*
G37*
G36*
X017926Y010502D02*
X017924Y010521D01*
X017918Y010538D01*
X017908Y010553D01*
X017894Y010566D01*
X017876Y010577D01*
X017854Y010586D01*
X017828Y010593D01*
X017798Y010598D01*
X017763Y010601D01*
X017725Y010602D01*
Y010802D01*
X017763Y010803D01*
X017798Y010806D01*
X017828Y010811D01*
X017854Y010818D01*
X017876Y010827D01*
X017894Y010838D01*
X017908Y010851D01*
X017918Y010866D01*
X017924Y010883D01*
X017926Y010902D01*
Y010502D01*
D02*
G37*
G36*
X016626Y010883D02*
X016632Y010866D01*
X016642Y010851D01*
X016656Y010838D01*
X016674Y010827D01*
X016696Y010818D01*
X016722Y010811D01*
X016752Y010806D01*
X016787Y010803D01*
X016825Y010802D01*
Y010602D01*
X016787Y010601D01*
X016752Y010598D01*
X016722Y010593D01*
X016696Y010586D01*
X016674Y010577D01*
X016656Y010566D01*
X016642Y010553D01*
X016632Y010538D01*
X016626Y010521D01*
X016624Y010502D01*
Y010902D01*
X016626Y010883D01*
D02*
G37*
G36*
X015976Y010502D02*
X015974Y010521D01*
X015968Y010538D01*
X015958Y010553D01*
X015944Y010566D01*
X015926Y010577D01*
X015904Y010586D01*
X015878Y010593D01*
X015848Y010598D01*
X015813Y010601D01*
X015775Y010602D01*
Y010802D01*
X015813Y010803D01*
X015848Y010806D01*
X015878Y010811D01*
X015904Y010818D01*
X015926Y010827D01*
X015944Y010838D01*
X015958Y010851D01*
X015968Y010866D01*
X015974Y010883D01*
X015976Y010902D01*
Y010502D01*
D02*
G37*
G36*
X010915Y010781D02*
X010921Y010764D01*
X010931Y010749D01*
X010945Y010736D01*
X010963Y010725D01*
X010985Y010716D01*
X011011Y010709D01*
X011041Y010704D01*
X011076Y010701D01*
X011114Y0107D01*
Y0105D01*
X011076Y010499D01*
X011041Y010496D01*
X011011Y010491D01*
X010985Y010484D01*
X010963Y010475D01*
X010945Y010464D01*
X010931Y010451D01*
X010921Y010436D01*
X010915Y010419D01*
X010913Y0104D01*
Y0108D01*
X010915Y010781D01*
D02*
G37*
G36*
X028875Y01038D02*
X02884Y010414D01*
X028746Y010495D01*
X028718Y010515D01*
X028691Y010531D01*
X028665Y010544D01*
X028642Y010553D01*
X028619Y010558D01*
X028599Y01056D01*
Y01064D01*
X028619Y010642D01*
X028642Y010647D01*
X028665Y010656D01*
X028691Y010669D01*
X028718Y010685D01*
X028746Y010705D01*
X028776Y010728D01*
X02884Y010786D01*
X028875Y01082D01*
Y01038D01*
D02*
G37*
G36*
X023515Y010681D02*
X023521Y010664D01*
X023531Y010649D01*
X023545Y010636D01*
X023563Y010625D01*
X023585Y010616D01*
X023611Y010609D01*
X023641Y010604D01*
X023676Y010601D01*
X023714Y0106D01*
Y0104D01*
X023676Y010399D01*
X023641Y010396D01*
X023611Y010391D01*
X023585Y010384D01*
X023563Y010375D01*
X023545Y010364D01*
X023531Y010351D01*
X023521Y010336D01*
X023515Y010319D01*
X023513Y0103D01*
Y0107D01*
X023515Y010681D01*
D02*
G37*
D14*
X028685Y0296D02*
X0291D01*
X028015Y029955D02*
X028265D01*
X0291Y028185D02*
Y0286D01*
X028685D02*
X0291D01*
X02487Y0272D02*
X025285D01*
X02487Y026785D02*
Y0272D01*
X024455D02*
X02487D01*
X0241Y02975D02*
Y03D01*
Y02975D02*
X02435D01*
X022656Y029627D02*
Y029905D01*
X02387Y026785D02*
Y0272D01*
X022162Y029627D02*
X022656D01*
X019638Y027397D02*
X02D01*
X019638D02*
Y027759D01*
X018916Y027397D02*
Y027759D01*
X02387Y0272D02*
X024285D01*
X019638Y026675D02*
X02D01*
X019638Y025952D02*
X02D01*
X019638Y02559D02*
Y025952D01*
X018916Y02559D02*
Y025952D01*
X0242Y022294D02*
X024457D01*
X024193Y0223D02*
X024443D01*
X0257Y01105D02*
Y0113D01*
X024464Y0109D02*
X0248D01*
Y010643D02*
Y0109D01*
X0232Y0105D02*
Y010915D01*
X022785Y0105D02*
X0232D01*
X02105Y02165D02*
Y0219D01*
X0208D02*
X02105D01*
X020053Y020663D02*
X020253D01*
X0202Y0129D02*
X020615D01*
X0202Y012485D02*
Y0129D01*
Y0119D02*
Y012315D01*
X019785Y0119D02*
X0202D01*
X017831Y027397D02*
X018193D01*
Y027759D01*
X017831Y026675D02*
X018193D01*
X015963Y029627D02*
Y029905D01*
X015469Y029627D02*
X015963D01*
X016457D01*
X018193Y02559D02*
Y025952D01*
X017831D02*
X018193D01*
X017059Y022734D02*
Y023227D01*
X016782Y022734D02*
X017059D01*
X0149Y0276D02*
Y028D01*
Y0272D02*
Y0276D01*
X014475D02*
X0149D01*
X0128Y0277D02*
X01303D01*
X017059Y02224D02*
Y022734D01*
X0176Y01465D02*
X0178D01*
X0174D02*
X0176D01*
Y01445D02*
Y01465D01*
Y01485D01*
X01625Y0148D02*
Y01505D01*
Y0148D02*
X0165D01*
X01625Y01455D02*
Y0148D01*
X016D02*
X01625D01*
X01825Y01075D02*
Y011401D01*
X0163Y010802D02*
Y011453D01*
X0148Y0123D02*
X0154D01*
X01435Y022272D02*
Y022608D01*
X01405Y022232D02*
Y022432D01*
X01495Y0151D02*
Y01535D01*
X0147Y0151D02*
X01495D01*
Y01485D02*
Y0151D01*
X01255Y0207D02*
X01275D01*
X01255D02*
Y0209D01*
X01235Y0207D02*
X01255D01*
Y0205D02*
Y0207D01*
X0148Y0123D02*
Y0132D01*
X0142Y0123D02*
X0148D01*
Y0114D02*
Y0123D01*
X0128Y0108D02*
Y01153D01*
X0119Y0108D02*
X0128D01*
X0106Y0106D02*
Y011015D01*
X012676Y029028D02*
Y029282D01*
X01263Y029328D02*
X012676Y029282D01*
X021559Y02226D02*
Y022734D01*
X012423Y029684D02*
X012837D01*
X012353Y027571D02*
Y029614D01*
Y027571D02*
X01263Y027294D01*
X012907Y027851D02*
Y029614D01*
X012837Y029684D02*
X012907Y029614D01*
X012353D02*
X012423Y029684D01*
X01263Y026572D02*
Y027294D01*
X0128Y027743D02*
X012907Y027851D01*
X0128Y0277D02*
Y027743D01*
X019905Y017852D02*
X019924Y017871D01*
X019436Y017455D02*
X019833Y017852D01*
X019905D01*
X017597Y02015D02*
X01766Y020213D01*
X016598Y02015D02*
X016609Y020139D01*
X01255Y0207D02*
X0131Y02015D01*
X016598D01*
X016802D02*
X017597D01*
X016609Y020139D02*
X016791D01*
X016802Y02015D01*
X01766Y020213D02*
X017759D01*
X0117Y02101D02*
X01276Y01995D01*
X017697Y020009D02*
X01771D01*
X017638Y01995D02*
X017697Y020009D01*
X01771D02*
X018396Y019323D01*
X01276Y01995D02*
X017638D01*
X0167Y020359D02*
X016705D01*
X016729Y020383D02*
X01788D01*
X016705Y020359D02*
X016729Y020383D01*
X01788D02*
X01817Y020093D01*
X017759Y020213D02*
X01779Y020182D01*
X017803D02*
X018031Y019953D01*
X01779Y020182D02*
X017803D01*
X018031Y019953D02*
X018057D01*
X019833Y020467D02*
Y020851D01*
X019984Y021002D01*
X019833Y020467D02*
X01985Y02045D01*
X020222Y021303D02*
X020264Y021345D01*
X020209Y021303D02*
X020222D01*
X018396Y019323D02*
X018581D01*
X0186Y019304D01*
X01985Y018147D02*
Y018874D01*
X019297Y017594D02*
X01985Y018147D01*
X0194Y019324D02*
X01985Y018874D01*
X020965Y018981D02*
Y019085D01*
X02095Y0191D02*
X020965Y019085D01*
Y018981D02*
X022486Y01746D01*
X020072Y020683D02*
Y02085D01*
X020053Y020663D02*
X020072Y020683D01*
Y02085D02*
X020154Y020932D01*
X0194Y019324D02*
Y020404D01*
X018634Y019694D02*
X01939Y02045D01*
X018316Y019694D02*
X018634D01*
X019297Y017594D02*
Y017594D01*
X01185Y0201D02*
X012369D01*
X013678Y018791D02*
X017697D01*
X017892Y018986D01*
X012369Y0201D02*
X013678Y018791D01*
X017892Y018986D02*
X017905D01*
X0218Y020363D02*
X028337D01*
X0291Y0196D01*
X02153Y020093D02*
X0218Y020363D01*
X017174Y016001D02*
X018473Y0173D01*
X019003D02*
X019297Y017594D01*
X018473Y0173D02*
X019003D01*
X017174Y015048D02*
Y016001D01*
X0117Y02101D02*
Y0214D01*
X021517Y020093D02*
X02153D01*
X02344Y01746D02*
X02485Y01605D01*
X022486Y01746D02*
X02344D01*
X0242Y02505D02*
X024507D01*
X024855Y025428D02*
X024894D01*
X024578Y025151D02*
X024855Y025428D01*
X024578Y025121D02*
Y025151D01*
X024507Y02505D02*
X024578Y025121D01*
X014994Y026176D02*
X015033D01*
X014955D02*
X014994D01*
X013694Y025428D02*
X014207D01*
X014955Y026176D01*
X015836Y0285D02*
X015963Y028627D01*
X015595Y0285D02*
X015836D01*
X015449Y028354D02*
X015595Y0285D01*
X01522Y026362D02*
Y026401D01*
X015449Y026631D02*
Y028354D01*
X015033Y026176D02*
X01522Y026362D01*
Y026401D02*
X015449Y026631D01*
X0202Y0105D02*
X02028Y01042D01*
X01817Y020093D02*
X018183D01*
X020154Y020932D02*
Y020944D01*
X020403Y021193D01*
X019984Y021002D02*
Y021052D01*
X020264Y021333D01*
X020403Y021193D02*
Y021206D01*
X018057Y019953D02*
X018316Y019694D01*
X020264Y021333D02*
Y021345D01*
X017572Y01465D02*
X0176D01*
X017174Y015048D02*
X017572Y01465D01*
X02105Y021853D02*
Y0219D01*
X020403Y021206D02*
X02105Y021853D01*
X02545Y0132D02*
X026752D01*
X02545Y01425D02*
X026754D01*
X026778Y014226D01*
X02545Y01515D02*
X026752D01*
X0254Y0152D02*
X02545Y01515D01*
D19*
X015963Y023127D02*
D03*
Y023627D02*
D03*
Y024127D02*
D03*
Y024627D02*
D03*
Y025127D02*
D03*
Y025627D02*
D03*
Y026127D02*
D03*
Y026627D02*
D03*
Y027127D02*
D03*
Y027627D02*
D03*
Y028127D02*
D03*
Y028627D02*
D03*
Y029127D02*
D03*
Y029627D02*
D03*
X022656Y023127D02*
D03*
Y023627D02*
D03*
Y024127D02*
D03*
Y024627D02*
D03*
Y025127D02*
D03*
Y025627D02*
D03*
Y026127D02*
D03*
Y026627D02*
D03*
Y027127D02*
D03*
Y027627D02*
D03*
Y028127D02*
D03*
Y028627D02*
D03*
Y029127D02*
D03*
Y029627D02*
D03*
D20*
X019559Y022734D02*
D03*
X020059D02*
D03*
X020559D02*
D03*
X021059D02*
D03*
X021559D02*
D03*
X019059D02*
D03*
X018559D02*
D03*
X018059D02*
D03*
X017559D02*
D03*
X017059D02*
D03*
D21*
X018916Y026675D02*
D03*
X018193D02*
D03*
X019638D02*
D03*
X018916Y027397D02*
D03*
X018193D02*
D03*
X019638D02*
D03*
X018916Y025952D02*
D03*
X018193D02*
D03*
X019638D02*
D03*
D22*
X01263Y029328D02*
D03*
Y026572D02*
D03*
X01435Y025028D02*
D03*
Y022272D02*
D03*
X0242Y022294D02*
D03*
Y02505D02*
D03*
D23*
X020264Y017455D02*
D03*
X020403Y017594D02*
D03*
X020543Y017733D02*
D03*
X020682Y017872D02*
D03*
X020821Y018011D02*
D03*
X02096Y018151D02*
D03*
X021099Y01829D02*
D03*
X021239Y018429D02*
D03*
X021378Y018568D02*
D03*
X021517Y018707D02*
D03*
X021656Y018847D02*
D03*
X021795Y018986D02*
D03*
X019436Y021345D02*
D03*
X019297Y021206D02*
D03*
X019157Y021067D02*
D03*
X019018Y020928D02*
D03*
X018879Y020789D02*
D03*
X01874Y020649D02*
D03*
X018601Y02051D02*
D03*
X018461Y020371D02*
D03*
X018322Y020232D02*
D03*
X018183Y020093D02*
D03*
X018044Y019953D02*
D03*
X017905Y019814D02*
D03*
D24*
X021795D02*
D03*
X021656Y019953D02*
D03*
X021517Y020093D02*
D03*
X021378Y020232D02*
D03*
X021239Y020371D02*
D03*
X021099Y02051D02*
D03*
X02096Y020649D02*
D03*
X020821Y020789D02*
D03*
X020682Y020928D02*
D03*
X020543Y021067D02*
D03*
X020403Y021206D02*
D03*
X020264Y021345D02*
D03*
X017905Y018986D02*
D03*
X018044Y018847D02*
D03*
X018183Y018707D02*
D03*
X018322Y018568D02*
D03*
X018461Y018429D02*
D03*
X018601Y01829D02*
D03*
X01874Y018151D02*
D03*
X018879Y018011D02*
D03*
X019018Y017872D02*
D03*
X019157Y017733D02*
D03*
X019297Y017594D02*
D03*
X019436Y017455D02*
D03*
D25*
X018377Y01535D02*
D03*
X021723D02*
D03*
D26*
X020542Y01395D02*
D03*
X019558D02*
D03*
D27*
X0248Y0109D02*
D03*
X027556D02*
D03*
D28*
X0163Y010802D02*
D03*
Y012298D02*
D03*
X01825Y01075D02*
D03*
Y012246D02*
D03*
D29*
X013694Y026176D02*
D03*
Y025428D02*
D03*
X024894Y026176D02*
D03*
Y025428D02*
D03*
X014994Y026176D02*
D03*
Y025428D02*
D03*
X013926Y028672D02*
D03*
Y027924D02*
D03*
X023544Y026176D02*
D03*
Y025428D02*
D03*
D30*
X026752Y0132D02*
D03*
X0275D02*
D03*
X027526Y012176D02*
D03*
X026778D02*
D03*
Y014226D02*
D03*
X027526D02*
D03*
X026752Y01515D02*
D03*
X0275D02*
D03*
D31*
X02403Y01425D02*
D03*
X02545D02*
D03*
X02398Y0152D02*
D03*
X0254D02*
D03*
X02413Y0122D02*
D03*
X02555D02*
D03*
X02545Y0132D02*
D03*
X02403D02*
D03*
D32*
X02725Y0294D02*
D03*
Y02798D02*
D03*
X0149Y02902D02*
D03*
Y0276D02*
D03*
D54*
X027987Y030035D02*
G03*
X027985Y02988I000279J-00008D01*
G01*
X027748Y029937D02*
G03*
X027621Y02999I-000128J-000127D01*
G01*
X027748Y029937D02*
G03*
X027621Y02999I-000127J-000127D01*
G01*
X028874Y028995D02*
G03*
X029345Y028217I000226J-000395D01*
G01*
Y027983D02*
G03*
X029088Y028055I-000245J-000383D01*
G01*
X028612Y029048D02*
G03*
X028739Y028995I000128J000127D01*
G01*
X028612Y029048D02*
G03*
X028739Y028995I000127J000127D01*
G01*
X026879Y02999D02*
G03*
X026752Y029937I0J-00018D01*
G01*
X026879Y02999D02*
G03*
X026752Y029937I0J-00018D01*
G01*
X02637Y02988D02*
G03*
X026242Y029827I0J-00018D01*
G01*
X02637Y02988D02*
G03*
X026243Y029827I0J-00018D01*
G01*
X024325Y029567D02*
G03*
X02439Y02975I-000225J000183D01*
G01*
X025325Y0292D02*
G03*
X025325Y0292I-000455J0D01*
G01*
X024858Y028655D02*
G03*
X024508Y027925I000012J-000455D01*
G01*
X028894Y027194D02*
G03*
X029345Y027217I000206J000406D01*
G01*
Y026983D02*
G03*
X028645Y026612I-000245J-000383D01*
G01*
X025575Y02734D02*
G03*
X025745Y02727I00017J00017D01*
G01*
X025575Y02734D02*
G03*
X025745Y02727I00017J00017D01*
G01*
X025325Y0272D02*
G03*
X025253Y027445I-000455J0D01*
G01*
X024487D02*
G03*
X025325Y0272I000383J-000245D01*
G01*
X024713Y024986D02*
G03*
X024755Y025052I-000134J000134D01*
G01*
X024712Y024986D02*
G03*
X024755Y025052I-000134J000135D01*
G01*
X024507Y02486D02*
G03*
X024642Y024916I0J00019D01*
G01*
X024507Y02486D02*
G03*
X024642Y024916I0J00019D01*
G01*
X02439Y02975D02*
G03*
X024154Y030035I-00029J0D01*
G01*
X024046D02*
G03*
X023871Y029928I000054J-000285D01*
G01*
X023485Y029925D02*
G03*
X023329Y029867I0J-00024D01*
G01*
X023485Y029925D02*
G03*
X023329Y029867I0J-00024D01*
G01*
X023472Y028463D02*
G03*
X023525Y02859I-000127J000127D01*
G01*
X023472Y028463D02*
G03*
X023525Y02859I-000127J000128D01*
G01*
X024325Y0282D02*
G03*
X023415Y028212I-000455J0D01*
G01*
X024325Y0272D02*
G03*
X024253Y027445I-000455J0D01*
G01*
X024232Y027925D02*
G03*
X024325Y0282I-000362J000275D01*
G01*
X023194Y02819D02*
G03*
X023223Y028213I-000098J000151D01*
G01*
X023194Y02819D02*
G03*
X023222Y028213I-000098J000151D01*
G01*
X023784Y026753D02*
G03*
X024325Y0272I000086J000447D01*
G01*
X023671Y023662D02*
G03*
X023724Y023789I-000127J000128D01*
G01*
X023671Y023662D02*
G03*
X023724Y023789I-000127J000127D01*
G01*
X02365Y02333D02*
G03*
X023523Y023277I0J-00018D01*
G01*
X02365Y02333D02*
G03*
X023522Y023277I0J-00018D01*
G01*
X024666Y022123D02*
G03*
X024734Y02208I000128J000127D01*
G01*
X024666Y022123D02*
G03*
X024734Y02208I000127J000127D01*
G01*
X022736Y013534D02*
G03*
X022789Y013406I00018J0D01*
G01*
X022736Y013534D02*
G03*
X022789Y013406I00018J0D01*
G01*
X023557Y012638D02*
G03*
X023684Y012585I000127J000127D01*
G01*
X023557Y012638D02*
G03*
X023684Y012585I000128J000127D01*
G01*
X02362Y012452D02*
G03*
X023493Y012505I-000127J-000127D01*
G01*
X02362Y012452D02*
G03*
X023493Y012505I-000128J-000127D01*
G01*
X02402Y01095D02*
G03*
X02396Y01112I-00027J0D01*
G01*
X02354D02*
G03*
X02348Y010955I00021J-00017D01*
G01*
X022488Y02253D02*
G03*
X02236Y022477I0J-00018D01*
G01*
X022488Y02253D02*
G03*
X022361Y022477I0J-00018D01*
G01*
X026223Y01089D02*
G03*
X02635Y010837I000127J000127D01*
G01*
X026223Y01089D02*
G03*
X02635Y010837I000128J000127D01*
G01*
X028278Y010473D02*
G03*
X028405Y01042I000128J000127D01*
G01*
X02588Y011072D02*
G03*
X026007Y01102I000127J000128D01*
G01*
X02588Y011072D02*
G03*
X026007Y01102I000127J000128D01*
G01*
X025806Y01103D02*
G03*
X02588Y011072I-000106J00027D01*
G01*
X025336Y01066D02*
G03*
X025506Y01073I0J00024D01*
G01*
X025336Y01066D02*
G03*
X025506Y01073I0J00024D01*
G01*
X028278Y010473D02*
G03*
X028405Y01042I000127J000127D01*
G01*
X028787Y01027D02*
G03*
X028967Y010165I000313J00033D01*
G01*
X02392Y01074D02*
G03*
X02402Y01095I-00017J00021D01*
G01*
X022655Y0105D02*
G03*
X022212Y010955I-000455J0D01*
G01*
X024321Y01026D02*
G03*
X024491Y01033I0J00024D01*
G01*
X024321Y01026D02*
G03*
X024491Y01033I0J00024D01*
G01*
X022508Y010165D02*
G03*
X022655Y0105I-000308J000335D01*
G01*
X021077Y021611D02*
G03*
X021338Y02187I-000027J000289D01*
G01*
X020786Y02202D02*
G03*
X020767Y021838I000264J-00012D01*
G01*
X020934Y015846D02*
G03*
X020882Y015973I-00018J0D01*
G01*
X020934Y015846D02*
G03*
X020881Y015973I-00018J0D01*
G01*
X020814Y016041D02*
G03*
X020686Y016094I-000128J-000127D01*
G01*
X020813Y016041D02*
G03*
X020686Y016094I-000127J-000127D01*
G01*
X020473Y016423D02*
G03*
X0206Y01637I000127J000127D01*
G01*
X020472Y016423D02*
G03*
X0206Y01637I000128J000127D01*
G01*
X020572Y015731D02*
G03*
X020501Y015571I000142J-00016D01*
G01*
X020441Y015787D02*
G03*
X020569Y015734I000127J000127D01*
G01*
X020441Y015787D02*
G03*
X020569Y015734I000128J000127D01*
G01*
X020084Y016886D02*
G03*
X020137Y016758I00018J0D01*
G01*
X020084Y016886D02*
G03*
X020137Y016758I00018J0D01*
G01*
X019403Y016204D02*
G03*
X019309Y016154I000033J-000177D01*
G01*
X019003Y01711D02*
G03*
X019089Y017131I0J00019D01*
G01*
X019003Y01711D02*
G03*
X019089Y017131I0J00019D01*
G01*
X020629Y016122D02*
G03*
X020417Y015811I-000229J-000072D01*
G01*
X019526Y015822D02*
G03*
X01984Y01605I000074J000228D01*
G01*
D02*
G03*
X019418Y016206I-00024J0D01*
G01*
X019403Y016204D02*
G03*
X019309Y016154I000033J-000177D01*
G01*
X019219Y016064D02*
G03*
X019166Y015937I000127J-000128D01*
G01*
X019599Y015571D02*
G03*
X019528Y015731I-000214J0D01*
G01*
X019218Y016064D02*
G03*
X019166Y015937I000127J-000127D01*
G01*
X021885Y013555D02*
G03*
X021715Y013625I-00017J-00017D01*
G01*
X021885Y013555D02*
G03*
X021715Y013625I-00017J-00017D01*
G01*
X020501Y015129D02*
G03*
X020714Y014915I000214J0D01*
G01*
X019999Y013625D02*
G03*
X019914Y01361I0J-00024D01*
G01*
X019999Y013625D02*
G03*
X019914Y01361I0J-00024D01*
G01*
X020817Y013145D02*
G03*
X020934Y012531I000383J-000245D01*
G01*
X020655Y0129D02*
G03*
X020583Y013145I-000455J0D01*
G01*
X021898Y011057D02*
G03*
X02177Y01111I-000128J-000127D01*
G01*
X021897Y011057D02*
G03*
X02177Y01111I-000127J-000127D01*
G01*
X020648Y012204D02*
G03*
X0206Y012117I000127J-000128D01*
G01*
X020648Y012203D02*
G03*
X0206Y012117I000127J-000127D01*
G01*
X019386Y014915D02*
G03*
X019599Y015129I0J000214D01*
G01*
X019756Y012802D02*
G03*
X020655Y0129I000444J000098D01*
G01*
X01886Y012006D02*
G03*
X01903Y012076I0J00024D01*
G01*
X01886Y012006D02*
G03*
X01903Y012076I0J00024D01*
G01*
X0206Y012117D02*
G03*
X019867Y01159I-0004J-000217D01*
G01*
X01941D02*
G03*
X01924Y01152I0J-00024D01*
G01*
X01941Y01159D02*
G03*
X01924Y01152I0J-00024D01*
G01*
X01909Y01142D02*
G03*
X01902Y011589I-00024J0D01*
G01*
X01909Y01142D02*
G03*
X01902Y011589I-00024J0D01*
G01*
X015429Y029704D02*
G03*
X015329Y029644I00007J-00023D01*
G01*
X015429Y029704D02*
G03*
X015329Y029644I00007J-00023D01*
G01*
X015225Y02954D02*
G03*
X015172Y02946I00017J-00017D01*
G01*
X015225Y02954D02*
G03*
X015172Y02946I00017J-00017D01*
G01*
X01369Y02975D02*
G03*
X013454Y030035I-00029J0D01*
G01*
X013346D02*
G03*
X013155Y029596I000054J-000285D01*
G01*
X013643Y029592D02*
G03*
X01369Y02975I-000243J000158D01*
G01*
X014955Y028549D02*
G03*
X014885Y02838I00017J-00017D01*
G01*
X014742Y028447D02*
G03*
X014795Y028574I-000127J000127D01*
G01*
X014742Y028446D02*
G03*
X014795Y028574I-000127J000128D01*
G01*
X014955Y028549D02*
G03*
X014885Y02838I00017J-00017D01*
G01*
X013097Y029614D02*
G03*
X013042Y029749I-00019J0D01*
G01*
X013097Y029614D02*
G03*
X013042Y029748I-00019J0D01*
G01*
X012972Y029818D02*
G03*
X012837Y029874I-000135J-000134D01*
G01*
X012972Y029819D02*
G03*
X012837Y029874I-000134J-000134D01*
G01*
X012423D02*
G03*
X012288Y029819I0J-00019D01*
G01*
X012423Y029874D02*
G03*
X012288Y029818I0J-00019D01*
G01*
X011055Y029612D02*
G03*
X010733Y030035I-000455J-000012D01*
G01*
X012218Y029749D02*
G03*
X012163Y029614I000134J-000135D01*
G01*
X012218Y029748D02*
G03*
X012163Y029614I000134J-000134D01*
G01*
X013934Y027404D02*
G03*
X013886Y027548I-00024J0D01*
G01*
X013934Y027404D02*
G03*
X013886Y027548I-00024J0D01*
G01*
X01316Y027698D02*
G03*
X01323Y027528I00024J0D01*
G01*
X01316Y027698D02*
G03*
X01323Y027528I00024J0D01*
G01*
X013066Y027746D02*
G03*
X013097Y027851I-000159J000105D01*
G01*
X013066Y027746D02*
G03*
X013097Y027851I-000159J000105D01*
G01*
X01307Y0277D02*
G03*
X013066Y027746I-00027J0D01*
G01*
X01318Y02715D02*
G03*
X013127Y027278I-00018J0D01*
G01*
X01318Y02715D02*
G03*
X013127Y027277I-00018J0D01*
G01*
X012937Y027467D02*
G03*
X01307Y0277I-000137J000233D01*
G01*
X013127Y026265D02*
G03*
X01318Y026393I-000127J000128D01*
G01*
X013127Y026265D02*
G03*
X01318Y026393I-000127J000127D01*
G01*
X01784Y01465D02*
G03*
X017601Y01489I-00024J0D01*
G01*
X016984Y015048D02*
G03*
X01704Y014914I00019J0D01*
G01*
X016984Y015048D02*
G03*
X01704Y014914I00019J0D01*
G01*
X016462Y020392D02*
G03*
X016461Y02034I000238J-000033D01*
G01*
X01615Y01562D02*
G03*
X016278Y015673I0J00018D01*
G01*
X01615Y01562D02*
G03*
X016277Y015673I0J00018D01*
G01*
X01654Y0148D02*
G03*
X016305Y015085I-00029J0D01*
G01*
X015965Y014745D02*
G03*
X01654Y0148I000285J000055D01*
G01*
X01612Y01527D02*
G03*
X01595Y01534I-00017J-00017D01*
G01*
X01612Y01527D02*
G03*
X01595Y01534I-00017J-00017D01*
G01*
X018715Y012732D02*
G03*
X01851Y012937I-000205J0D01*
G01*
X017369Y014585D02*
G03*
X01784Y01465I000231J000065D01*
G01*
X01799Y012937D02*
G03*
X017785Y012732I0J-000205D01*
G01*
Y01176D02*
G03*
X01799Y011555I000205J0D01*
G01*
X016765Y012784D02*
G03*
X01656Y012989I-000205J0D01*
G01*
Y011607D02*
G03*
X016765Y011812I0J000205D01*
G01*
X01799Y011441D02*
G03*
X017785Y011236I0J-000205D01*
G01*
X016765Y011288D02*
G03*
X01656Y011493I-000205J0D01*
G01*
X015835Y011812D02*
G03*
X01604Y011607I000205J0D01*
G01*
Y011493D02*
G03*
X015835Y011288I0J-000205D01*
G01*
X01405Y022472D02*
G03*
X013855Y022372I0J-00024D01*
G01*
X01405Y022472D02*
G03*
X013855Y022372I0J-00024D01*
G01*
X015108Y015343D02*
G03*
X015104Y014855I-000158J-000243D01*
G01*
X014402Y014143D02*
G03*
X014469Y014329I-000223J000186D01*
G01*
X014393Y015092D02*
G03*
X01444Y01525I-000243J000158D01*
G01*
D02*
G03*
X013905Y015096I-00029J0D01*
G01*
X01432Y01483D02*
G03*
X01439Y015I-00017J00017D01*
G01*
X01432Y01483D02*
G03*
X01439Y015I-00017J00017D01*
G01*
X014469Y014329D02*
G03*
X014097Y014607I-00029J0D01*
G01*
X012614Y020931D02*
G03*
X012312Y020666I-000064J-000231D01*
G01*
X012788Y020731D02*
G03*
X012781Y020764I-000238J-000031D01*
G01*
X01199Y0214D02*
G03*
X011964Y02152I-00029J0D01*
G01*
X011916Y021206D02*
G03*
X01199Y0214I-000216J000194D01*
G01*
X013319Y02042D02*
G03*
X013416Y020392I000096J000152D01*
G01*
X013319Y02042D02*
G03*
X013416Y020392I000096J000152D01*
G01*
X013073Y020473D02*
G03*
X0132Y02042I000127J000127D01*
G01*
X013072Y020473D02*
G03*
X0132Y02042I000128J000127D01*
G01*
X01525Y013914D02*
G03*
X01508Y013984I-00017J-00017D01*
G01*
X01525Y013914D02*
G03*
X01508Y013984I-00017J-00017D01*
G01*
X014061Y013408D02*
G03*
X014231Y013478I0J00024D01*
G01*
X014061Y013408D02*
G03*
X014231Y013478I0J00024D01*
G01*
X011051Y011443D02*
G03*
X011202Y011513I-000019J000239D01*
G01*
X011051Y011443D02*
G03*
X011202Y011513I-000019J000239D01*
G01*
X010355Y011217D02*
G03*
X011026Y011439I000245J000383D01*
G01*
X029033Y02502D02*
G03*
X029043Y025022I-000013J000079D01*
G01*
X029062Y025031D02*
G03*
X029084Y02505I-000042J000068D01*
G01*
X029033Y02502D02*
G03*
X028691Y024485I000067J-00042D01*
G01*
X028594Y029575D02*
X028645D01*
X027805Y02988D02*
X027985D01*
X027748Y029937D02*
X027805Y02988D01*
X028645Y029524D02*
Y029575D01*
X028594D02*
X028645Y029524D01*
X027818Y0292D02*
X02846D01*
X027715Y0294D02*
X02826D01*
X027731Y02952D02*
X02814D01*
X02775Y029274D02*
X02782Y029198D01*
X0276Y02999D02*
Y030035D01*
X0274Y02999D02*
Y030035D01*
X0278Y029885D02*
Y030035D01*
X026879Y02999D02*
X027621D01*
X027D02*
Y030035D01*
X0272Y02999D02*
Y030035D01*
X027727Y029302D02*
X02775Y029274D01*
X027715Y029319D02*
Y029382D01*
X0278Y02922D02*
Y02952D01*
X027715Y029386D02*
Y029521D01*
X028739Y028995D02*
X028874D01*
X0288Y028942D02*
Y028995D01*
X027826Y029189D02*
X028896Y028119D01*
X0292Y028044D02*
Y028156D01*
X029345Y027983D02*
Y028217D01*
X028814Y0282D02*
X028883D01*
X0288Y028214D02*
Y028258D01*
X029Y028061D02*
Y028156D01*
X0284Y028614D02*
Y02926D01*
X0286Y028414D02*
Y02906D01*
X02814Y02952D02*
X028612Y029048D01*
X028Y029014D02*
Y02952D01*
X0282Y028814D02*
Y02946D01*
X028414Y0286D02*
X028645D01*
X028614Y0284D02*
X028691D01*
X028014Y029D02*
X028698D01*
X028214Y0288D02*
X028691D01*
X0268Y029972D02*
Y030035D01*
X0266Y02988D02*
Y030035D01*
X024154D02*
X027987D01*
X024247Y03D02*
X027979D01*
X0264Y02988D02*
Y030035D01*
X02637Y02988D02*
X026695D01*
X026752Y029937D01*
X024386Y0298D02*
X026215D01*
X0262Y029785D02*
Y030035D01*
X026Y029585D02*
Y030035D01*
X0252Y029513D02*
Y030035D01*
X025Y029636D02*
Y030035D01*
X0248Y02965D02*
Y030035D01*
X0246Y029566D02*
Y030035D01*
X025087Y0296D02*
X026015D01*
X024348D02*
X024653D01*
X025279Y0294D02*
X025815D01*
X024325D02*
X024461D01*
X0258Y029385D02*
Y030035D01*
X0256Y029185D02*
Y030035D01*
X0254Y028985D02*
Y030035D01*
X025325Y0292D02*
X025615D01*
X025111Y028696D02*
X026242Y029827D01*
X025279Y029D02*
X025415D01*
X025087Y0288D02*
X025215D01*
X0252Y028785D02*
Y028887D01*
X024916Y028658D02*
X025028Y028666D01*
X025Y028664D02*
Y028764D01*
X024872Y028658D02*
X024916Y028658D01*
X0248Y02865D02*
Y02875D01*
X0246Y028566D02*
Y028834D01*
X0244Y027925D02*
Y030035D01*
X024325Y029D02*
X024461D01*
X024325Y0292D02*
X024415D01*
X024325Y0288D02*
X024653D01*
X024279Y028D02*
X024461D01*
X024325Y0282D02*
X024415D01*
X024087Y0286D02*
X024653D01*
X024279Y0284D02*
X024461D01*
X028854Y027213D02*
X028881Y027198D01*
X029345Y026983D02*
Y027217D01*
X028802Y027236D02*
X028854Y027213D01*
X028734Y027258D02*
X028782Y027244D01*
X0288Y026942D02*
Y027237D01*
X0292Y027044D02*
Y027156D01*
X029Y027044D02*
Y027156D01*
X025279Y027D02*
X028883D01*
X025325Y0272D02*
X028877D01*
X028642Y026552D02*
X028642Y026598D01*
X02547Y027445D02*
X025575Y02734D01*
X025279Y0274D02*
X025515D01*
X025253Y027445D02*
X02547D01*
X028638Y026474D02*
X028642Y026552D01*
X0286Y026355D02*
Y02727D01*
X0284Y026155D02*
Y02727D01*
X025745D02*
X02864D01*
X02531Y0264D02*
X028625D01*
X02531Y0262D02*
X028445D01*
X0282Y025955D02*
Y02727D01*
X028Y025755D02*
Y02727D01*
X0278Y025555D02*
Y02727D01*
X0276Y025355D02*
Y02727D01*
X0274Y025155D02*
Y02727D01*
X0272Y024955D02*
Y02727D01*
X02531Y0254D02*
X027645D01*
X02531Y0252D02*
X027445D01*
X025575Y02333D02*
X028604Y026359D01*
X02531Y026D02*
X028245D01*
X02531Y0258D02*
X028045D01*
X02531Y0256D02*
X027845D01*
X0264Y024155D02*
Y02727D01*
X0262Y023955D02*
Y02727D01*
X026Y023755D02*
Y02727D01*
X0258Y023555D02*
Y02727D01*
X0256Y023355D02*
Y027319D01*
X0254Y02333D02*
Y027445D01*
X027Y024755D02*
Y02727D01*
X0268Y024555D02*
Y02727D01*
X0266Y024355D02*
Y02727D01*
X02531Y025804D02*
Y026552D01*
Y025052D02*
Y0258D01*
X0252Y026552D02*
Y026887D01*
X0246Y026552D02*
Y026834D01*
X025087Y0268D02*
X028691D01*
X0248Y026552D02*
Y02675D01*
X025Y026552D02*
Y026764D01*
X023787Y0266D02*
X028643D01*
X024087Y0268D02*
X024653D01*
X024478Y026552D02*
X02531D01*
X024279Y027D02*
X024461D01*
X024325Y0272D02*
X024415D01*
X0244Y025976D02*
Y027445D01*
X024232Y027925D02*
X024508D01*
X024253Y027445D02*
X024487D01*
X024279Y0274D02*
X024461D01*
X024478Y026059D02*
Y026552D01*
X02396Y026D02*
X024424D01*
X024032Y025608D02*
X024453Y026029D01*
X02396Y0264D02*
X024478D01*
X02396Y0262D02*
X024478D01*
X024725Y025D02*
X027245D01*
X024755Y025052D02*
X02531D01*
X0252Y02333D02*
Y025052D01*
X024497Y0248D02*
X027045D01*
X023724Y0246D02*
X026845D01*
X023724Y0244D02*
X026645D01*
X023724Y0242D02*
X026445D01*
X023724Y024D02*
X026245D01*
X023724Y0238D02*
X026045D01*
X023609Y0236D02*
X025845D01*
X023409Y0234D02*
X025645D01*
X02365Y02333D02*
X025575D01*
X0248D02*
Y025052D01*
X025Y02333D02*
Y025052D01*
X024642Y024916D02*
X024712Y024986D01*
X024497Y024674D02*
Y02486D01*
X0246Y02333D02*
Y024884D01*
X023903Y024674D02*
X024497D01*
X0244Y02333D02*
Y024674D01*
X023485Y029925D02*
X023847D01*
X0238D02*
Y030035D01*
X024325Y028745D02*
Y029567D01*
X0238Y02865D02*
Y028745D01*
X024Y028636D02*
Y028745D01*
X023677D02*
X024325D01*
X023525Y028601D02*
X023644Y028719D01*
X023525Y0286D02*
X023653D01*
X0236Y029925D02*
Y030035D01*
X0234Y02991D02*
Y030035D01*
X0232Y029872D02*
Y030035D01*
X023Y029945D02*
Y030035D01*
X0228Y029945D02*
Y030035D01*
X023056Y029945D02*
X02319D01*
X023264Y029867D02*
X023329D01*
X023217Y029871D02*
X023251Y02987D01*
X02319Y029873D02*
Y029945D01*
X0242Y028513D02*
Y028745D01*
X0236Y028566D02*
Y028675D01*
X023223Y028213D02*
X023472Y028463D01*
X023409Y0284D02*
X023461D01*
X023208Y0282D02*
X023413D01*
X023412Y028152D02*
X023412Y028198D01*
X023408Y028074D02*
X023412Y028152D01*
X0234Y028021D02*
Y028391D01*
X0232Y027807D02*
Y028194D01*
X02319Y027945D02*
Y028185D01*
Y027807D02*
X023223D01*
X02319Y02781D02*
Y027945D01*
X023223Y027807D02*
X023374Y027959D01*
X02319Y028D02*
X023395D01*
X02319Y02781D02*
Y027945D01*
X0224Y029945D02*
Y030035D01*
X0222Y029945D02*
Y030035D01*
X0226Y029945D02*
Y030035D01*
X022122Y029945D02*
X023028D01*
X022122Y02881D02*
Y028945D01*
Y02781D02*
Y027945D01*
Y02831D01*
Y02781D02*
Y027945D01*
Y02831D02*
Y028445D01*
Y02881D01*
Y02831D02*
Y028445D01*
Y02931D02*
Y029445D01*
Y029945D01*
X02Y027799D02*
Y030035D01*
X0196Y027799D02*
Y030035D01*
X0194Y027799D02*
Y030035D01*
X0198Y027799D02*
Y030035D01*
X022122Y028945D02*
Y02931D01*
Y029445D01*
Y02881D02*
Y028945D01*
X019236Y027799D02*
X019318D01*
X02004D01*
X0216Y023267D02*
Y030035D01*
X0214Y023267D02*
Y030035D01*
X0218Y023267D02*
Y030035D01*
X021Y023267D02*
Y030035D01*
X0208Y023267D02*
Y030035D01*
X0212Y023267D02*
Y030035D01*
X022122Y02731D02*
Y027445D01*
Y02731D02*
Y027445D01*
Y026945D02*
Y02731D01*
Y027445D02*
Y02781D01*
X02004Y0276D02*
X022122D01*
X02004Y0274D02*
X022122D01*
X0204Y023267D02*
Y030035D01*
X0202Y023267D02*
Y030035D01*
X0206Y023267D02*
Y030035D01*
X019Y027799D02*
Y030035D01*
X0188Y027799D02*
Y030035D01*
X0192Y027799D02*
Y030035D01*
X02004Y027076D02*
Y027799D01*
X019236D02*
X019318D01*
X0242Y025776D02*
Y026887D01*
X024Y025608D02*
Y026764D01*
X02379Y026552D02*
X02396D01*
X0238D02*
Y02675D01*
X02396Y0258D02*
X024224D01*
X02396Y025608D02*
Y0258D01*
Y025608D02*
X024032D01*
X02396Y025804D02*
Y026552D01*
X023724Y025052D02*
X023903D01*
X023724Y025D02*
X023903D01*
X023787Y026614D02*
X023788Y026581D01*
X023784Y026626D02*
Y026753D01*
X022122Y02631D02*
Y026445D01*
Y02681D01*
Y026945D01*
Y02631D02*
Y026445D01*
Y025445D02*
Y02581D01*
Y025945D01*
Y02531D02*
Y025445D01*
Y025945D02*
Y02631D01*
Y02581D02*
Y025945D01*
X024Y02333D02*
Y024674D01*
X023903D02*
Y025052D01*
X0242Y02333D02*
Y024674D01*
X023724Y0248D02*
X023903D01*
X023724Y023789D02*
Y025052D01*
X0238Y02333D02*
Y025052D01*
X0236Y023323D02*
Y023591D01*
X022122Y02331D02*
Y023445D01*
Y02431D02*
Y024445D01*
Y02481D01*
Y02431D02*
Y024445D01*
Y02481D02*
Y024945D01*
Y02531D01*
Y02481D02*
Y024945D01*
Y023445D02*
Y02381D01*
Y023945D01*
Y02331D02*
Y023445D01*
Y023945D02*
Y02431D01*
Y02381D02*
Y023945D01*
X02004Y0266D02*
X022122D01*
Y02681D02*
Y026945D01*
X02004Y0264D02*
X022122D01*
X02004Y027D02*
X022122D01*
X02004Y0272D02*
X022122D01*
X02004Y0268D02*
X022122D01*
X02004Y0258D02*
X022122D01*
X02004Y026D02*
X022122D01*
X02004Y0256D02*
X022122D01*
X02004Y0262D02*
X022122D01*
X019318Y02555D02*
X02004D01*
Y026273D01*
Y026354D01*
Y026995D01*
Y026273D02*
Y026354D01*
Y026995D02*
Y027076D01*
Y026995D02*
Y027076D01*
X019236Y02555D02*
X019318D01*
X019236D02*
X019318D01*
X022122Y02531D02*
Y025445D01*
X02Y023267D02*
Y02555D01*
X020242Y023267D02*
X020377D01*
X019742D02*
X019877D01*
X019742D02*
X019877D01*
X020242D01*
X021242D02*
X021377D01*
X020742D02*
X020877D01*
X021377D02*
X021877D01*
X020377D02*
X020742D01*
X020242D02*
X020377D01*
X020742D02*
X020877D01*
X0194D02*
Y02555D01*
X0192Y023267D02*
Y02555D01*
X0198Y023267D02*
Y02555D01*
X018742Y023267D02*
X018877D01*
X0188D02*
Y02555D01*
X019Y023267D02*
Y02555D01*
X019242Y023267D02*
X019377D01*
X019242D02*
X019377D01*
X019742D01*
X018742D02*
X018877D01*
X019242D01*
X024497Y02208D02*
Y022291D01*
X023215Y023205D02*
X023671Y023662D01*
X023211Y0232D02*
X023445D01*
X02319Y022944D02*
X023522Y023277D01*
X0246Y02208D02*
Y022189D01*
X024497Y022291D02*
X024666Y022123D01*
X024497Y0222D02*
X024589D01*
X024497Y02208D02*
X024734D01*
X0234Y023155D02*
Y023391D01*
X02319Y023D02*
X023245D01*
X0232Y022955D02*
Y023186D01*
X02319Y022944D02*
Y023175D01*
X023Y022755D02*
Y02281D01*
X0228Y022555D02*
Y02281D01*
X022775Y02253D02*
X023056Y02281D01*
X022736Y013534D02*
Y014915D01*
Y015785D02*
Y01626D01*
X022655Y0132D02*
X022995D01*
X0236Y01247D02*
Y012606D01*
X02369Y012396D02*
Y012585D01*
X024424Y010942D02*
Y01112D01*
X0244Y010918D02*
Y01112D01*
X02396D02*
X024424D01*
X02362Y012452D02*
X023669Y012404D01*
X023Y012505D02*
Y013195D01*
X0228Y012505D02*
Y013395D01*
X0232Y012505D02*
Y012995D01*
X022789Y013406D02*
X023557Y012638D01*
X022655Y013D02*
X023195D01*
X022655Y012505D02*
Y013355D01*
X0234Y010955D02*
Y01112D01*
Y012505D02*
Y012795D01*
X022655Y0128D02*
X023395D01*
X0232Y010955D02*
Y01112D01*
X022488Y02253D02*
X022775D01*
X0226D02*
Y02281D01*
X022122D02*
X023056D01*
X021877Y0228D02*
X023045D01*
X021877Y0226D02*
X022845D01*
X020934Y0158D02*
X022736D01*
X022625Y01637D02*
X022736Y01626D01*
X020934Y015785D02*
X022732D01*
X020587Y0162D02*
X022736D01*
X0206Y01637D02*
X022625D01*
X020855Y016D02*
X022736D01*
X0224Y022507D02*
Y02281D01*
X0222Y022317D02*
Y02281D01*
X021877Y023D02*
X022122D01*
X021877Y0232D02*
X022122D01*
Y02281D02*
Y02331D01*
X022113Y02223D02*
X02236Y022477D01*
X022Y015785D02*
Y01637D01*
X0224Y015785D02*
Y01637D01*
X021877Y0224D02*
X022283D01*
X021877Y02223D02*
X022113D01*
X020899Y0138D02*
X022736D01*
X020899Y014D02*
X022736D01*
X0226Y013355D02*
Y014915D01*
X020899Y0144D02*
X022736D01*
X020714Y014915D02*
X022732D01*
X020899Y0142D02*
X022736D01*
X022655Y0126D02*
X023612D01*
X022171Y013355D02*
X022655D01*
Y012505D02*
X023493D01*
X022048Y0134D02*
X022795D01*
X021822Y0136D02*
X022736D01*
X020992Y01112D02*
X02354D01*
X0226Y015785D02*
Y01637D01*
X0222Y013355D02*
Y014915D01*
X0224Y013355D02*
Y014915D01*
X0222Y015785D02*
Y01637D01*
X022Y013444D02*
Y014915D01*
X021985Y013458D02*
X022023Y013421D01*
X0222Y010957D02*
Y01112D01*
X022104Y013355D02*
X022167D01*
X0224Y010909D02*
Y01112D01*
X022023Y013421D02*
X022088Y013366D01*
X022Y010975D02*
Y01112D01*
X02635Y010837D02*
X02718D01*
Y010603D02*
Y010837D01*
X026093Y01102D02*
X026223Y01089D01*
X025776Y011D02*
X026113D01*
X027932Y010818D02*
X028278Y010473D01*
X028405Y01042D02*
X028579D01*
X02718Y010603D02*
X027932D01*
X025576Y0108D02*
X02718D01*
X027932Y010603D02*
Y010818D01*
X026007Y01102D02*
X026093D01*
X025506Y01073D02*
X025806Y01103D01*
X02525Y01066D02*
X025336D01*
X025203Y010657D02*
X025237Y010657D01*
X025043Y010603D02*
X025176D01*
Y010655D01*
X028Y010165D02*
Y010751D01*
X0282Y010165D02*
Y010551D01*
X0276Y010165D02*
Y010603D01*
X0274Y010165D02*
Y010603D01*
X0278Y010165D02*
Y010603D01*
X028744Y010309D02*
X028775Y010278D01*
X0288Y010165D02*
Y010258D01*
X028658Y010382D02*
X028744Y010309D01*
X0284Y010165D02*
Y01042D01*
X0286Y010165D02*
Y010416D01*
X0266Y010165D02*
Y010837D01*
X0264Y010165D02*
Y010837D01*
X0268Y010165D02*
Y010837D01*
X026Y010165D02*
Y01102D01*
X0258Y010165D02*
Y011024D01*
X0262Y010165D02*
Y010913D01*
X027Y010165D02*
Y010837D01*
X0256Y010165D02*
Y010824D01*
X0272Y010165D02*
Y010603D01*
X0252Y010165D02*
Y010657D01*
X0254Y010165D02*
Y010669D01*
X0242Y01074D02*
Y01112D01*
X024222Y01074D02*
X024424Y010942D01*
X024015Y011D02*
X024424D01*
X024Y011052D02*
Y01112D01*
X024763Y010603D02*
X025027D01*
X024761Y0106D02*
X028151D01*
X023974Y0108D02*
X024282D01*
X02392Y01074D02*
X024222D01*
X024D02*
Y010848D01*
X023Y010955D02*
Y01112D01*
X0228Y010955D02*
Y01112D01*
X0226Y010717D02*
Y01112D01*
X021955Y011D02*
X023485D01*
X022074Y010962D02*
X022152Y010958D01*
X022198Y010958D01*
X022745Y010955D02*
X02348D01*
X022644Y0106D02*
X022745D01*
X022542Y0108D02*
X022745D01*
X0248Y010165D02*
Y010603D01*
X0246Y010165D02*
Y010439D01*
X025Y010165D02*
Y010603D01*
X024561Y0104D02*
X028632D01*
X024491Y01033D02*
X024763Y010603D01*
X0242Y010165D02*
Y01026D01*
X0244Y010165D02*
Y010273D01*
X023655Y0102D02*
X028883D01*
X023729Y01026D02*
X024321D01*
X023655Y010165D02*
X028967D01*
X022745D02*
Y010955D01*
X0238Y010165D02*
Y01026D01*
X022644Y0104D02*
X022745D01*
X0226Y010165D02*
Y010283D01*
X023684Y010256D02*
X023717Y010257D01*
X023655Y010165D02*
Y010254D01*
X024Y010165D02*
Y01026D01*
X022542Y0102D02*
X022745D01*
X022508Y010165D02*
X022745D01*
X022Y02223D02*
Y030035D01*
X021877Y02223D02*
Y023267D01*
X0216Y02153D02*
Y02187D01*
X021242Y023267D02*
X021377D01*
X0214Y02153D02*
Y02187D01*
X021338D02*
X021965D01*
X0218Y021705D02*
Y02187D01*
X021625Y02153D02*
X021965Y02187D01*
X021322Y0218D02*
X021895D01*
X021066Y0216D02*
X021695D01*
X020996Y02153D02*
X021625D01*
X020877Y023267D02*
X021242D01*
X020707Y02202D02*
X020786D01*
X020687Y022D02*
X020778D01*
X020484Y021797D02*
X020707Y02202D01*
X0206Y021681D02*
Y021913D01*
X020996Y02153D02*
X021077Y021611D01*
X020487Y0218D02*
X020729D01*
X020484Y021797D02*
X020598Y021683D01*
X020605Y021676D02*
X020767Y021838D01*
X0216Y015785D02*
Y01637D01*
X0214Y015785D02*
Y01637D01*
X0218Y015785D02*
Y01637D01*
X0212Y02153D02*
Y021652D01*
X021Y015785D02*
Y01637D01*
X0212Y015785D02*
Y01637D01*
X020934Y015785D02*
Y015846D01*
X020814Y016041D02*
X020881Y015973D01*
X020646Y016094D02*
X020686D01*
X0206Y016183D02*
Y01637D01*
X0208Y016053D02*
Y01637D01*
X020417Y015811D02*
X020441Y015787D01*
X020501Y015129D02*
Y015571D01*
X0204Y014464D02*
Y01581D01*
X01985Y017587D02*
X020079Y017359D01*
X020084Y016886D02*
Y017317D01*
X019463Y0172D02*
X020084D01*
X019663Y0174D02*
X020037D01*
X019263Y017D02*
X020084D01*
X020137Y016758D02*
X020472Y016423D01*
X0204Y01629D02*
Y016495D01*
X0202Y016183D02*
Y016695D01*
X019787Y0162D02*
X020213D01*
X019818Y017555D02*
X01985Y017587D01*
X0196Y01629D02*
Y017337D01*
X0198Y016183D02*
Y017537D01*
X019241Y016978D02*
X019807Y017544D01*
X0196Y023267D02*
Y02555D01*
X0194Y016203D02*
Y017137D01*
X019219Y017D02*
X019263D01*
X019102Y017117D02*
X019241Y016978D01*
X019835Y016D02*
X020165D01*
X02Y013625D02*
Y017437D01*
X0198Y014464D02*
Y015917D01*
X019599Y0152D02*
X020501D01*
X0196Y014464D02*
Y01581D01*
X0202Y014464D02*
Y015917D01*
X019598Y0156D02*
X020502D01*
X019526Y0158D02*
X020428D01*
X019599Y0154D02*
X020501D01*
X019219Y016064D02*
X019309Y016154D01*
X0192Y016042D02*
Y017019D01*
X0188Y015785D02*
Y01711D01*
X019Y015785D02*
Y01711D01*
X019526Y015741D02*
Y015822D01*
X019599Y015129D02*
Y015571D01*
X019166Y015785D02*
Y015937D01*
X0216Y013625D02*
Y014915D01*
X0214Y013625D02*
Y014915D01*
X0218Y013609D02*
Y014915D01*
X021Y013625D02*
Y014915D01*
X0208Y014464D02*
Y014915D01*
X0212Y013625D02*
Y014915D01*
X021885Y013555D02*
X021975Y013465D01*
X020899Y013625D02*
Y014464D01*
X020186D02*
X020899D01*
Y013625D02*
X021715D01*
X0206Y014464D02*
Y014948D01*
X020186Y013625D02*
Y014464D01*
X019914Y0142D02*
X020186D01*
X019914Y0144D02*
X020186D01*
X019914Y01361D02*
Y014464D01*
X019999Y013625D02*
X020186D01*
X019914Y014D02*
X020186D01*
X019914Y0138D02*
X020186D01*
X020644Y0128D02*
X020756D01*
X0208Y012356D02*
Y012683D01*
X020583Y013145D02*
X020817D01*
X020644Y013D02*
X020756D01*
X021898Y011057D02*
X021959Y010996D01*
X020648Y012204D02*
X020956Y012512D01*
X020542Y0126D02*
X020858D01*
X020982Y01111D02*
X02177D01*
X0204Y012309D02*
Y012491D01*
X0206Y012118D02*
Y012683D01*
X02Y012309D02*
Y012491D01*
X0198Y012117D02*
Y012683D01*
X020542Y0122D02*
X020645D01*
X0202Y012355D02*
Y012445D01*
X019556Y015D02*
X020543D01*
X0196Y013325D02*
Y013436D01*
X0194Y013125D02*
Y013436D01*
X019201Y014464D02*
X019914D01*
X019201Y013436D02*
X019711D01*
X019554Y0126D02*
X019858D01*
X019354Y0124D02*
X020844D01*
X019154Y0122D02*
X019858D01*
X018764Y012489D02*
X019711Y013436D01*
X01903Y012076D02*
X019756Y012802D01*
X0194Y014464D02*
Y014915D01*
X019201Y013436D02*
Y014464D01*
X0192Y012925D02*
Y014915D01*
X019Y012725D02*
Y014915D01*
X0188Y012525D02*
Y014915D01*
X018715Y012493D02*
Y012732D01*
X01879Y012006D02*
X01886D01*
X018715Y0126D02*
X018875D01*
X018745Y012002D02*
X018779Y012003D01*
X0196Y01159D02*
Y012646D01*
X018813Y0118D02*
X019756D01*
X018718Y012D02*
X019756D01*
X0194Y01159D02*
Y012446D01*
X01941Y01159D02*
X019867D01*
X0198D02*
Y011683D01*
X019009Y0116D02*
X019858D01*
X01909Y011369D02*
X01924Y01152D01*
X019Y011609D02*
Y012051D01*
X0188Y011814D02*
Y012006D01*
X0192Y011479D02*
Y012246D01*
X018728Y011895D02*
X018751Y011868D01*
X018715Y011915D02*
Y01197D01*
X018751Y011868D02*
X018821Y011792D01*
X01909Y0114D02*
X019121D01*
X01909Y011369D02*
Y01142D01*
X018827Y011782D02*
X01902Y011589D01*
X016497Y0278D02*
X022122D01*
X0184Y027799D02*
Y030035D01*
X0186Y027799D02*
Y030035D01*
X016497Y0282D02*
X022122D01*
X016497Y0284D02*
X022122D01*
X016497Y028D02*
X022122D01*
X018514Y027799D02*
X018595D01*
X018514D02*
X018595D01*
X019236D01*
X017791D02*
X018514D01*
X018D02*
Y030035D01*
X0178Y027799D02*
Y030035D01*
X0182Y027799D02*
Y030035D01*
X016497Y02781D02*
Y027945D01*
Y02831D01*
Y02781D02*
Y027945D01*
Y0274D02*
X017791D01*
X016497Y02731D02*
Y027445D01*
Y0272D02*
X017791D01*
X016497Y0276D02*
X017791D01*
X016497Y027445D02*
Y02781D01*
Y02731D02*
Y027445D01*
X017791Y026995D02*
Y027076D01*
Y026995D02*
Y027076D01*
Y026354D02*
Y026995D01*
X016497Y027D02*
X017791D01*
Y027076D02*
Y027799D01*
X016497Y0268D02*
X017791D01*
Y026273D02*
Y026354D01*
Y02555D02*
Y026273D01*
Y026354D01*
X016497Y0266D02*
X017791D01*
X016497Y026D02*
X017791D01*
X0174Y023267D02*
Y030035D01*
X0172Y023267D02*
Y030035D01*
X0176Y023267D02*
Y030035D01*
X0168Y023267D02*
Y030035D01*
X016497Y026945D02*
Y02731D01*
X017Y023267D02*
Y030035D01*
X016497Y02631D02*
Y026445D01*
Y02681D01*
Y02631D02*
Y026445D01*
Y02681D02*
Y026945D01*
Y02681D02*
Y026945D01*
X0162Y029945D02*
Y030035D01*
X016Y029945D02*
Y030035D01*
X0164Y029945D02*
Y030035D01*
X013454D02*
X024046D01*
X013547Y03D02*
X023953D01*
X015429Y029945D02*
X016497D01*
Y0296D02*
X022122D01*
X016497Y0298D02*
X022122D01*
X016497Y029445D02*
Y029945D01*
X0158D02*
Y030035D01*
X0156Y029945D02*
Y030035D01*
X015429Y029704D02*
Y029945D01*
X013686Y0298D02*
X015429D01*
X0154Y029693D02*
Y030035D01*
X015225Y02954D02*
X015329Y029644D01*
X013648Y0296D02*
X015285D01*
X016497Y0288D02*
X022122D01*
X016497Y02881D02*
Y028945D01*
Y028445D02*
Y02881D01*
Y0292D02*
X022122D01*
X016497Y0294D02*
X022122D01*
X016497Y029D02*
X022122D01*
X016497Y0262D02*
X017791D01*
X016497Y0264D02*
X017791D01*
X016497Y025945D02*
Y02631D01*
Y0286D02*
X022122D01*
X016497Y02831D02*
Y028445D01*
Y02831D02*
Y028445D01*
Y028945D02*
Y02931D01*
Y029445D01*
Y02881D02*
Y028945D01*
Y02931D02*
Y029445D01*
X014435Y02716D02*
X015259D01*
Y02671D02*
Y02716D01*
X015429Y025945D02*
Y02631D01*
X015176Y026626D02*
X015259Y02671D01*
X01541Y025804D02*
Y026316D01*
X013934Y027D02*
X015259D01*
X013934Y0268D02*
X015259D01*
X018514Y02555D02*
X018595D01*
X018514D02*
X018595D01*
X019236D01*
X016497Y0254D02*
X022122D01*
X017791Y02555D02*
X018514D01*
X016497Y0252D02*
X022122D01*
X016497Y0236D02*
X022122D01*
X016497Y0238D02*
X022122D01*
X016497Y0234D02*
X022122D01*
X016497Y0242D02*
X022122D01*
X016497Y025D02*
X022122D01*
X016497Y024D02*
X022122D01*
X016497Y024945D02*
Y02531D01*
Y0258D02*
X017791D01*
X016497Y02531D02*
Y025445D01*
Y02531D02*
Y025445D01*
Y023445D02*
Y02381D01*
Y023945D01*
Y02331D02*
Y023445D01*
Y02481D02*
Y024945D01*
Y02481D02*
Y024945D01*
Y023945D02*
Y02431D01*
X0184Y023267D02*
Y02555D01*
X0182Y023267D02*
Y02555D01*
X0186Y023267D02*
Y02555D01*
X0178Y023267D02*
Y02555D01*
X017377Y023267D02*
X017742D01*
X018D02*
Y02555D01*
X018242Y023267D02*
X018377D01*
X018242D02*
X018377D01*
X018742D01*
X017742D02*
X017877D01*
X017742D02*
X017877D01*
X018242D01*
X017242D02*
X017377D01*
X016742D02*
X017242D01*
X017377D01*
X016497Y02281D02*
Y02331D01*
Y023445D01*
X016742Y022539D02*
Y023267D01*
X016715Y022512D02*
X016742Y022539D01*
X016497Y0232D02*
X016742D01*
X016497Y023D02*
X016742D01*
X016497Y0256D02*
X017791D01*
X016497Y025445D02*
Y02581D01*
Y024445D02*
Y02481D01*
Y02581D02*
Y025945D01*
Y02581D02*
Y025945D01*
X015429Y024445D02*
Y02481D01*
X016497Y0246D02*
X022122D01*
X016497Y0248D02*
X022122D01*
X016497Y0244D02*
X022122D01*
X01273Y0246D02*
X015429D01*
X014647Y0248D02*
X015429D01*
X01273Y0244D02*
X015429D01*
Y02531D02*
Y025445D01*
Y02581D01*
Y02531D02*
Y025445D01*
Y02581D02*
Y025945D01*
Y02581D02*
Y025945D01*
X01541Y025052D02*
Y0258D01*
X015429Y02481D02*
Y024945D01*
Y02531D01*
Y02481D02*
Y024945D01*
X014798Y025052D02*
X01541D01*
X014647Y025D02*
X015429D01*
X016497Y02431D02*
Y024445D01*
Y02431D02*
Y024445D01*
Y02381D02*
Y023945D01*
X015429Y02331D02*
Y023445D01*
Y02331D02*
Y023445D01*
Y02281D02*
Y02331D01*
X014647Y0226D02*
X016742D01*
X015429Y02281D02*
X016497D01*
X0156Y022512D02*
Y02281D01*
X013227Y023D02*
X015429D01*
X013027Y0232D02*
X015429D01*
X013427Y0228D02*
X016742D01*
X015429Y023945D02*
Y02431D01*
Y024445D01*
Y02381D02*
Y023945D01*
X01273Y0242D02*
X015429D01*
Y02431D02*
Y024445D01*
X01273Y024D02*
X015429D01*
Y023445D02*
Y02381D01*
Y023945D01*
X012827Y0234D02*
X015429D01*
X01273Y0238D02*
X015429D01*
X01273Y0236D02*
X015429D01*
X0152Y029511D02*
Y030035D01*
X0148Y02946D02*
Y030035D01*
X015Y02946D02*
Y030035D01*
X014435Y02946D02*
X015172D01*
X0146D02*
Y030035D01*
X014435Y02876D02*
Y02946D01*
Y028648D02*
Y02873D01*
X014342Y0288D02*
X014435D01*
Y028648D02*
Y02873D01*
X01364Y0292D02*
X014435D01*
X01364Y0294D02*
X014435D01*
X014342Y029D02*
X014435D01*
X0138Y029049D02*
Y030035D01*
X0136Y02996D02*
Y030035D01*
X014Y029049D02*
Y030035D01*
X0132Y02996D02*
Y030035D01*
X0142Y029049D02*
Y030035D01*
X014432Y028646D02*
X014433Y028723D01*
X01364Y029049D02*
Y029534D01*
X013155Y029596D02*
X013157Y029541D01*
X01364Y029049D02*
X014342D01*
X014955Y028549D02*
X014986Y02858D01*
X0148Y02804D02*
Y02858D01*
X014795D02*
X014986D01*
X014885Y02804D02*
Y02838D01*
X014696Y0284D02*
X014886D01*
X014496Y0282D02*
X014885D01*
X014435Y02804D02*
X014885D01*
X0144Y028613D02*
Y030035D01*
X014342Y0286D02*
X014387D01*
X014367Y028071D02*
X014742Y028446D01*
X014342Y028555D02*
X014432Y028646D01*
X014342Y028555D02*
Y029049D01*
X01316Y027698D02*
Y029531D01*
X0146Y02804D02*
Y028304D01*
X014435Y02716D02*
Y02804D01*
X0144Y02589D02*
Y028104D01*
X013097Y0282D02*
X01316D01*
X014342Y027548D02*
Y028041D01*
X0128Y029874D02*
Y030035D01*
X0126Y029874D02*
Y030035D01*
X013Y02979D02*
Y030035D01*
X010733D02*
X013346D01*
X010817Y03D02*
X013253D01*
X012423Y029874D02*
X012837D01*
X01299Y0298D02*
X013114D01*
X012972Y029818D02*
X013042Y029749D01*
X0124Y029873D02*
Y030035D01*
X0122Y029727D02*
Y030035D01*
X011Y029817D02*
Y030035D01*
X012218Y029749D02*
X012288Y029818D01*
X011009Y0298D02*
X01227D01*
X011057Y0296D02*
X012163D01*
X013097Y0294D02*
X01316D01*
X013097Y0296D02*
X013152D01*
X013097Y0292D02*
X01316D01*
X012163Y028292D02*
Y029614D01*
X011096Y029359D02*
X012163Y028292D01*
X013097Y027851D02*
Y029614D01*
Y0286D02*
X01316D01*
X013097Y0288D02*
X01316D01*
X013097Y0284D02*
X01316D01*
X013097Y029D02*
X01316D01*
X011855Y0286D02*
X012163D01*
X012055Y0284D02*
X012163D01*
X0118Y028655D02*
Y030035D01*
X0116Y028855D02*
Y030035D01*
X012Y028455D02*
Y030035D01*
X0112Y029255D02*
Y030035D01*
X011058Y029598D02*
X011058Y029554D01*
X0114Y029055D02*
Y030035D01*
X011455Y029D02*
X012163D01*
X011255Y0292D02*
X012163D01*
X011655Y0288D02*
X012163D01*
X011058Y029554D02*
X011066Y029442D01*
X011075Y0294D02*
X012163D01*
X0148Y026552D02*
Y02716D01*
X015Y026552D02*
Y02716D01*
X013934Y0272D02*
X014435D01*
X0146Y026552D02*
Y02716D01*
X0152Y026651D02*
Y02716D01*
X015142Y026597D02*
X015165Y026619D01*
X015102Y026562D02*
X015142Y026597D01*
X013937Y0266D02*
X015145D01*
X014578Y026552D02*
X015079D01*
X01411Y0264D02*
X014578D01*
X014342Y0278D02*
X014435D01*
X014342Y028D02*
X014435D01*
X014342Y0276D02*
X014435D01*
X014Y026552D02*
Y027548D01*
X013934Y0274D02*
X014435D01*
X013937Y026614D02*
X013938Y026581D01*
X01394Y026552D02*
X01411D01*
X013886Y027548D02*
X014342D01*
X013934Y026626D02*
Y027404D01*
X014735Y025052D02*
X014798D01*
X014735D02*
X014798D01*
X014647Y025049D02*
X0147Y025049D01*
X014647Y025052D02*
X014735D01*
X014578Y026084D02*
Y026552D01*
X014647Y025052D02*
X014735D01*
X014647Y022519D02*
Y022648D01*
Y024652D02*
Y025049D01*
X014676Y022516D02*
X01471Y022515D01*
X014053Y022648D02*
X014647D01*
X014053Y024652D02*
X014647D01*
X0146Y022648D02*
Y024652D01*
X01411Y0258D02*
X01431D01*
X0142Y02569D02*
Y027548D01*
X014128Y025618D02*
X014539Y026029D01*
X01411Y0262D02*
X014578D01*
X01411Y026D02*
X01451D01*
X01411Y025804D02*
Y026552D01*
X0142Y022648D02*
Y024652D01*
X01411Y025618D02*
Y0258D01*
X0144Y022648D02*
Y024652D01*
X014053D02*
Y025052D01*
X013627Y0226D02*
X014053D01*
X01323Y027528D02*
X013454Y027305D01*
Y026626D02*
Y027305D01*
X013051Y0276D02*
X013181D01*
X013005Y0274D02*
X013359D01*
X01345Y026581D02*
X013451Y026614D01*
X01318Y0266D02*
X013451D01*
X013278Y026552D02*
X013448D01*
X01318Y027D02*
X013454D01*
X013173Y0272D02*
X013454D01*
X01318Y0268D02*
X013454D01*
X013091Y0278D02*
X01316D01*
X013097Y028D02*
X01316D01*
X013Y027405D02*
Y027519D01*
X012937Y027467D02*
X013127Y027278D01*
X0134Y026552D02*
Y027359D01*
X013278Y025804D02*
Y026552D01*
Y025052D02*
Y0258D01*
X01273Y0256D02*
X013278D01*
X01273Y0258D02*
X013278D01*
X01273Y0254D02*
X013278D01*
Y025052D02*
X014053D01*
X0134Y022827D02*
Y025052D01*
X0136Y022627D02*
Y025052D01*
X01273Y025D02*
X014053D01*
X01273Y0252D02*
X013278D01*
X01273Y0248D02*
X014053D01*
X01318Y0264D02*
X013278D01*
X01318Y026393D02*
Y02715D01*
X0132Y023027D02*
Y027565D01*
X01273Y025868D02*
X013127Y026265D01*
X012862Y026D02*
X013278D01*
X013062Y0262D02*
X013278D01*
X013Y023227D02*
Y026138D01*
X01273Y023497D02*
Y025868D01*
X0128Y023427D02*
Y025938D01*
X018442Y017D02*
X019219D01*
X018552Y01711D02*
X019003D01*
X0184Y015785D02*
Y016958D01*
X018242Y0168D02*
X020106D01*
X017364Y015922D02*
X018552Y01711D01*
X0182Y015785D02*
Y016758D01*
X017842Y0164D02*
X020501D01*
X018042Y0166D02*
X020295D01*
X017642Y0162D02*
X019386D01*
X017442Y016D02*
X019177D01*
X017364Y0158D02*
X019166D01*
X017368Y015785D02*
X019166D01*
X017082Y0222D02*
X017236D01*
X017082D02*
X017236D01*
X0172Y022164D02*
Y0222D01*
X0166Y022512D02*
Y030035D01*
X016988Y022106D02*
X017082Y0222D01*
X0178Y015785D02*
Y016358D01*
X0176Y015785D02*
Y016158D01*
X018Y015785D02*
Y016558D01*
X017142Y022106D02*
X017236Y0222D01*
X016988Y022106D02*
X017142D01*
X0174Y015785D02*
Y015958D01*
X0186Y015785D02*
Y01711D01*
X0184Y012937D02*
Y014915D01*
X0186Y012916D02*
Y014915D01*
X018Y012937D02*
Y014915D01*
X0178Y014783D02*
Y014915D01*
X0182Y012937D02*
Y014915D01*
X017787Y0148D02*
X022736D01*
X017576Y014915D02*
X019386D01*
X017364Y015785D02*
Y015922D01*
X016984Y015048D02*
Y01597D01*
X0166Y012985D02*
Y01597D01*
X0168Y010945D02*
Y01597D01*
X017576Y014915D02*
X017601Y01489D01*
X0172Y010942D02*
Y014754D01*
X01704Y014914D02*
X017369Y014585D01*
X017Y010942D02*
Y014972D01*
X0164Y02034D02*
Y020392D01*
Y022512D02*
Y02281D01*
X014722Y022512D02*
X016715D01*
X013416Y020392D02*
X016462D01*
X013179Y02034D02*
X016461D01*
X016405Y0158D02*
X016984D01*
X016575Y01597D02*
X016984D01*
X016278Y015673D02*
X016575Y01597D01*
X013845Y0156D02*
X016984D01*
X014398Y0154D02*
X016984D01*
X0162Y022512D02*
Y02281D01*
X016Y022512D02*
Y02281D01*
X0158Y02034D02*
Y020392D01*
Y022512D02*
Y02281D01*
X0154Y02034D02*
Y020392D01*
X0156Y02034D02*
Y020392D01*
X0162Y02034D02*
Y020392D01*
X016Y02034D02*
Y020392D01*
X013865Y01562D02*
X01615D01*
X0156Y01534D02*
Y01562D01*
X0164Y015048D02*
Y015795D01*
X016189Y0152D02*
X016984D01*
X0162Y015189D02*
Y015627D01*
X01612Y01527D02*
X016305Y015085D01*
X01654Y0148D02*
X017154D01*
X01646Y015D02*
X01699D01*
X016Y015335D02*
Y01562D01*
X015166Y01534D02*
X01595D01*
X0154D02*
Y01562D01*
X0158Y01534D02*
Y01562D01*
X015851Y01486D02*
X015965Y014745D01*
X0156Y013564D02*
Y01486D01*
X0158Y013364D02*
Y01486D01*
X015169D02*
X015851D01*
X014289Y0148D02*
X015911D01*
X017835Y0146D02*
X022736D01*
X01799Y012937D02*
X01851D01*
X0178Y012809D02*
Y014517D01*
X018703Y0128D02*
X019075D01*
X01799Y011555D02*
X018284D01*
X0183D02*
X018355D01*
X016764Y0128D02*
X017797D01*
X017785Y01176D02*
Y012732D01*
X016765Y0126D02*
X017785D01*
X016765Y011812D02*
Y012784D01*
X01646Y0146D02*
X017354D01*
X016266Y012989D02*
X01656D01*
X0164D02*
Y014552D01*
X016765Y0122D02*
X017785D01*
X016765Y0124D02*
X017785D01*
X016765Y012D02*
X017785D01*
X016764Y0118D02*
X017785D01*
X018438Y011487D02*
X018476Y011451D01*
X018373Y011542D02*
X018438Y011487D01*
X0184Y011441D02*
Y011519D01*
X0182Y011441D02*
Y011555D01*
X018Y011441D02*
Y011555D01*
X0178Y011313D02*
Y011683D01*
X01799Y011441D02*
X018489D01*
X017785Y010949D02*
Y011236D01*
X016732Y0114D02*
X017867D01*
X016765Y011D02*
X017785D01*
X0174Y010942D02*
Y014517D01*
X0166Y011489D02*
Y011611D01*
X0176Y010942D02*
Y01441D01*
X0164Y011493D02*
Y011607D01*
X017721Y010945D02*
X017755Y010946D01*
X016795D02*
X016829Y010945D01*
X01684Y010942D02*
X01771D01*
X016765Y0112D02*
X017785D01*
X016765Y010949D02*
Y011288D01*
X015564Y0136D02*
X019201D01*
X015364Y0138D02*
X019201D01*
X0162Y012989D02*
Y014514D01*
X014439Y0142D02*
X019201D01*
X01446Y0144D02*
X019201D01*
X014398Y014D02*
X019201D01*
X01618Y013D02*
X019275D01*
X016112Y013057D02*
X016177Y013002D01*
X016195Y012989D02*
X01625D01*
X015764Y0134D02*
X019675D01*
X015964Y0132D02*
X019475D01*
X016074Y013093D02*
X016112Y013057D01*
X016Y013164D02*
Y014653D01*
X01544Y013D02*
X015485D01*
X01544Y0128D02*
X015685D01*
X01525Y013914D02*
X016064Y0131D01*
X014283Y0146D02*
X01604D01*
X01544Y013045D02*
X015723Y012762D01*
X015799Y012677D02*
X015822Y012649D01*
X015729Y012752D02*
X015799Y012677D01*
X015835Y012574D02*
Y012629D01*
X01544Y0126D02*
X015835D01*
X01544Y0124D02*
X015835D01*
X01604Y011607D02*
X01656D01*
X0162Y011493D02*
Y011607D01*
X016Y011489D02*
Y011611D01*
X01544Y0118D02*
X015836D01*
X01544Y0116D02*
X017862D01*
X01604Y011493D02*
X01656D01*
X015835Y010949D02*
Y011288D01*
X01544Y0114D02*
X015868D01*
X014394Y0112D02*
X015835D01*
X014189Y011D02*
X015835D01*
Y011812D02*
Y012558D01*
X0158Y010945D02*
Y012676D01*
X0156Y010942D02*
Y012885D01*
X01544Y0122D02*
X015835D01*
X01544Y01136D02*
Y013045D01*
Y012D02*
X015835D01*
X015771Y010945D02*
X015805Y010946D01*
X0154Y010942D02*
Y01136D01*
X014638D02*
X01544D01*
X014131Y010942D02*
X01576D01*
X0152Y022512D02*
Y025052D01*
X015Y022512D02*
Y025052D01*
X0154Y022512D02*
Y025052D01*
X0148Y022512D02*
Y025052D01*
X0146Y02034D02*
Y020392D01*
X0148Y02034D02*
Y020392D01*
X0152Y02034D02*
Y020392D01*
X015Y015386D02*
Y01562D01*
X0152Y01534D02*
Y01562D01*
X015Y02034D02*
Y020392D01*
X0148Y015348D02*
Y01562D01*
X014436Y0152D02*
X014678D01*
X014053Y022472D02*
Y022648D01*
X014Y022467D02*
Y025052D01*
X0144Y02034D02*
Y020392D01*
X0142Y015536D02*
Y01562D01*
X0144Y015397D02*
Y01562D01*
X0142Y02034D02*
Y020392D01*
X014Y02034D02*
Y020392D01*
Y015498D02*
Y01562D01*
X01439Y015D02*
X014678D01*
X0146Y013984D02*
Y01562D01*
X0152Y013952D02*
Y01486D01*
X015104Y014855D02*
X015159Y014857D01*
X0154Y013764D02*
Y01486D01*
X0148Y013984D02*
Y014852D01*
X015Y013984D02*
Y014814D01*
X01439Y015D02*
Y015034D01*
X0144Y014517D02*
Y015103D01*
X014401Y014109D02*
X014402Y014143D01*
X0142Y014618D02*
Y014711D01*
X0144Y013984D02*
Y014104D01*
X014097Y014607D02*
X01432Y01483D01*
X013827Y0224D02*
X013879D01*
X0138Y022427D02*
Y025052D01*
X01273Y023497D02*
X013855Y022372D01*
X012025Y02152D02*
X012614Y020931D01*
X011978Y021D02*
X012545D01*
X012781Y020764D02*
X013072Y020473D01*
X01199Y0214D02*
X012145D01*
X012Y020978D02*
Y02152D01*
X0122Y020778D02*
Y021345D01*
X011964Y02152D02*
X012025D01*
X0124Y020887D02*
Y021145D01*
X011912Y0212D02*
X012345D01*
X012178Y0208D02*
X012332D01*
X01189Y021088D02*
Y021152D01*
Y021088D02*
X012312Y020666D01*
X0138Y02034D02*
Y020392D01*
X0136Y02034D02*
Y020392D01*
X0138Y014989D02*
Y015555D01*
X013135Y01489D02*
X013865Y01562D01*
X013645Y0154D02*
X013902D01*
X0136Y01489D02*
Y015355D01*
X013701Y01489D02*
X013905Y015094D01*
X013445Y0152D02*
X013864D01*
X013245Y015D02*
X013811D01*
X013135Y01489D02*
X013701D01*
X0132Y02034D02*
Y02042D01*
X012788Y020731D02*
X013179Y02034D01*
X012516Y020462D02*
X012838Y02014D01*
X012519Y020462D02*
X012841Y02014D01*
X0134Y02034D02*
Y020393D01*
X0132Y01489D02*
Y014955D01*
X0134Y01489D02*
Y015155D01*
X0132Y02042D02*
X013319D01*
X013119Y0204D02*
X013363D01*
X014981Y013504D02*
X015245Y01324D01*
X014398Y013984D02*
X01508D01*
X014258Y013504D02*
X014981D01*
X0148Y01324D02*
Y013504D01*
X0152Y01324D02*
Y013285D01*
X015Y01324D02*
Y013485D01*
X01416Y01324D02*
X015245D01*
X01374Y0134D02*
X015085D01*
X0144Y01324D02*
Y013504D01*
X014398Y013984D02*
Y014084D01*
X0146Y01324D02*
Y013504D01*
X014231Y013478D02*
X014258Y013504D01*
X013814Y013408D02*
X014061D01*
X013769Y013404D02*
X013803Y013405D01*
X0142Y01324D02*
Y013452D01*
X01374Y0128D02*
X01416D01*
X01374Y0126D02*
X01416D01*
X015Y010942D02*
Y01136D01*
X0148Y010942D02*
Y01136D01*
X0152Y010942D02*
Y01136D01*
X014587D02*
X014623D01*
X0146Y010942D02*
Y01136D01*
X014549Y011336D02*
X014577Y011354D01*
X014516Y011311D02*
X014549Y011336D01*
X01443Y011235D02*
X014516Y011311D01*
X01438Y011187D02*
X01443Y011235D01*
X014131Y010942D02*
X014362Y011173D01*
X0144Y010942D02*
Y011206D01*
X01416Y011667D02*
Y011725D01*
Y01175D02*
Y01324D01*
Y011667D02*
Y011725D01*
X014096Y01159D02*
X014154Y011659D01*
X014Y011489D02*
Y013408D01*
X0138Y011289D02*
Y013405D01*
X014057Y01155D02*
X014096Y01159D01*
X01374Y0114D02*
X013911D01*
X0142Y010942D02*
Y011011D01*
X01374Y011229D02*
Y01157D01*
Y011229D02*
X01405Y01154D01*
X01374Y013D02*
X01416D01*
X01374Y0132D02*
X01416D01*
X01374Y01253D02*
Y013401D01*
X012219Y01253D02*
X01374D01*
X012298Y0126D02*
X01374D01*
X0136Y01157D02*
Y01253D01*
X011889Y0122D02*
X01416D01*
X012089Y0124D02*
X01416D01*
X01186Y01157D02*
X01374D01*
X011489Y0118D02*
X01416D01*
X011689Y012D02*
X01416D01*
X011289Y0116D02*
X014104D01*
X0126Y01157D02*
Y01253D01*
X0124Y01157D02*
Y01253D01*
X0128Y01157D02*
Y01253D01*
X0124D02*
Y012654D01*
X01225Y012556D02*
X012275Y01258D01*
X011202Y011513D02*
X012219Y01253D01*
X0132Y01157D02*
Y01253D01*
X013Y01157D02*
Y01253D01*
X0134Y01157D02*
Y01253D01*
X012Y01157D02*
Y012311D01*
X0122Y01157D02*
Y012511D01*
X01186Y01084D02*
Y01157D01*
X0118Y01084D02*
Y012111D01*
X0114Y01084D02*
Y011711D01*
X0116Y01084D02*
Y011911D01*
X011129Y01084D02*
X01186D01*
X011055Y011D02*
X01186D01*
X011009Y0114D02*
X01186D01*
X010817Y0112D02*
X01186D01*
X011Y011055D02*
Y011383D01*
X0108Y011055D02*
Y011191D01*
X0112Y01084D02*
Y011511D01*
X010355Y011055D02*
Y011217D01*
X0104Y011055D02*
Y011191D01*
X011055Y010846D02*
Y011055D01*
X0106D02*
Y011145D01*
X011084Y010844D02*
X011117Y010843D01*
X010355Y011055D02*
X011055D01*
X02365Y02315D02*
X02565D01*
X022488Y02235D02*
X02285D01*
X02365Y02315D01*
X022188Y02205D02*
X022488Y02235D01*
X021268Y02205D02*
X022188D01*
X020662Y0222D02*
X021118D01*
X020632D02*
X020662D01*
X01749D02*
X020632D01*
X017216Y021926D02*
X01749Y0222D01*
X019759Y021327D02*
X020632Y0222D01*
X021118D02*
X021268Y02205D01*
X0212Y0119D02*
X021625Y012325D01*
X023493D01*
X02366Y012158D01*
X022594Y01165D02*
X02405D01*
X022419Y011475D02*
X022594Y01165D01*
X017618Y010195D02*
X01765D01*
X014309Y010141D02*
X017563D01*
X017618Y010195D01*
X0143Y01015D02*
X014309Y010141D01*
X02177Y01093D02*
X0222Y0105D01*
X019976Y01093D02*
X02177D01*
X0204Y01605D02*
X020432D01*
X020569Y015914D02*
X020686D01*
X020754Y015846D01*
X020432Y01605D02*
X020569Y015914D01*
X019346Y015937D02*
X019436Y016027D01*
X019346Y015603D02*
Y015937D01*
X019436Y016027D02*
X019577D01*
X0196Y01605D01*
X021107Y017157D02*
X021126Y017138D01*
Y017024D02*
Y017138D01*
Y017024D02*
X021228Y016922D01*
X022828D01*
X020543Y017724D02*
Y017733D01*
X021104Y017154D02*
Y017163D01*
X020543Y017724D02*
X021104Y017163D01*
X020682Y017872D02*
X021404Y01715D01*
X022812D02*
X023562Y0164D01*
X021404Y01715D02*
X022812D01*
X020262Y018292D02*
X020682Y017872D01*
X022828Y016922D02*
X023806Y015944D01*
X020452Y016948D02*
X02065Y01675D01*
X020452Y016948D02*
Y017014D01*
X020653Y017214D01*
X020625Y017333D02*
X020653Y017305D01*
X020403Y017567D02*
X020625Y017345D01*
X020403Y017567D02*
Y017594D01*
X02065Y01675D02*
X022788D01*
X020625Y017333D02*
Y017345D01*
X020653Y017214D02*
Y017305D01*
X020264Y016886D02*
X0206Y01655D01*
X020264Y016886D02*
Y017455D01*
X0206Y01655D02*
X0227D01*
X021331Y01751D02*
X021341D01*
X020821Y018011D02*
X02083D01*
X021331Y01751D01*
X02096Y018151D02*
X021345Y017766D01*
X021359Y01778D01*
Y01778D01*
X01255Y0276D02*
Y029248D01*
X020208Y018292D02*
X020262D01*
X0202Y0183D02*
X020208Y018292D01*
X0132Y0206D02*
X013388D01*
X013416Y020572D01*
X0121Y0217D02*
X0132Y0206D01*
X017982Y020572D02*
X018322Y020232D01*
X013416Y020572D02*
X017982D01*
X013989Y021772D02*
X019009D01*
X012363Y023398D02*
X013989Y021772D01*
X019009D02*
X019436Y021345D01*
X012213Y023336D02*
X013927Y021622D01*
X018881D01*
X019297Y021206D01*
X018752Y021472D02*
X019157Y021067D01*
X012Y023336D02*
X013864Y021472D01*
X018752D01*
X018624Y021322D02*
X019018Y020928D01*
X01185Y023274D02*
X013802Y021322D01*
X018624D01*
X01374Y021172D02*
X018496D01*
X018879Y020789D01*
X0117Y023212D02*
X01374Y021172D01*
X013678Y021022D02*
X018367D01*
X01874Y020649D01*
X01155Y02315D02*
X013678Y021022D01*
X018239Y020872D02*
X018601Y02051D01*
X013578Y020872D02*
X018239D01*
X010953Y023497D02*
X013578Y020872D01*
X0116Y0226D02*
X013478Y020722D01*
X01811D02*
X018461Y020371D01*
X013478Y020722D02*
X01811D01*
X02045Y02045D02*
X02045D01*
X020794Y020789D02*
X020821D01*
X020572Y020567D02*
X020794Y020789D01*
X020567Y020567D02*
X020572D01*
X02045Y02045D02*
X020567Y020567D01*
X020053Y020663D02*
X02006Y020657D01*
X020335Y019819D02*
Y020115D01*
X02006Y02039D02*
X020335Y020115D01*
X02006Y02039D02*
Y020657D01*
X019377Y018357D02*
X0194Y01838D01*
X019377Y018295D02*
Y018357D01*
X019267Y018185D02*
X019377Y018295D01*
X018879Y018038D02*
X019173Y018333D01*
Y018673D02*
X0194Y0189D01*
X018879Y018011D02*
Y018038D01*
X019173Y018333D02*
Y018673D01*
X019018Y017899D02*
X019267Y018148D01*
X019018Y017872D02*
Y017899D01*
X019267Y018148D02*
Y018185D01*
X019515Y018107D02*
Y018124D01*
X019154Y017746D02*
X019515Y018107D01*
X018909Y017511D02*
X019144Y017746D01*
X019154D01*
X01244Y01445D02*
X01379Y0158D01*
X01615D01*
X0165Y01615D01*
X014047Y021926D02*
X017216D01*
X01255Y023423D02*
Y025943D01*
Y023423D02*
X014047Y021926D01*
X027145Y0132D02*
X0275D01*
X027098Y013247D02*
Y013521D01*
Y013247D02*
X027145Y0132D01*
X023806Y015944D02*
X024016D01*
X025219Y0137D02*
X026919D01*
X027098Y013521D01*
X024016Y015944D02*
X024772Y015188D01*
Y014147D02*
X025219Y0137D01*
X024772Y014147D02*
Y015188D01*
X021746Y0206D02*
X0291D01*
X021378Y020232D02*
X021746Y0206D01*
X021932Y020203D02*
X027497D01*
X021683Y019953D02*
X021932Y020203D01*
X027497D02*
X0291Y0186D01*
X021795Y019814D02*
X02199Y020009D01*
X026691D01*
X0291Y0176D01*
X010175Y010239D02*
X010265Y01015D01*
X0143D01*
X02088Y011277D02*
X020904Y0113D01*
X02086Y011256D02*
X02088Y011277D01*
X0189Y01025D02*
X01979Y01114D01*
X018774Y01025D02*
X0189D01*
X01979Y01114D02*
X020353D01*
X020353Y01114D01*
X020414D02*
X020443Y011139D01*
X020492Y01109D01*
X020708D02*
X02086Y011242D01*
Y011256D01*
X020904Y0113D02*
X025332D01*
X020353Y01114D02*
X020414D01*
X025332Y0113D02*
X025592Y01156D01*
X020492Y01109D02*
X020708D01*
X026879Y02981D02*
X027621D01*
X026769Y0297D02*
X026879Y02981D01*
X027621D02*
X027731Y0297D01*
X02487Y0282D02*
X02637Y0297D01*
X027731D02*
X028215D01*
X028739Y029175D01*
X02637Y0297D02*
X026769D01*
X0227Y01655D02*
X022916Y016334D01*
Y013534D02*
Y016334D01*
X022788Y01675D02*
X023689Y015849D01*
Y01569D02*
Y015849D01*
X02357Y015571D02*
X023689Y01569D01*
X02357Y014829D02*
Y015571D01*
X023689Y01471D02*
X02435D01*
X02357Y014829D02*
X023689Y01471D01*
X0165Y01615D02*
X017097D01*
X01842Y017473D01*
X018858D01*
X01355Y0163D02*
X017035D01*
X01185Y0146D02*
X01355Y0163D01*
X018385Y01765D02*
X018611D01*
X017035Y0163D02*
X018385Y01765D01*
X0187Y018151D02*
X01874D01*
X016973Y01645D02*
X018414Y017891D01*
X018451Y017901D02*
X0187Y018151D01*
X018425Y017901D02*
X018451D01*
X018423Y017899D02*
X018425Y017901D01*
X018414Y017891D02*
X018423Y017899D01*
X018858Y017473D02*
X018896Y017511D01*
X018909D01*
X018757Y01765D02*
X018769D01*
X018991Y017872D01*
X018611Y01765D02*
X018639Y017623D01*
X01873D01*
X018757Y01765D01*
X018991Y017872D02*
X019018D01*
X019093Y01535D02*
X019346Y015603D01*
X020754D02*
X021007Y01535D01*
X018377D02*
X019093D01*
X021007D02*
X021723D01*
X020754Y015603D02*
Y015846D01*
X020335Y019819D02*
X02039D01*
Y019277D02*
Y019819D01*
X0196Y019789D02*
X021099Y01829D01*
X0196Y020881D02*
X019824Y021105D01*
X0196Y019789D02*
Y020881D01*
X02039Y019277D02*
X021239Y018429D01*
X0106Y0296D02*
X01215Y02805D01*
Y027262D02*
Y02805D01*
X012363Y023398D02*
Y02705D01*
X01215Y027262D02*
X012363Y02705D01*
X01255Y025943D02*
X013Y026393D01*
Y02715D01*
X01255Y0276D02*
X013Y02715D01*
X021024Y011475D02*
X022419D01*
X0106Y0156D02*
X01145Y01645D01*
X016973D01*
X0106Y0146D02*
X01185D01*
X019759Y021261D02*
Y021327D01*
X019824Y021105D02*
Y021196D01*
X019759Y021261D02*
X019824Y021196D01*
X02398Y01517D02*
Y0152D01*
X020775Y011724D02*
X021024Y011475D01*
X020775Y011724D02*
Y012076D01*
X021164Y012465D02*
Y012864D01*
X0212Y0129D01*
X020775Y012076D02*
X021164Y012465D01*
X02596Y011247D02*
X026007Y0112D01*
X026168D01*
X025808Y01156D02*
X02596Y011408D01*
Y011247D02*
Y011408D01*
X026168Y0112D02*
X02635Y011017D01*
X025592Y01156D02*
X025808D01*
X010175Y010239D02*
Y026175D01*
X01255Y029248D02*
X01263Y029328D01*
X012213Y023336D02*
Y026987D01*
X012Y023336D02*
Y0267D01*
X01185Y023274D02*
Y02535D01*
X0117Y023212D02*
Y024101D01*
X01155Y02315D02*
Y02365D01*
X0106Y0236D02*
X010703Y023497D01*
X010953D01*
X0106Y0226D02*
X0116D01*
X02565Y02315D02*
X0291Y0266D01*
X0266Y0177D02*
X0275Y0168D01*
X022564Y0177D02*
X0266D01*
X02685Y01785D02*
X02825Y01645D01*
X021972Y018597D02*
X022719Y01785D01*
X02685D01*
X022731Y01805D02*
X026862D01*
X021795Y018986D02*
X022731Y01805D01*
X026862D02*
X028312Y0166D01*
X0241Y0164D02*
X0247Y0158D01*
X023562Y0164D02*
X0241D01*
X021778Y018486D02*
X022564Y0177D01*
X021544Y018707D02*
X021766Y018486D01*
X021778D01*
X021517Y018707D02*
X021544D01*
X021656Y018847D02*
X021851Y018652D01*
X021878D02*
X021905Y018625D01*
X021917D02*
X021945Y018597D01*
X021972D01*
X021851Y018652D02*
X021878D01*
X021905Y018625D02*
X021917D01*
X0275Y01515D02*
Y0168D01*
X02825Y01645D02*
X02835D01*
X0291Y0157D01*
Y0156D02*
Y0157D01*
X02724Y011765D02*
X028405Y0106D01*
X024775Y012194D02*
Y012336D01*
X024346Y012765D02*
X024775Y012336D01*
X025204Y011765D02*
X02724D01*
X023684Y012765D02*
X024346D01*
X024775Y012194D02*
X025204Y011765D01*
X022916Y013534D02*
X023684Y012765D01*
X028405Y0106D02*
X0291D01*
X026702Y0121D02*
X026778Y012176D01*
X02555Y0121D02*
X026702D01*
X027438Y011017D02*
X027556Y0109D01*
X02635Y011017D02*
X027438D01*
X010175Y026175D02*
X0106Y0266D01*
X020865Y02135D02*
X0217D01*
X02255Y0222D02*
X023132D01*
X0217Y02135D02*
X02255Y0222D01*
X020804Y021289D02*
X020865Y02135D01*
X02265Y02205D02*
X023688D01*
X0218Y0212D02*
X02265Y02205D01*
X021404Y0212D02*
X0218D01*
X02097Y021177D02*
X021381D01*
X021404Y0212D01*
X021466Y02105D02*
X0219D01*
X02275Y0219D01*
X021221Y020871D02*
X021377Y021027D01*
X021443D01*
X021209Y020871D02*
X021221D01*
X021443Y021027D02*
X021466Y02105D01*
X02275Y0219D02*
X02375D01*
X021528Y0209D02*
X021988D01*
X021348Y020732D02*
X021361D01*
X021126Y02051D02*
X021348Y020732D01*
X021361D02*
X021528Y0209D01*
X021099Y02051D02*
X021126D01*
X0229Y02175D02*
X024205D01*
X022838Y02175D02*
X0229D01*
X021988Y0209D02*
X022838Y02175D01*
X0229D02*
X0229Y02175D01*
X021487Y020593D02*
X0215D01*
X021657Y02075D01*
X021239Y020371D02*
X021266D01*
X021487Y020593D01*
X021657Y02075D02*
X02205D01*
X0229Y0216D01*
X0291D01*
Y0166D02*
X029525Y017025D01*
X029126Y029175D02*
X029525Y028776D01*
X028739Y029175D02*
X029126D01*
X029525Y017025D02*
Y028776D01*
X023544Y025428D02*
X024107D01*
X024855Y026176D02*
X024894D01*
X024107Y025428D02*
X024855Y026176D01*
X022793Y023265D02*
X023019D01*
X023544Y023789D02*
Y025428D01*
X023019Y023265D02*
X023544Y023789D01*
X022656Y023127D02*
X022793Y023265D01*
X0106Y0216D02*
X0107Y0217D01*
X0121D01*
X012238Y01975D02*
X01339Y018597D01*
X010905Y020495D02*
X01165Y01975D01*
X012238D01*
X0106Y0206D02*
X010705Y020495D01*
X010905D01*
X01339Y018597D02*
X017768D01*
X027526Y012137D02*
X028062Y0116D01*
X027526Y012137D02*
Y012176D01*
X028062Y0116D02*
X0291D01*
X0285Y0132D02*
X0291Y0126D01*
X0275Y0132D02*
X0285D01*
X027526Y014187D02*
Y014226D01*
X028112Y0136D02*
X0291D01*
X027526Y014187D02*
X028112Y0136D01*
X02855Y01515D02*
X0291Y0146D01*
X0275Y01515D02*
X02855D01*
X025085Y012765D02*
X025796D01*
X025Y01285D02*
X025085Y012765D01*
X025796D02*
X025816Y012785D01*
X025Y01285D02*
Y01325D01*
X024622Y013628D02*
X025Y01325D01*
X024622Y013628D02*
Y014438D01*
X02435Y01471D02*
X024622Y014438D01*
X025816Y012785D02*
X026836D01*
X027124Y012223D02*
Y012497D01*
X027171Y012176D02*
X027526D01*
X026836Y012785D02*
X027124Y012497D01*
Y012223D02*
X027171Y012176D01*
X02499Y014829D02*
Y01521D01*
X0247Y0155D02*
Y0158D01*
Y0155D02*
X02499Y01521D01*
X025735Y014765D02*
X025815Y014685D01*
X025054Y014765D02*
X025735D01*
X02499Y014829D02*
X025054Y014765D01*
X025815Y014685D02*
X027106D01*
X027526Y014265D01*
Y014226D02*
Y014265D01*
X013926Y027924D02*
X013965D01*
X014875Y02902D02*
X0149D01*
X014615Y02876D02*
X014875Y02902D01*
X014615Y028574D02*
Y02876D01*
X013965Y027924D02*
X014615Y028574D01*
X0124Y01445D02*
X01244D01*
X01135Y01435D02*
X0123D01*
X0124Y01445D01*
X0106Y0136D02*
X01135Y01435D01*
X023297Y027627D02*
X02387Y0282D01*
X022656Y027627D02*
X023297D01*
X023095Y02834D02*
X023345Y02859D01*
Y028675D01*
X022656Y028127D02*
X022872D01*
X023085Y02834D01*
X023095D01*
X023345Y028675D02*
X02387Y0292D01*
X01435Y025107D02*
X014475Y025231D01*
X01435Y025028D02*
Y025107D01*
X014798Y025231D02*
X014994Y025428D01*
X014475Y025231D02*
X014798D01*
X023132Y0222D02*
X023873Y02294D01*
X02057Y021067D02*
X020791Y021289D01*
X023873Y02294D02*
X02419D01*
X020791Y021289D02*
X020804D01*
X020543Y021067D02*
X02057D01*
X02425Y023D02*
X02725D01*
X02419Y02294D02*
X02425Y023D01*
X02725D02*
X028691Y024441D01*
X029053Y025025D02*
X029062Y025031D01*
X029043Y025022D02*
X029053Y025025D01*
X029084Y02505D02*
X0291Y025072D01*
X028691Y024441D02*
Y024474D01*
Y024474D02*
Y024485D01*
X0291Y025072D02*
Y0256D01*
X023783Y022145D02*
Y022638D01*
X023688Y02205D02*
X023783Y022145D01*
X020943Y02115D02*
X02097Y021177D01*
X020931Y02115D02*
X020943D01*
X020682Y020928D02*
X020709D01*
X020931Y02115D01*
X023783Y022638D02*
X023935Y02279D01*
X02444D01*
X024459Y022809D01*
X027309D01*
X0291Y0246D01*
X023933Y022083D02*
Y022576D01*
X023997Y02264D01*
X024403D02*
X024793Y02225D01*
X023997Y02264D02*
X024403D01*
X024793Y02225D02*
X02775D01*
X0291Y0236D01*
X0284Y0219D02*
X0291Y0226D01*
X024205Y02175D02*
X024355Y0219D01*
X0284D01*
X020987Y020649D02*
X021209Y020871D01*
X02096Y020649D02*
X020987D01*
X02375Y0219D02*
X023933Y022083D01*
X021656Y019953D02*
X021683D01*
X028312Y0166D02*
X0291D01*
X0106D02*
X016911D01*
X018601Y01829D01*
X017632Y0176D02*
X018461Y018429D01*
X0106Y0176D02*
X017632D01*
X018024Y018297D02*
X018295Y018568D01*
X0106Y0186D02*
X01061D01*
X018295Y018568D02*
X018322D01*
X010912Y018297D02*
X018024D01*
X01061Y0186D02*
X010912Y018297D01*
X012176Y0196D02*
X013328Y018447D01*
X017896D02*
X018156Y018707D01*
X0106Y0196D02*
X012176D01*
X013328Y018447D02*
X017896D01*
X018156Y018707D02*
X018183D01*
X018017Y018847D02*
X018044D01*
X017768Y018597D02*
X018017Y018847D01*
X0106Y0246D02*
X01155Y02365D01*
X010636Y025165D02*
X0117Y024101D01*
X010636Y025165D02*
Y025564D01*
X0106Y0256D02*
X010636Y025564D01*
X0106Y0266D02*
X01185Y02535D01*
X0106Y0276D02*
X0111D01*
X012Y0267D01*
X0106Y0286D02*
X012213Y026987D01*
D55*
X02088Y011277D02*
D03*
X028691Y024474D02*
D03*
D56*
X01405Y022232D02*
X01431D01*
X01435Y022272D01*
X016814D01*
X01825Y01202D02*
X01885Y01142D01*
X01825Y01202D02*
Y012246D01*
X01885Y01079D02*
Y01142D01*
X01365Y010702D02*
X0183D01*
X0128Y01065D02*
X0131D01*
X01595Y0151D02*
X01625Y0148D01*
X01495Y0151D02*
X01595D01*
X01415Y015D02*
Y01525D01*
X014158Y014308D02*
X014179Y014329D01*
X013694Y0262D02*
Y027404D01*
X0138Y01465D02*
X01415Y015D01*
X014158Y013744D02*
Y014308D01*
X01508Y013744D02*
X0163Y012524D01*
X014158Y013744D02*
X01508D01*
X0163Y012298D02*
Y012524D01*
X0144Y01175D02*
X0148Y01215D01*
X01365Y0108D02*
X0144Y01155D01*
X0128Y0108D02*
X01365D01*
X0144Y01155D02*
Y01175D01*
X012257Y01397D02*
X012937Y01465D01*
X01071Y012901D02*
Y01296D01*
X0106Y012791D02*
X01071Y012901D01*
X012937Y01465D02*
X0138D01*
X0106Y0126D02*
Y012791D01*
X01071Y01296D02*
X01172Y01397D01*
X012257D01*
X023485Y029685D02*
X023984D01*
X023427Y029627D02*
X023485Y029685D01*
X028292Y029955D02*
X028432Y029815D01*
X028885D01*
X028265Y029955D02*
X028292D01*
X028885Y029815D02*
X0291Y0296D01*
X01941Y01135D02*
X0206D01*
X01885Y01079D02*
X01941Y01135D01*
X029075Y0276D02*
X0291D01*
X028984D02*
X029075D01*
X028894Y02751D02*
X028984Y0276D01*
X02557Y027685D02*
X025745Y02751D01*
X028894D01*
X023669Y027685D02*
X02557D01*
X023385Y027401D02*
X023669Y027685D01*
X023385Y026936D02*
X023544Y026777D01*
Y026176D02*
Y026777D01*
X023385Y026936D02*
Y027401D01*
X027275Y0294D02*
X029075Y0276D01*
X02725Y0294D02*
X027275D01*
X0134Y027698D02*
Y02975D01*
Y027698D02*
X013694Y027404D01*
X01825Y012246D02*
X01886D01*
X019999Y013385D01*
X021715D01*
X0222Y0129D01*
X0248Y0109D02*
X025336D01*
X024721D02*
X0248D01*
X0131Y01315D02*
X013598Y013648D01*
X014061D02*
X014158Y013744D01*
X013598Y013648D02*
X014061D01*
X0125Y01315D02*
X0131D01*
Y01065D02*
X013152Y010702D01*
X0106Y0106D02*
X01275D01*
X0128Y01065D01*
X014925Y0276D02*
X015125Y0278D01*
Y02838D01*
X015395Y02865D01*
Y029371D01*
X015499Y029475D01*
X015594D01*
X015746Y029627D01*
X015963D01*
X025681Y011245D02*
Y011281D01*
X0257Y0113D01*
X025336Y0109D02*
X025681Y011245D01*
X0232Y0105D02*
X024321D01*
X024721Y0109D01*
X022656Y029627D02*
X023427D01*
X017059Y022517D02*
Y022734D01*
X016814Y022272D02*
X017059Y022517D01*
X011032Y011682D02*
X0125Y01315D01*
X010682Y011682D02*
X011032D01*
X0106Y0116D02*
X010682Y011682D01*
D57*
X018916Y027036D02*
D03*
X018193D02*
D03*
X019638D02*
D03*
X018193Y026313D02*
D03*
X018916D02*
D03*
X019638D02*
D03*
X018555Y026675D02*
D03*
X019277D02*
D03*
X018555Y027397D02*
D03*
X019277D02*
D03*
X018555Y025952D02*
D03*
X019277D02*
D03*
X01625Y0148D02*
D03*
X01495Y0151D02*
D03*
X01415Y01525D02*
D03*
X014179Y014329D02*
D03*
X0241Y02975D02*
D03*
X028265Y029955D02*
D03*
X01885Y01079D02*
D03*
X0206Y01135D02*
D03*
X0117Y0214D02*
D03*
X01375Y0262D02*
D03*
X02715Y02955D02*
D03*
X0158Y02915D02*
D03*
X0134Y02975D02*
D03*
X024Y0142D02*
D03*
X02398Y01517D02*
D03*
X024469Y012095D02*
D03*
X02405Y01315D02*
D03*
X0257Y0113D02*
D03*
X02105Y0219D02*
D03*
X024193Y0223D02*
D03*
D58*
X0232Y0105D02*
D03*
X0222Y0129D02*
D03*
D59*
Y0105D02*
D03*
X0212D02*
D03*
X0202D02*
D03*
X0222Y0119D02*
D03*
X0212D02*
D03*
X0202D02*
D03*
X0212Y0129D02*
D03*
X0202D02*
D03*
X02387Y0272D02*
D03*
Y0282D02*
D03*
X02487Y0272D02*
D03*
Y0282D02*
D03*
Y0292D02*
D03*
X0291Y0286D02*
D03*
Y0276D02*
D03*
Y0266D02*
D03*
Y0256D02*
D03*
Y0246D02*
D03*
Y0236D02*
D03*
Y0226D02*
D03*
Y0216D02*
D03*
Y0206D02*
D03*
Y0196D02*
D03*
Y0186D02*
D03*
Y0176D02*
D03*
Y0166D02*
D03*
Y0156D02*
D03*
Y0146D02*
D03*
Y0136D02*
D03*
Y0126D02*
D03*
Y0116D02*
D03*
Y0106D02*
D03*
X0106Y0296D02*
D03*
Y0286D02*
D03*
Y0276D02*
D03*
Y0266D02*
D03*
Y0256D02*
D03*
Y0246D02*
D03*
Y0236D02*
D03*
Y0226D02*
D03*
Y0216D02*
D03*
Y0206D02*
D03*
Y0196D02*
D03*
Y0186D02*
D03*
Y0176D02*
D03*
Y0166D02*
D03*
Y0156D02*
D03*
Y0146D02*
D03*
Y0136D02*
D03*
Y0126D02*
D03*
Y0116D02*
D03*
D60*
X0148Y0123D02*
D03*
D61*
X0128Y0108D02*
D03*
Y0133D02*
D03*
D62*
X02387Y0292D02*
D03*
X0291Y0296D02*
D03*
X0106Y0106D02*
D03*
D63*
X012676Y029028D02*
D03*
X01405Y022232D02*
D03*
X021559Y02226D02*
D03*
X02366Y012158D02*
D03*
X02405Y01165D02*
D03*
X01765Y010195D02*
D03*
X019976Y01093D02*
D03*
X0204Y01605D02*
D03*
X0196D02*
D03*
X021104Y017154D02*
D03*
X021341Y01751D02*
D03*
X021359Y01778D02*
D03*
X019924Y017871D02*
D03*
X0202Y0183D02*
D03*
X0167Y020359D02*
D03*
X02045Y02045D02*
D03*
X0186Y019304D02*
D03*
X0194Y01838D02*
D03*
Y0189D02*
D03*
X019515Y018124D02*
D03*
X02095Y0191D02*
D03*
X020053Y020663D02*
D03*
X01985Y02045D02*
D03*
X01939D02*
D03*
X01185Y0201D02*
D03*
X01255Y0207D02*
D03*
X02055Y01395D02*
D03*
X01955D02*
D03*
X018774Y01025D02*
D03*
X02485Y01605D02*
D03*
X01395Y0287D02*
D03*
X01485Y0276D02*
D03*
X0176Y01465D02*
D03*
X02745Y01085D02*
D03*
D64*
X0128Y0277D02*
D03*
X02375Y01095D02*
D03*
M02*
